<svg xmlns="http://www.w3.org/2000/svg" viewBox="0 0 122.56 33.947">
  <g transform="translate(-108.422 -224.237)">
    <rect width="4.554" height="32.444" transform="translate(108.422 224.891)"></rect>
    <path d="M195.217,224.621c-10.029,17.228-20.236,28.568-23.9,28.568-3.311,0-11.871-10.616-20.941-28.568h-5.228c4.557,9.24,17.258,33.245,26.169,33.245,9.73,0,25.842-27.221,29.288-33.245Z" transform="translate(30.378 0.318)"></path>
    <path d="M121.8,257.221c9.023-17.795,17.515-28.307,20.811-28.307,3.645,0,13.768,11.224,23.748,28.307h5.388c-3.729-6.492-19.536-32.984-29.136-32.984-8.829,0-21.376,23.56-26.041,32.984Z" transform="translate(6.737 0)"></path>
  </g>
</svg>