<?xml version="1.0" encoding="UTF-8"?>
<!-- Generator: Adobe Illustrator 16.0.0, SVG Export Plug-In . SVG Version: 6.00 Build 0)  -->
<!DOCTYPE svg PUBLIC "-//W3C//DTD SVG 1.1//EN" "http://www.w3.org/Graphics/SVG/1.1/DTD/svg11.dtd">
<svg version="1.1" id="Ebene_1" xmlns="http://www.w3.org/2000/svg" xmlns:xlink="http://www.w3.org/1999/xlink" x="0px" y="0px" width="1000px" height="1000px" viewBox="0 0 1000 1000" enable-background="new 0 0 1000 1000" xml:space="preserve">
<g>
	<rect x="0" y="0" fill="none" width="1000" height="1000"/>
	<g>
		<path fill="#BABABA" d="M514.998,46.25c258.879,0,468.752,209.873,468.752,468.746c0,258.891-209.873,468.754-468.752,468.754    c-258.883,0-468.747-209.863-468.747-468.754C46.251,256.124,256.115,46.25,514.998,46.25z"/>
		<path fill="#FF6E00" stroke="#FF6E00" stroke-width="3.1253" stroke-miterlimit="3.8637" d="M499.998,31.255    C758.877,31.255,968.75,241.124,968.75,500c0,258.887-209.873,468.76-468.752,468.76C241.115,968.76,31.246,758.887,31.246,500    C31.246,241.124,241.115,31.255,499.998,31.255z"/>
		<path fill-rule="evenodd" clip-rule="evenodd" fill="#FFFFFF" d="M276.56,272.076c4.346,10.059,6.738,21.201,6.738,32.861    c0,45.562-36.929,82.495-82.501,82.495c-45.561,0-82.5-36.934-82.5-82.495c0-45.576,36.939-82.515,82.5-82.515    c16.935,0,32.652,5.137,45.758,13.882v-21.372c0-39.36,31.899-71.27,71.246-71.27l201.748,0.01v120.01H402.551    c-2.484,0-4.502,2.012-4.502,4.497v73.501c0,2.485,2.018,4.502,4.502,4.502h116.998v101.25H405.555    c-4.146,0-7.506,3.359-7.506,7.505v258.754h91.51V529.938c0-14.502,11.748-26.256,26.25-26.256h33.75    c14.502,0,26.24,11.754,26.24,26.256v183.754h91.515V529.938c0-14.502,11.748-26.256,26.25-26.256h33.751    c14.502,0,26.25,11.754,26.25,26.256v183.754h91.494V454.937c0-4.146-3.34-7.505-7.49-7.505h-291.76v-29.99h303.01    c14.502,0,26.25,11.743,26.25,26.245v300.004H723.545V538.184c0-2.484-1.992-4.502-4.482-4.502h-17.257    c-2.471,0-4.502,2.018-4.502,4.502v205.508H545.809V538.184c0-2.484-2.002-4.502-4.492-4.502h-17.275    c-2.49,0-4.492,2.018-4.492,4.502v205.508H181.301v-30h65.254V454.937c0-4.146-3.359-7.505-7.505-7.505h-83.999v296.259h-30    v-326.25H250.3c14.502,0,26.26,11.743,26.26,26.245v270.004h91.499V443.687c0-14.502,11.744-26.245,26.246-26.245h95.254v-41.26    h-95.254c-14.502,0-26.246-11.753-26.246-26.245v-90.005c0-14.502,11.744-26.255,26.246-26.255h95.254v-60H317.801    c-22.779,0-41.241,18.472-41.241,41.255V272.076z M148.293,304.937c0-29.004,23.51-52.505,52.504-52.505    c28.995,0,52.506,23.501,52.506,52.505c0,28.989-23.511,52.495-52.506,52.495C171.803,357.432,148.293,333.926,148.293,304.937z"/>
		
			<path fill-rule="evenodd" clip-rule="evenodd" fill="#1A1A18" stroke="#1A1A18" stroke-width="3.1253" stroke-miterlimit="3.8637" d="    M148.293,304.937c0-29.004,23.51-52.505,52.504-52.505c28.995,0,52.506,23.501,52.506,52.505    c0,28.989-23.511,52.495-52.506,52.495C171.803,357.432,148.293,333.926,148.293,304.937z M118.297,304.937    c0-45.576,36.939-82.515,82.5-82.515c45.572,0,82.501,36.938,82.501,82.515c0,45.562-36.929,82.495-82.501,82.495    C155.236,387.432,118.297,350.499,118.297,304.937z"/>
	</g>
</g>
<g>
</g>
<g>
</g>
<g>
</g>
<g>
</g>
<g>
</g>
<g>
</g>
<g>
</g>
<g>
</g>
<g>
</g>
<g>
</g>
<g>
</g>
<g>
</g>
<g>
</g>
<g>
</g>
<g>
</g>
</svg>