export const pianoRollSample = [
  {
    "duration": 0.16927083333325754,
    "end": 0.16927083333325754,
    "pitch": 101,
    "start": 0,
    "velocity": 44
  },
  {
    "duration": 0.15625,
    "end": 0.24531249999995453,
    "pitch": 87,
    "start": 0.08906249999995453,
    "velocity": 76
  },
  {
    "duration": 0.14583333333337123,
    "end": 0.30416666666667425,
    "pitch": 94,
    "start": 0.15833333333330302,
    "velocity": 71
  },
  {
    "duration": 0.13854166666669698,
    "end": 0.2979166666666515,
    "pitch": 89,
    "start": 0.15937499999995453,
    "velocity": 59
  },
  {
    "duration": 0.14374999999995453,
    "end": 0.30312499999990905,
    "pitch": 97,
    "start": 0.15937499999995453,
    "velocity": 66
  },
  {
    "duration": 0.1348958333334167,
    "end": 0.30416666666667425,
    "pitch": 101,
    "start": 0.16927083333325754,
    "velocity": 41
  },
  {
    "duration": 0.15572916666667425,
    "end": 0.40104166666662877,
    "pitch": 87,
    "start": 0.24531249999995453,
    "velocity": 85
  },
  {
    "duration": 0.22500000000002274,
    "end": 0.5229166666666742,
    "pitch": 89,
    "start": 0.2979166666666515,
    "velocity": 57
  },
  {
    "duration": 0.21927083333332575,
    "end": 0.5223958333332348,
    "pitch": 97,
    "start": 0.30312499999990905,
    "velocity": 57
  },
  {
    "duration": 0.22083333333330302,
    "end": 0.5249999999999773,
    "pitch": 94,
    "start": 0.30416666666667425,
    "velocity": 59
  },
  {
    "duration": 0.21927083333332575,
    "end": 0.5234375,
    "pitch": 101,
    "start": 0.30416666666667425,
    "velocity": 70
  },
  {
    "duration": 0.3192708333333485,
    "end": 0.7203124999999773,
    "pitch": 87,
    "start": 0.40104166666662877,
    "velocity": 97
  },
  {
    "duration": 1.2177083333333485,
    "end": 1.7401041666665833,
    "pitch": 97,
    "start": 0.5223958333332348,
    "velocity": 85
  },
  {
    "duration": 1.2843749999999545,
    "end": 1.8072916666666288,
    "pitch": 89,
    "start": 0.5229166666666742,
    "velocity": 84
  },
  {
    "duration": 1.2838541666666288,
    "end": 1.8072916666666288,
    "pitch": 101,
    "start": 0.5234375,
    "velocity": 94
  },
  {
    "duration": 0.07604166666669698,
    "end": 0.6010416666666742,
    "pitch": 94,
    "start": 0.5249999999999773,
    "velocity": 84
  },
  {
    "duration": 1.158333333333303,
    "end": 1.7593749999999773,
    "pitch": 94,
    "start": 0.6010416666666742,
    "velocity": 5
  },
  {
    "duration": 1.0869791666666515,
    "end": 1.8072916666666288,
    "pitch": 87,
    "start": 0.7203124999999773,
    "velocity": 108
  },
  {
    "duration": 1.9229166666666515,
    "end": 3.6619791666665833,
    "pitch": 85,
    "start": 1.7390624999999318,
    "velocity": 97
  },
  {
    "duration": 1.921875,
    "end": 3.6619791666665833,
    "pitch": 97,
    "start": 1.7401041666665833,
    "velocity": 94
  },
  {
    "duration": 1.9197916666665833,
    "end": 3.6619791666665833,
    "pitch": 90,
    "start": 1.7421875,
    "velocity": 85
  },
  {
    "duration": 1.9057291666666742,
    "end": 3.6619791666665833,
    "pitch": 75,
    "start": 1.756249999999909,
    "velocity": 72
  },
  {
    "duration": 1.902604166666606,
    "end": 3.6619791666665833,
    "pitch": 94,
    "start": 1.7593749999999773,
    "velocity": 86
  },
  {
    "duration": 1.9010416666666288,
    "end": 3.6619791666665833,
    "pitch": 73,
    "start": 1.7609374999999545,
    "velocity": 77
  },
  {
    "duration": 1.8958333333332575,
    "end": 3.6619791666665833,
    "pitch": 66,
    "start": 1.7661458333333258,
    "velocity": 71
  },
  {
    "duration": 0.4333333333332803,
    "end": 4.0833333333332575,
    "pitch": 87,
    "start": 3.6499999999999773,
    "velocity": 99
  },
  {
    "duration": 0.32291666666662877,
    "end": 4.215104166666606,
    "pitch": 89,
    "start": 3.8921874999999773,
    "velocity": 76
  },
  {
    "duration": 0.3234374999999545,
    "end": 4.223437499999932,
    "pitch": 97,
    "start": 3.8999999999999773,
    "velocity": 75
  },
  {
    "duration": 0.3312499999999545,
    "end": 4.232291666666583,
    "pitch": 101,
    "start": 3.9010416666666288,
    "velocity": 80
  },
  {
    "duration": 0.31510416666662877,
    "end": 4.22239583333328,
    "pitch": 94,
    "start": 3.9072916666666515,
    "velocity": 73
  },
  {
    "duration": 0.2781250000000455,
    "end": 4.361458333333303,
    "pitch": 87,
    "start": 4.0833333333332575,
    "velocity": 88
  },
  {
    "duration": 0.2723958333333485,
    "end": 4.4874999999999545,
    "pitch": 89,
    "start": 4.215104166666606,
    "velocity": 79
  },
  {
    "duration": 0.2687499999999545,
    "end": 4.491145833333235,
    "pitch": 94,
    "start": 4.22239583333328,
    "velocity": 67
  },
  {
    "duration": 0.2687500000000682,
    "end": 4.4921875,
    "pitch": 97,
    "start": 4.223437499999932,
    "velocity": 55
  },
  {
    "duration": 0.2609375000000682,
    "end": 4.4932291666666515,
    "pitch": 101,
    "start": 4.232291666666583,
    "velocity": 76
  },
  {
    "duration": 0.23854166666660603,
    "end": 4.599999999999909,
    "pitch": 87,
    "start": 4.361458333333303,
    "velocity": 85
  },
  {
    "duration": 0.22968749999995453,
    "end": 4.717187499999909,
    "pitch": 89,
    "start": 4.4874999999999545,
    "velocity": 80
  },
  {
    "duration": 0.23229166666669698,
    "end": 4.723437499999932,
    "pitch": 94,
    "start": 4.491145833333235,
    "velocity": 64
  },
  {
    "duration": 0.2411458333332348,
    "end": 4.733333333333235,
    "pitch": 97,
    "start": 4.4921875,
    "velocity": 48
  },
  {
    "duration": 0.24583333333328028,
    "end": 4.739062499999932,
    "pitch": 101,
    "start": 4.4932291666666515,
    "velocity": 78
  },
  {
    "duration": 0.22604166666667425,
    "end": 4.826041666666583,
    "pitch": 87,
    "start": 4.599999999999909,
    "velocity": 73
  },
  {
    "duration": 0.2197916666667652,
    "end": 4.936979166666674,
    "pitch": 89,
    "start": 4.717187499999909,
    "velocity": 76
  },
  {
    "duration": 0.2218750000000682,
    "end": 4.9453125,
    "pitch": 94,
    "start": 4.723437499999932,
    "velocity": 70
  },
  {
    "duration": 0.21875,
    "end": 4.952083333333235,
    "pitch": 97,
    "start": 4.733333333333235,
    "velocity": 55
  },
  {
    "duration": 0.21927083333332575,
    "end": 4.9583333333332575,
    "pitch": 101,
    "start": 4.739062499999932,
    "velocity": 65
  },
  {
    "duration": 0.19895833333339397,
    "end": 5.024999999999977,
    "pitch": 87,
    "start": 4.826041666666583,
    "velocity": 75
  },
  {
    "duration": 0.18020833333332575,
    "end": 5.1171875,
    "pitch": 89,
    "start": 4.936979166666674,
    "velocity": 76
  },
  {
    "duration": 0.17499999999995453,
    "end": 5.1203124999999545,
    "pitch": 94,
    "start": 4.9453125,
    "velocity": 68
  },
  {
    "duration": 0.17135416666667425,
    "end": 5.123437499999909,
    "pitch": 97,
    "start": 4.952083333333235,
    "velocity": 59
  },
  {
    "duration": 0.1651041666666515,
    "end": 5.123437499999909,
    "pitch": 101,
    "start": 4.9583333333332575,
    "velocity": 48
  },
  {
    "duration": 0.17239583333332575,
    "end": 5.197395833333303,
    "pitch": 87,
    "start": 5.024999999999977,
    "velocity": 80
  },
  {
    "duration": 0.1260416666666515,
    "end": 5.2432291666666515,
    "pitch": 89,
    "start": 5.1171875,
    "velocity": 58
  },
  {
    "duration": 0.12187500000004547,
    "end": 5.2421875,
    "pitch": 94,
    "start": 5.1203124999999545,
    "velocity": 59
  },
  {
    "duration": 0.12656250000009095,
    "end": 5.25,
    "pitch": 97,
    "start": 5.123437499999909,
    "velocity": 50
  },
  {
    "duration": 0.12760416666674246,
    "end": 5.2510416666666515,
    "pitch": 101,
    "start": 5.123437499999909,
    "velocity": 53
  },
  {
    "duration": 0.17135416666667425,
    "end": 5.368749999999977,
    "pitch": 87,
    "start": 5.197395833333303,
    "velocity": 87
  },
  {
    "duration": 0.2947916666665833,
    "end": 5.536979166666583,
    "pitch": 94,
    "start": 5.2421875,
    "velocity": 73
  },
  {
    "duration": 0.283333333333303,
    "end": 5.5265624999999545,
    "pitch": 89,
    "start": 5.2432291666666515,
    "velocity": 53
  },
  {
    "duration": 0.28645833333325754,
    "end": 5.5364583333332575,
    "pitch": 97,
    "start": 5.25,
    "velocity": 67
  },
  {
    "duration": 0.283333333333303,
    "end": 5.5343749999999545,
    "pitch": 101,
    "start": 5.2510416666666515,
    "velocity": 76
  },
  {
    "duration": 0.4463541666666515,
    "end": 5.815104166666629,
    "pitch": 87,
    "start": 5.368749999999977,
    "velocity": 99
  },
  {
    "duration": 1.9723958333332803,
    "end": 7.498958333333235,
    "pitch": 89,
    "start": 5.5265624999999545,
    "velocity": 92
  },
  {
    "duration": 1.9645833333332803,
    "end": 7.498958333333235,
    "pitch": 101,
    "start": 5.5343749999999545,
    "velocity": 91
  },
  {
    "duration": 1.8625000000000682,
    "end": 7.398958333333326,
    "pitch": 97,
    "start": 5.5364583333332575,
    "velocity": 80
  },
  {
    "duration": 0.07708333333334849,
    "end": 5.614062499999932,
    "pitch": 94,
    "start": 5.536979166666583,
    "velocity": 85
  },
  {
    "duration": 1.7979166666666515,
    "end": 7.411979166666583,
    "pitch": 94,
    "start": 5.614062499999932,
    "velocity": 9
  },
  {
    "duration": 1.683854166666606,
    "end": 7.498958333333235,
    "pitch": 87,
    "start": 5.815104166666629,
    "velocity": 97
  },
  {
    "duration": 1.2671874999999773,
    "end": 8.666145833333303,
    "pitch": 97,
    "start": 7.398958333333326,
    "velocity": 94
  },
  {
    "duration": 1.2666666666666515,
    "end": 8.666145833333303,
    "pitch": 85,
    "start": 7.3994791666666515,
    "velocity": 96
  },
  {
    "duration": 1.2567708333333485,
    "end": 8.666145833333303,
    "pitch": 90,
    "start": 7.4093749999999545,
    "velocity": 84
  },
  {
    "duration": 1.2562500000000227,
    "end": 8.666145833333303,
    "pitch": 66,
    "start": 7.40989583333328,
    "velocity": 80
  },
  {
    "duration": 1.2541666666667197,
    "end": 8.666145833333303,
    "pitch": 94,
    "start": 7.411979166666583,
    "velocity": 85
  },
  {
    "duration": 1.252083333333303,
    "end": 8.666145833333303,
    "pitch": 73,
    "start": 7.4140625,
    "velocity": 80
  },
  {
    "duration": 1.2447916666666288,
    "end": 8.666145833333303,
    "pitch": 76,
    "start": 7.421354166666674,
    "velocity": 68
  },
  {
    "duration": 0.6651041666666515,
    "end": 9.345312499999977,
    "pitch": 85,
    "start": 8.680208333333326,
    "velocity": 93
  },
  {
    "duration": 1.7817708333333258,
    "end": 10.466145833333258,
    "pitch": 97,
    "start": 8.684374999999932,
    "velocity": 90
  },
  {
    "duration": 0.7807291666666742,
    "end": 9.474999999999909,
    "pitch": 90,
    "start": 8.694270833333235,
    "velocity": 59
  },
  {
    "duration": 1.6171875,
    "end": 10.317187499999932,
    "pitch": 94,
    "start": 8.699999999999932,
    "velocity": 68
  },
  {
    "duration": 1.011458333333394,
    "end": 10.728645833333303,
    "pitch": 85,
    "start": 9.717187499999909,
    "velocity": 102
  },
  {
    "duration": 0.6119791666666288,
    "end": 10.732291666666583,
    "pitch": 90,
    "start": 10.120312499999955,
    "velocity": 92
  },
  {
    "duration": 0.411979166666697,
    "end": 10.729166666666629,
    "pitch": 94,
    "start": 10.317187499999932,
    "velocity": 95
  },
  {
    "duration": 0.2619791666667197,
    "end": 10.728124999999977,
    "pitch": 97,
    "start": 10.466145833333258,
    "velocity": 100
  },
  {
    "duration": 2.6010416666666742,
    "end": 13.329166666666652,
    "pitch": 97,
    "start": 10.728124999999977,
    "velocity": 96
  },
  {
    "duration": 2.6026041666666515,
    "end": 13.331249999999955,
    "pitch": 85,
    "start": 10.728645833333303,
    "velocity": 88
  },
  {
    "duration": 0.06302083333332575,
    "end": 10.792187499999955,
    "pitch": 94,
    "start": 10.729166666666629,
    "velocity": 94
  },
  {
    "duration": 2.5979166666667197,
    "end": 13.330208333333303,
    "pitch": 90,
    "start": 10.732291666666583,
    "velocity": 70
  },
  {
    "duration": 2.5687500000000227,
    "end": 13.360937499999977,
    "pitch": 94,
    "start": 10.792187499999955,
    "velocity": 10
  },
  {
    "duration": 0.6015625,
    "end": 13.354166666666629,
    "pitch": 61,
    "start": 12.752604166666629,
    "velocity": 86
  },
  {
    "duration": 0.583854166666697,
    "end": 13.338020833333303,
    "pitch": 70,
    "start": 12.754166666666606,
    "velocity": 86
  },
  {
    "duration": 0.583854166666697,
    "end": 13.351041666666674,
    "pitch": 66,
    "start": 12.767187499999977,
    "velocity": 76
  },
  {
    "duration": 5.9718749999999545,
    "end": 19.301041666666606,
    "pitch": 97,
    "start": 13.329166666666652,
    "velocity": 103
  },
  {
    "duration": 5.5770833333333485,
    "end": 18.90729166666665,
    "pitch": 90,
    "start": 13.330208333333303,
    "velocity": 77
  },
  {
    "duration": 5.2802083333333485,
    "end": 18.611458333333303,
    "pitch": 85,
    "start": 13.331249999999955,
    "velocity": 96
  },
  {
    "duration": 3.951041666666697,
    "end": 17.2890625,
    "pitch": 70,
    "start": 13.338020833333303,
    "velocity": 76
  },
  {
    "duration": 1.984375,
    "end": 15.335416666666674,
    "pitch": 66,
    "start": 13.351041666666674,
    "velocity": 61
  },
  {
    "duration": 0.8317708333332803,
    "end": 14.185937499999909,
    "pitch": 61,
    "start": 13.354166666666629,
    "velocity": 78
  },
  {
    "duration": 5.7510416666666515,
    "end": 19.11197916666663,
    "pitch": 94,
    "start": 13.360937499999977,
    "velocity": 51
  },
  {
    "duration": 6.138541666666697,
    "end": 20.324479166666606,
    "pitch": 61,
    "start": 14.185937499999909,
    "velocity": 68
  },
  {
    "duration": 5.002604166666629,
    "end": 20.338020833333303,
    "pitch": 66,
    "start": 15.335416666666674,
    "velocity": 81
  },
  {
    "duration": 3.035937499999932,
    "end": 20.324999999999932,
    "pitch": 70,
    "start": 17.2890625,
    "velocity": 91
  },
  {
    "duration": 1.6979166666666288,
    "end": 20.309374999999932,
    "pitch": 85,
    "start": 18.611458333333303,
    "velocity": 96
  },
  {
    "duration": 1.4067708333333258,
    "end": 20.314062499999977,
    "pitch": 90,
    "start": 18.90729166666665,
    "velocity": 88
  },
  {
    "duration": 1.203125,
    "end": 20.31510416666663,
    "pitch": 94,
    "start": 19.11197916666663,
    "velocity": 96
  },
  {
    "duration": 1.0072916666666742,
    "end": 20.30833333333328,
    "pitch": 97,
    "start": 19.301041666666606,
    "velocity": 92
  },
  {
    "duration": 1.588020833333303,
    "end": 21.896354166666583,
    "pitch": 97,
    "start": 20.30833333333328,
    "velocity": 94
  },
  {
    "duration": 1.5869791666666515,
    "end": 21.896354166666583,
    "pitch": 85,
    "start": 20.309374999999932,
    "velocity": 96
  },
  {
    "duration": 1.582291666666606,
    "end": 21.896354166666583,
    "pitch": 90,
    "start": 20.314062499999977,
    "velocity": 83
  },
  {
    "duration": 1.5812499999999545,
    "end": 21.896354166666583,
    "pitch": 94,
    "start": 20.31510416666663,
    "velocity": 90
  },
  {
    "duration": 1.5328124999999773,
    "end": 21.857291666666583,
    "pitch": 61,
    "start": 20.324479166666606,
    "velocity": 86
  },
  {
    "duration": 1.519270833333394,
    "end": 21.844270833333326,
    "pitch": 70,
    "start": 20.324999999999932,
    "velocity": 82
  },
  {
    "duration": 1.5161458333333258,
    "end": 21.85416666666663,
    "pitch": 66,
    "start": 20.338020833333303,
    "velocity": 70
  },
  {
    "duration": 0.886979166666606,
    "end": 21.896354166666583,
    "pitch": 54,
    "start": 21.009374999999977,
    "velocity": 88
  },
  {
    "duration": 1.5062500000000227,
    "end": 23.34635416666663,
    "pitch": 99,
    "start": 21.840104166666606,
    "velocity": 102
  },
  {
    "duration": 1.502083333333303,
    "end": 23.34635416666663,
    "pitch": 70,
    "start": 21.844270833333326,
    "velocity": 90
  },
  {
    "duration": 1.5,
    "end": 23.34635416666663,
    "pitch": 87,
    "start": 21.84635416666663,
    "velocity": 104
  },
  {
    "duration": 1.4921875,
    "end": 23.34635416666663,
    "pitch": 66,
    "start": 21.85416666666663,
    "velocity": 79
  },
  {
    "duration": 1.4890625000000455,
    "end": 23.34635416666663,
    "pitch": 61,
    "start": 21.857291666666583,
    "velocity": 80
  },
  {
    "duration": 1.1020833333333258,
    "end": 24.43229166666663,
    "pitch": 85,
    "start": 23.330208333333303,
    "velocity": 105
  },
  {
    "duration": 1.0963541666666288,
    "end": 24.43229166666663,
    "pitch": 90,
    "start": 23.3359375,
    "velocity": 86
  },
  {
    "duration": 1.0942708333333258,
    "end": 24.43229166666663,
    "pitch": 97,
    "start": 23.338020833333303,
    "velocity": 98
  },
  {
    "duration": 1.09375,
    "end": 24.43229166666663,
    "pitch": 94,
    "start": 23.33854166666663,
    "velocity": 95
  },
  {
    "duration": 1.0479166666666515,
    "end": 24.395312499999932,
    "pitch": 70,
    "start": 23.34739583333328,
    "velocity": 91
  },
  {
    "duration": 1.0604166666665833,
    "end": 24.413020833333235,
    "pitch": 61,
    "start": 23.35260416666665,
    "velocity": 83
  },
  {
    "duration": 1.0406249999999773,
    "end": 24.40104166666663,
    "pitch": 66,
    "start": 23.36041666666665,
    "velocity": 76
  },
  {
    "duration": 0.5260416666666288,
    "end": 24.43229166666663,
    "pitch": 54,
    "start": 23.90625,
    "velocity": 90
  },
  {
    "duration": 1.2822916666666515,
    "end": 25.659374999999955,
    "pitch": 99,
    "start": 24.377083333333303,
    "velocity": 104
  },
  {
    "duration": 1.2734375,
    "end": 25.659374999999955,
    "pitch": 87,
    "start": 24.385937499999955,
    "velocity": 106
  },
  {
    "duration": 1.2640625000000227,
    "end": 25.659374999999955,
    "pitch": 70,
    "start": 24.395312499999932,
    "velocity": 88
  },
  {
    "duration": 1.2583333333333258,
    "end": 25.659374999999955,
    "pitch": 66,
    "start": 24.40104166666663,
    "velocity": 82
  },
  {
    "duration": 1.2463541666667197,
    "end": 25.659374999999955,
    "pitch": 61,
    "start": 24.413020833333235,
    "velocity": 76
  },
  {
    "duration": 1.4026041666667197,
    "end": 26.985937499999977,
    "pitch": 89,
    "start": 25.583333333333258,
    "velocity": 118
  },
  {
    "duration": 1.3937500000000682,
    "end": 26.985937499999977,
    "pitch": 25,
    "start": 25.59218749999991,
    "velocity": 113
  },
  {
    "duration": 1.3937500000000682,
    "end": 26.985937499999977,
    "pitch": 101,
    "start": 25.59218749999991,
    "velocity": 115
  },
  {
    "duration": 1.392708333333303,
    "end": 26.985937499999977,
    "pitch": 97,
    "start": 25.593229166666674,
    "velocity": 111
  },
  {
    "duration": 1.380729166666697,
    "end": 26.985937499999977,
    "pitch": 37,
    "start": 25.60520833333328,
    "velocity": 104
  },
  {
    "duration": 1.0218750000000227,
    "end": 26.985937499999977,
    "pitch": 99,
    "start": 25.964062499999955,
    "velocity": 7
  },
  {
    "duration": 0.44687499999997726,
    "end": 27.413020833333235,
    "pitch": 87,
    "start": 26.966145833333258,
    "velocity": 110
  },
  {
    "duration": 0.31197916666667425,
    "end": 27.556249999999977,
    "pitch": 89,
    "start": 27.244270833333303,
    "velocity": 92
  },
  {
    "duration": 0.31406249999997726,
    "end": 27.56614583333328,
    "pitch": 94,
    "start": 27.252083333333303,
    "velocity": 85
  },
  {
    "duration": 0.31302083333332575,
    "end": 27.56614583333328,
    "pitch": 97,
    "start": 27.253124999999955,
    "velocity": 86
  },
  {
    "duration": 0.3057291666666515,
    "end": 27.564062499999977,
    "pitch": 101,
    "start": 27.258333333333326,
    "velocity": 90
  },
  {
    "duration": 0.2890625,
    "end": 27.702083333333235,
    "pitch": 87,
    "start": 27.413020833333235,
    "velocity": 96
  },
  {
    "duration": 0.2510416666666515,
    "end": 27.80729166666663,
    "pitch": 89,
    "start": 27.556249999999977,
    "velocity": 86
  },
  {
    "duration": 0.25833333333332575,
    "end": 27.822395833333303,
    "pitch": 101,
    "start": 27.564062499999977,
    "velocity": 90
  },
  {
    "duration": 0.24427083333330302,
    "end": 27.810416666666583,
    "pitch": 94,
    "start": 27.56614583333328,
    "velocity": 75
  },
  {
    "duration": 0.24479166666662877,
    "end": 27.81093749999991,
    "pitch": 97,
    "start": 27.56614583333328,
    "velocity": 76
  },
  {
    "duration": 0.2130208333334167,
    "end": 27.91510416666665,
    "pitch": 87,
    "start": 27.702083333333235,
    "velocity": 86
  },
  {
    "duration": 0.20364583333332575,
    "end": 28.010937499999955,
    "pitch": 89,
    "start": 27.80729166666663,
    "velocity": 79
  },
  {
    "duration": 0.20781250000004547,
    "end": 28.01822916666663,
    "pitch": 94,
    "start": 27.810416666666583,
    "velocity": 74
  },
  {
    "duration": 0.21510416666671972,
    "end": 28.02604166666663,
    "pitch": 97,
    "start": 27.81093749999991,
    "velocity": 69
  },
  {
    "duration": 0.20677083333328028,
    "end": 28.029166666666583,
    "pitch": 101,
    "start": 27.822395833333303,
    "velocity": 70
  },
  {
    "duration": 0.18229166666662877,
    "end": 28.09739583333328,
    "pitch": 87,
    "start": 27.91510416666665,
    "velocity": 79
  },
  {
    "duration": 0.16822916666671972,
    "end": 28.179166666666674,
    "pitch": 89,
    "start": 28.010937499999955,
    "velocity": 80
  },
  {
    "duration": 0.1640625,
    "end": 28.18229166666663,
    "pitch": 94,
    "start": 28.01822916666663,
    "velocity": 80
  },
  {
    "duration": 0.15416666666669698,
    "end": 28.180208333333326,
    "pitch": 97,
    "start": 28.02604166666663,
    "velocity": 67
  },
  {
    "duration": 0.1671875000000682,
    "end": 28.19635416666665,
    "pitch": 101,
    "start": 28.029166666666583,
    "velocity": 68
  },
  {
    "duration": 0.16562499999997726,
    "end": 28.263020833333258,
    "pitch": 87,
    "start": 28.09739583333328,
    "velocity": 86
  },
  {
    "duration": 0.1171875,
    "end": 28.296354166666674,
    "pitch": 89,
    "start": 28.179166666666674,
    "velocity": 61
  },
  {
    "duration": 0.125,
    "end": 28.305208333333326,
    "pitch": 97,
    "start": 28.180208333333326,
    "velocity": 61
  },
  {
    "duration": 0.11979166666662877,
    "end": 28.302083333333258,
    "pitch": 94,
    "start": 28.18229166666663,
    "velocity": 64
  },
  {
    "duration": 0.12708333333330302,
    "end": 28.323437499999955,
    "pitch": 101,
    "start": 28.19635416666665,
    "velocity": 38
  },
  {
    "duration": 0.1640625,
    "end": 28.427083333333258,
    "pitch": 87,
    "start": 28.263020833333258,
    "velocity": 99
  },
  {
    "duration": 0.28281249999997726,
    "end": 28.57916666666665,
    "pitch": 89,
    "start": 28.296354166666674,
    "velocity": 76
  },
  {
    "duration": 0.2843750000000682,
    "end": 28.586458333333326,
    "pitch": 94,
    "start": 28.302083333333258,
    "velocity": 75
  },
  {
    "duration": 0.27604166666662877,
    "end": 28.581249999999955,
    "pitch": 97,
    "start": 28.305208333333326,
    "velocity": 73
  },
  {
    "duration": 0.26302083333337123,
    "end": 28.586458333333326,
    "pitch": 101,
    "start": 28.323437499999955,
    "velocity": 73
  },
  {
    "duration": 0.43229166666674246,
    "end": 28.859375,
    "pitch": 87,
    "start": 28.427083333333258,
    "velocity": 101
  },
  {
    "duration": 1.4088541666666288,
    "end": 29.98802083333328,
    "pitch": 89,
    "start": 28.57916666666665,
    "velocity": 103
  },
  {
    "duration": 1.3401041666667197,
    "end": 29.921354166666674,
    "pitch": 97,
    "start": 28.581249999999955,
    "velocity": 96
  },
  {
    "duration": 1.4015624999999545,
    "end": 29.98802083333328,
    "pitch": 101,
    "start": 28.586458333333326,
    "velocity": 104
  },
  {
    "duration": 0.07760416666667425,
    "end": 28.6640625,
    "pitch": 94,
    "start": 28.586458333333326,
    "velocity": 90
  },
  {
    "duration": 1.2791666666665833,
    "end": 29.943229166666583,
    "pitch": 94,
    "start": 28.6640625,
    "velocity": 10
  },
  {
    "duration": 1.1286458333332803,
    "end": 29.98802083333328,
    "pitch": 87,
    "start": 28.859375,
    "velocity": 105
  },
  {
    "duration": 1.8947916666667197,
    "end": 31.81510416666663,
    "pitch": 85,
    "start": 29.92031249999991,
    "velocity": 103
  },
  {
    "duration": 1.8937499999999545,
    "end": 31.81510416666663,
    "pitch": 97,
    "start": 29.921354166666674,
    "velocity": 98
  },
  {
    "duration": 1.8828125,
    "end": 31.81510416666663,
    "pitch": 90,
    "start": 29.93229166666663,
    "velocity": 85
  },
  {
    "duration": 1.872916666666697,
    "end": 31.81510416666663,
    "pitch": 70,
    "start": 29.942187499999932,
    "velocity": 85
  },
  {
    "duration": 1.8718750000000455,
    "end": 31.81510416666663,
    "pitch": 94,
    "start": 29.943229166666583,
    "velocity": 80
  },
  {
    "duration": 1.865104166666697,
    "end": 31.81510416666663,
    "pitch": 61,
    "start": 29.949999999999932,
    "velocity": 84
  },
  {
    "duration": 1.8567708333333712,
    "end": 31.81510416666663,
    "pitch": 66,
    "start": 29.958333333333258,
    "velocity": 73
  },
  {
    "duration": 0.6999999999999318,
    "end": 32.41197916666658,
    "pitch": 87,
    "start": 31.71197916666665,
    "velocity": 96
  },
  {
    "duration": 0.47708333333332575,
    "end": 32.45416666666665,
    "pitch": 89,
    "start": 31.977083333333326,
    "velocity": 95
  },
  {
    "duration": 0.4729166666667197,
    "end": 32.45416666666665,
    "pitch": 101,
    "start": 31.981249999999932,
    "velocity": 98
  },
  {
    "duration": 0.46041666666667425,
    "end": 32.87239583333326,
    "pitch": 87,
    "start": 32.41197916666658,
    "velocity": 96
  },
  {
    "duration": 1.0531250000000227,
    "end": 33.72916666666663,
    "pitch": 92,
    "start": 32.676041666666606,
    "velocity": 60
  },
  {
    "duration": 0.6499999999999773,
    "end": 33.33437499999991,
    "pitch": 97,
    "start": 32.68437499999993,
    "velocity": 51
  },
  {
    "duration": 0.685416666666697,
    "end": 33.371354166666606,
    "pitch": 101,
    "start": 32.68593749999991,
    "velocity": 40
  },
  {
    "duration": 0.5140625000000227,
    "end": 33.207291666666606,
    "pitch": 89,
    "start": 32.69322916666658,
    "velocity": 33
  },
  {
    "duration": 1.034895833333394,
    "end": 33.72916666666663,
    "pitch": 88,
    "start": 32.694270833333235,
    "velocity": 29
  },
  {
    "duration": 0.8197916666666742,
    "end": 33.69218749999993,
    "pitch": 87,
    "start": 32.87239583333326,
    "velocity": 62
  },
  {
    "duration": 0.5218750000000227,
    "end": 33.72916666666663,
    "pitch": 89,
    "start": 33.207291666666606,
    "velocity": 79
  },
  {
    "duration": 0.47395833333337123,
    "end": 33.72916666666663,
    "pitch": 94,
    "start": 33.25520833333326,
    "velocity": 99
  },
  {
    "duration": 0.3947916666667197,
    "end": 33.72916666666663,
    "pitch": 97,
    "start": 33.33437499999991,
    "velocity": 95
  },
  {
    "duration": 0.35781250000002274,
    "end": 33.72916666666663,
    "pitch": 101,
    "start": 33.371354166666606,
    "velocity": 85
  },
  {
    "duration": 0.328125,
    "end": 34.02031249999993,
    "pitch": 87,
    "start": 33.69218749999993,
    "velocity": 92
  },
  {
    "duration": 0.2734375,
    "end": 34.13541666666663,
    "pitch": 101,
    "start": 33.86197916666663,
    "velocity": 83
  },
  {
    "duration": 0.25833333333332575,
    "end": 34.121354166666606,
    "pitch": 89,
    "start": 33.86302083333328,
    "velocity": 71
  },
  {
    "duration": 0.265625,
    "end": 34.135937499999955,
    "pitch": 97,
    "start": 33.870312499999955,
    "velocity": 66
  },
  {
    "duration": 0.2687500000000682,
    "end": 34.148958333333326,
    "pitch": 94,
    "start": 33.88020833333326,
    "velocity": 61
  },
  {
    "duration": 0.22500000000002274,
    "end": 34.245312499999955,
    "pitch": 87,
    "start": 34.02031249999993,
    "velocity": 78
  },
  {
    "duration": 0.2197916666666515,
    "end": 34.34114583333326,
    "pitch": 89,
    "start": 34.121354166666606,
    "velocity": 62
  },
  {
    "duration": 0.23593749999997726,
    "end": 34.371354166666606,
    "pitch": 101,
    "start": 34.13541666666663,
    "velocity": 56
  },
  {
    "duration": 0.22291666666671972,
    "end": 34.358854166666674,
    "pitch": 97,
    "start": 34.135937499999955,
    "velocity": 42
  },
  {
    "duration": 0.20833333333325754,
    "end": 34.35729166666658,
    "pitch": 94,
    "start": 34.148958333333326,
    "velocity": 38
  },
  {
    "duration": 0.19791666666662877,
    "end": 34.44322916666658,
    "pitch": 87,
    "start": 34.245312499999955,
    "velocity": 68
  },
  {
    "duration": 0.18593750000002274,
    "end": 34.52708333333328,
    "pitch": 89,
    "start": 34.34114583333326,
    "velocity": 65
  },
  {
    "duration": 0.171875,
    "end": 34.52916666666658,
    "pitch": 94,
    "start": 34.35729166666658,
    "velocity": 57
  },
  {
    "duration": 0.17239583333332575,
    "end": 34.53125,
    "pitch": 97,
    "start": 34.358854166666674,
    "velocity": 45
  },
  {
    "duration": 0.44687499999997726,
    "end": 34.81822916666658,
    "pitch": 101,
    "start": 34.371354166666606,
    "velocity": 39
  },
  {
    "duration": 0.14583333333337123,
    "end": 34.589062499999955,
    "pitch": 87,
    "start": 34.44322916666658,
    "velocity": 70
  },
  {
    "duration": 0.1338541666666515,
    "end": 34.66093749999993,
    "pitch": 89,
    "start": 34.52708333333328,
    "velocity": 47
  },
  {
    "duration": 0.13020833333337123,
    "end": 34.659374999999955,
    "pitch": 94,
    "start": 34.52916666666658,
    "velocity": 56
  },
  {
    "duration": 0.1328125,
    "end": 34.6640625,
    "pitch": 97,
    "start": 34.53125,
    "velocity": 45
  },
  {
    "duration": 0.16718749999995453,
    "end": 34.75624999999991,
    "pitch": 87,
    "start": 34.589062499999955,
    "velocity": 73
  },
  {
    "duration": 0.1395833333333485,
    "end": 34.7989583333333,
    "pitch": 94,
    "start": 34.659374999999955,
    "velocity": 68
  },
  {
    "duration": 0.13437499999997726,
    "end": 34.79531249999991,
    "pitch": 89,
    "start": 34.66093749999993,
    "velocity": 51
  },
  {
    "duration": 0.14114583333332575,
    "end": 34.805208333333326,
    "pitch": 97,
    "start": 34.6640625,
    "velocity": 61
  },
  {
    "duration": 0.15572916666667425,
    "end": 34.91197916666658,
    "pitch": 87,
    "start": 34.75624999999991,
    "velocity": 83
  },
  {
    "duration": 0.2598958333334167,
    "end": 35.055208333333326,
    "pitch": 89,
    "start": 34.79531249999991,
    "velocity": 53
  },
  {
    "duration": 0.25937499999997726,
    "end": 35.05833333333328,
    "pitch": 94,
    "start": 34.7989583333333,
    "velocity": 67
  },
  {
    "duration": 0.2510416666666515,
    "end": 35.05624999999998,
    "pitch": 97,
    "start": 34.805208333333326,
    "velocity": 57
  },
  {
    "duration": 0.23489583333332575,
    "end": 35.05312499999991,
    "pitch": 101,
    "start": 34.81822916666658,
    "velocity": 21
  },
  {
    "duration": 0.3973958333333485,
    "end": 35.30937499999993,
    "pitch": 87,
    "start": 34.91197916666658,
    "velocity": 96
  },
  {
    "duration": 1.328125,
    "end": 36.38124999999991,
    "pitch": 101,
    "start": 35.05312499999991,
    "velocity": 77
  },
  {
    "duration": 1.3260416666665833,
    "end": 36.38124999999991,
    "pitch": 89,
    "start": 35.055208333333326,
    "velocity": 56
  },
  {
    "duration": 1.3249999999999318,
    "end": 36.38124999999991,
    "pitch": 97,
    "start": 35.05624999999998,
    "velocity": 71
  },
  {
    "duration": 1.3229166666666288,
    "end": 36.38124999999991,
    "pitch": 94,
    "start": 35.05833333333328,
    "velocity": 71
  },
  {
    "duration": 1.0718749999999773,
    "end": 36.38124999999991,
    "pitch": 87,
    "start": 35.30937499999993,
    "velocity": 78
  },
  {
    "duration": 0.3078124999999545,
    "end": 36.69114583333328,
    "pitch": 87,
    "start": 36.383333333333326,
    "velocity": 95
  },
  {
    "duration": 0.2546874999999318,
    "end": 36.801041666666606,
    "pitch": 89,
    "start": 36.546354166666674,
    "velocity": 65
  },
  {
    "duration": 0.26614583333332575,
    "end": 36.8203125,
    "pitch": 101,
    "start": 36.554166666666674,
    "velocity": 72
  },
  {
    "duration": 0.2614583333332803,
    "end": 36.823437499999955,
    "pitch": 97,
    "start": 36.561979166666674,
    "velocity": 51
  },
  {
    "duration": 0.2479166666665833,
    "end": 36.81093749999991,
    "pitch": 94,
    "start": 36.563020833333326,
    "velocity": 48
  },
  {
    "duration": 0.2411458333333485,
    "end": 36.93229166666663,
    "pitch": 87,
    "start": 36.69114583333328,
    "velocity": 71
  },
  {
    "duration": 0.22604166666667425,
    "end": 37.02708333333328,
    "pitch": 89,
    "start": 36.801041666666606,
    "velocity": 75
  },
  {
    "duration": 0.2255208333333485,
    "end": 37.03645833333326,
    "pitch": 94,
    "start": 36.81093749999991,
    "velocity": 57
  },
  {
    "duration": 0.4208333333332348,
    "end": 37.241145833333235,
    "pitch": 101,
    "start": 36.8203125,
    "velocity": 52
  },
  {
    "duration": 0.22187499999995453,
    "end": 37.04531249999991,
    "pitch": 97,
    "start": 36.823437499999955,
    "velocity": 46
  },
  {
    "duration": 0.2098958333333485,
    "end": 37.14218749999998,
    "pitch": 87,
    "start": 36.93229166666663,
    "velocity": 67
  },
  {
    "duration": 0.2020833333333485,
    "end": 37.22916666666663,
    "pitch": 89,
    "start": 37.02708333333328,
    "velocity": 71
  },
  {
    "duration": 0.19270833333337123,
    "end": 37.22916666666663,
    "pitch": 94,
    "start": 37.03645833333326,
    "velocity": 62
  },
  {
    "duration": 0.19010416666674246,
    "end": 37.23541666666665,
    "pitch": 97,
    "start": 37.04531249999991,
    "velocity": 49
  },
  {
    "duration": 0.17916666666667425,
    "end": 37.32135416666665,
    "pitch": 87,
    "start": 37.14218749999998,
    "velocity": 61
  },
  {
    "duration": 0.15416666666669698,
    "end": 37.383333333333326,
    "pitch": 89,
    "start": 37.22916666666663,
    "velocity": 61
  },
  {
    "duration": 0.17135416666667425,
    "end": 37.4005208333333,
    "pitch": 94,
    "start": 37.22916666666663,
    "velocity": 64
  },
  {
    "duration": 0.1697916666665833,
    "end": 37.405208333333235,
    "pitch": 97,
    "start": 37.23541666666665,
    "velocity": 50
  },
  {
    "duration": 0.16093750000004547,
    "end": 37.40208333333328,
    "pitch": 101,
    "start": 37.241145833333235,
    "velocity": 35
  },
  {
    "duration": 0.18593750000002274,
    "end": 37.507291666666674,
    "pitch": 87,
    "start": 37.32135416666665,
    "velocity": 63
  },
  {
    "duration": 0.1416666666666515,
    "end": 37.52499999999998,
    "pitch": 89,
    "start": 37.383333333333326,
    "velocity": 61
  },
  {
    "duration": 0.15260416666660603,
    "end": 37.55312499999991,
    "pitch": 94,
    "start": 37.4005208333333,
    "velocity": 43
  },
  {
    "duration": 0.3869791666667197,
    "end": 37.7890625,
    "pitch": 101,
    "start": 37.40208333333328,
    "velocity": 42
  },
  {
    "duration": 0.3828125,
    "end": 37.788020833333235,
    "pitch": 97,
    "start": 37.405208333333235,
    "velocity": 35
  },
  {
    "duration": 0.6411458333333258,
    "end": 38.1484375,
    "pitch": 87,
    "start": 37.507291666666674,
    "velocity": 78
  },
  {
    "duration": 0.25,
    "end": 37.77499999999998,
    "pitch": 89,
    "start": 37.52499999999998,
    "velocity": 1
  },
  {
    "duration": 0.23697916666674246,
    "end": 37.79010416666665,
    "pitch": 94,
    "start": 37.55312499999991,
    "velocity": 9
  },
  {
    "duration": 1.963020833333303,
    "end": 39.73802083333328,
    "pitch": 89,
    "start": 37.77499999999998,
    "velocity": 88
  },
  {
    "duration": 1.8953125000000455,
    "end": 39.68333333333328,
    "pitch": 97,
    "start": 37.788020833333235,
    "velocity": 67
  },
  {
    "duration": 1.9489583333332803,
    "end": 39.73802083333328,
    "pitch": 101,
    "start": 37.7890625,
    "velocity": 80
  },
  {
    "duration": 0.11302083333328028,
    "end": 37.90312499999993,
    "pitch": 94,
    "start": 37.79010416666665,
    "velocity": 76
  },
  {
    "duration": 1.8000000000000682,
    "end": 39.703125,
    "pitch": 94,
    "start": 37.90312499999993,
    "velocity": 4
  },
  {
    "duration": 1.5895833333332803,
    "end": 39.73802083333328,
    "pitch": 87,
    "start": 38.1484375,
    "velocity": 88
  },
  {
    "duration": 1.4557291666666288,
    "end": 41.13906249999991,
    "pitch": 97,
    "start": 39.68333333333328,
    "velocity": 90
  },
  {
    "duration": 1.4526041666666742,
    "end": 41.13906249999991,
    "pitch": 85,
    "start": 39.686458333333235,
    "velocity": 94
  },
  {
    "duration": 1.4380208333333258,
    "end": 41.13906249999991,
    "pitch": 90,
    "start": 39.70104166666658,
    "velocity": 79
  },
  {
    "duration": 1.435937499999909,
    "end": 41.13906249999991,
    "pitch": 94,
    "start": 39.703125,
    "velocity": 78
  },
  {
    "duration": 1.4296875,
    "end": 41.13906249999991,
    "pitch": 70,
    "start": 39.70937499999991,
    "velocity": 76
  },
  {
    "duration": 1.4249999999999545,
    "end": 41.13906249999991,
    "pitch": 61,
    "start": 39.714062499999955,
    "velocity": 68
  },
  {
    "duration": 1.3916666666666515,
    "end": 41.13906249999991,
    "pitch": 66,
    "start": 39.74739583333326,
    "velocity": 14
  },
  {
    "duration": 0.38541666666662877,
    "end": 41.51041666666663,
    "pitch": 87,
    "start": 41.125,
    "velocity": 100
  },
  {
    "duration": 0.33072916666662877,
    "end": 41.65104166666663,
    "pitch": 89,
    "start": 41.3203125,
    "velocity": 91
  },
  {
    "duration": 0.328125,
    "end": 41.6583333333333,
    "pitch": 97,
    "start": 41.3302083333333,
    "velocity": 80
  },
  {
    "duration": 0.326041666666697,
    "end": 41.65729166666665,
    "pitch": 101,
    "start": 41.331249999999955,
    "velocity": 85
  },
  {
    "duration": 0.431770833333303,
    "end": 41.94218749999993,
    "pitch": 87,
    "start": 41.51041666666663,
    "velocity": 83
  },
  {
    "duration": 0.291145833333303,
    "end": 41.94218749999993,
    "pitch": 89,
    "start": 41.65104166666663,
    "velocity": 73
  },
  {
    "duration": 0.2901041666666515,
    "end": 41.94218749999993,
    "pitch": 94,
    "start": 41.65208333333328,
    "velocity": 78
  },
  {
    "duration": 0.2848958333332803,
    "end": 41.94218749999993,
    "pitch": 101,
    "start": 41.65729166666665,
    "velocity": 56
  },
  {
    "duration": 0.28385416666662877,
    "end": 41.94218749999993,
    "pitch": 97,
    "start": 41.6583333333333,
    "velocity": 61
  },
  {
    "duration": 0.33645833333332575,
    "end": 42.34635416666663,
    "pitch": 87,
    "start": 42.0098958333333,
    "velocity": 88
  },
  {
    "duration": 0.29843749999997726,
    "end": 42.47239583333328,
    "pitch": 89,
    "start": 42.1739583333333,
    "velocity": 82
  },
  {
    "duration": 0.29270833333339397,
    "end": 42.47916666666663,
    "pitch": 94,
    "start": 42.186458333333235,
    "velocity": 69
  },
  {
    "duration": 0.2890625,
    "end": 42.47812499999998,
    "pitch": 97,
    "start": 42.18906249999998,
    "velocity": 61
  },
  {
    "duration": 0.2932291666667197,
    "end": 42.484375,
    "pitch": 101,
    "start": 42.19114583333328,
    "velocity": 66
  },
  {
    "duration": 0.27604166666662877,
    "end": 42.62239583333326,
    "pitch": 87,
    "start": 42.34635416666663,
    "velocity": 76
  },
  {
    "duration": 0.2578125,
    "end": 42.73020833333328,
    "pitch": 89,
    "start": 42.47239583333328,
    "velocity": 78
  },
  {
    "duration": 0.27083333333325754,
    "end": 42.748958333333235,
    "pitch": 97,
    "start": 42.47812499999998,
    "velocity": 65
  },
  {
    "duration": 0.26510416666667425,
    "end": 42.7442708333333,
    "pitch": 94,
    "start": 42.47916666666663,
    "velocity": 66
  },
  {
    "duration": 0.259895833333303,
    "end": 42.7442708333333,
    "pitch": 101,
    "start": 42.484375,
    "velocity": 64
  },
  {
    "duration": 0.24166666666667425,
    "end": 42.86406249999993,
    "pitch": 87,
    "start": 42.62239583333326,
    "velocity": 73
  },
  {
    "duration": 0.22708333333332575,
    "end": 42.957291666666606,
    "pitch": 89,
    "start": 42.73020833333328,
    "velocity": 82
  },
  {
    "duration": 0.23072916666660603,
    "end": 42.97499999999991,
    "pitch": 101,
    "start": 42.7442708333333,
    "velocity": 67
  },
  {
    "duration": 0.21302083333330302,
    "end": 42.957291666666606,
    "pitch": 94,
    "start": 42.7442708333333,
    "velocity": 66
  },
  {
    "duration": 0.22343750000004547,
    "end": 42.97239583333328,
    "pitch": 97,
    "start": 42.748958333333235,
    "velocity": 53
  },
  {
    "duration": 0.20104166666669698,
    "end": 43.06510416666663,
    "pitch": 87,
    "start": 42.86406249999993,
    "velocity": 76
  },
  {
    "duration": 0.18802083333332575,
    "end": 43.14531249999993,
    "pitch": 89,
    "start": 42.957291666666606,
    "velocity": 74
  },
  {
    "duration": 0.19010416666662877,
    "end": 43.147395833333235,
    "pitch": 94,
    "start": 42.957291666666606,
    "velocity": 75
  },
  {
    "duration": 0.18593750000002274,
    "end": 43.1583333333333,
    "pitch": 97,
    "start": 42.97239583333328,
    "velocity": 62
  },
  {
    "duration": 0.18906250000009095,
    "end": 43.1640625,
    "pitch": 101,
    "start": 42.97499999999991,
    "velocity": 57
  },
  {
    "duration": 0.16197916666669698,
    "end": 43.227083333333326,
    "pitch": 87,
    "start": 43.06510416666663,
    "velocity": 81
  },
  {
    "duration": 0.27499999999997726,
    "end": 43.42031249999991,
    "pitch": 89,
    "start": 43.14531249999993,
    "velocity": 71
  },
  {
    "duration": 0.2567708333333485,
    "end": 43.40416666666658,
    "pitch": 94,
    "start": 43.147395833333235,
    "velocity": 65
  },
  {
    "duration": 0.2489583333333485,
    "end": 43.40729166666665,
    "pitch": 97,
    "start": 43.1583333333333,
    "velocity": 48
  },
  {
    "duration": 0.25,
    "end": 43.4140625,
    "pitch": 101,
    "start": 43.1640625,
    "velocity": 30
  },
  {
    "duration": 0.5109374999999545,
    "end": 43.73802083333328,
    "pitch": 87,
    "start": 43.227083333333326,
    "velocity": 90
  },
  {
    "duration": 0.6411458333333258,
    "end": 44.04531249999991,
    "pitch": 94,
    "start": 43.40416666666658,
    "velocity": 80
  },
  {
    "duration": 0.642708333333303,
    "end": 44.049999999999955,
    "pitch": 97,
    "start": 43.40729166666665,
    "velocity": 76
  },
  {
    "duration": 0.6239583333332348,
    "end": 44.038020833333235,
    "pitch": 101,
    "start": 43.4140625,
    "velocity": 75
  },
  {
    "duration": 0.6166666666666742,
    "end": 44.03697916666658,
    "pitch": 89,
    "start": 43.42031249999991,
    "velocity": 44
  },
  {
    "duration": 1.9156249999999773,
    "end": 45.339062499999955,
    "pitch": 88,
    "start": 43.42343749999998,
    "velocity": 53
  },
  {
    "duration": 0.6593749999999545,
    "end": 44.397395833333235,
    "pitch": 87,
    "start": 43.73802083333328,
    "velocity": 102
  },
  {
    "duration": 1.3020833333333712,
    "end": 45.339062499999955,
    "pitch": 89,
    "start": 44.03697916666658,
    "velocity": 90
  },
  {
    "duration": 1.3010416666667197,
    "end": 45.339062499999955,
    "pitch": 101,
    "start": 44.038020833333235,
    "velocity": 94
  },
  {
    "duration": 1.253645833333394,
    "end": 45.2989583333333,
    "pitch": 94,
    "start": 44.04531249999991,
    "velocity": 78
  },
  {
    "duration": 1.2270833333333258,
    "end": 45.27708333333328,
    "pitch": 97,
    "start": 44.049999999999955,
    "velocity": 71
  },
  {
    "duration": 0.9416666666667197,
    "end": 45.339062499999955,
    "pitch": 87,
    "start": 44.397395833333235,
    "velocity": 96
  },
  {
    "duration": 1.1749999999999545,
    "end": 46.452083333333235,
    "pitch": 97,
    "start": 45.27708333333328,
    "velocity": 88
  },
  {
    "duration": 1.173958333333303,
    "end": 46.452083333333235,
    "pitch": 85,
    "start": 45.27812499999993,
    "velocity": 90
  },
  {
    "duration": 1.1609374999999318,
    "end": 46.452083333333235,
    "pitch": 90,
    "start": 45.2911458333333,
    "velocity": 78
  },
  {
    "duration": 1.154687499999909,
    "end": 46.452083333333235,
    "pitch": 70,
    "start": 45.297395833333326,
    "velocity": 83
  },
  {
    "duration": 0.08333333333337123,
    "end": 45.382291666666674,
    "pitch": 94,
    "start": 45.2989583333333,
    "velocity": 70
  },
  {
    "duration": 1.1499999999999773,
    "end": 46.452083333333235,
    "pitch": 61,
    "start": 45.30208333333326,
    "velocity": 79
  },
  {
    "duration": 1.1458333333332575,
    "end": 46.452083333333235,
    "pitch": 66,
    "start": 45.30624999999998,
    "velocity": 69
  },
  {
    "duration": 1.068749999999909,
    "end": 46.452083333333235,
    "pitch": 94,
    "start": 45.383333333333326,
    "velocity": 3
  },
  {
    "duration": 0.4677083333333485,
    "end": 46.8770833333333,
    "pitch": 87,
    "start": 46.409374999999955,
    "velocity": 99
  },
  {
    "duration": 0.43385416666660603,
    "end": 47.082291666666606,
    "pitch": 97,
    "start": 46.6484375,
    "velocity": 80
  },
  {
    "duration": 0.42916666666667425,
    "end": 47.07916666666665,
    "pitch": 89,
    "start": 46.64999999999998,
    "velocity": 81
  },
  {
    "duration": 0.43697916666667425,
    "end": 47.09218749999991,
    "pitch": 101,
    "start": 46.655208333333235,
    "velocity": 83
  },
  {
    "duration": 0.42916666666667425,
    "end": 47.093229166666674,
    "pitch": 94,
    "start": 46.6640625,
    "velocity": 62
  },
  {
    "duration": 0.6651041666666515,
    "end": 47.542187499999955,
    "pitch": 87,
    "start": 46.8770833333333,
    "velocity": 87
  },
  {
    "duration": 0.6619791666665833,
    "end": 47.741145833333235,
    "pitch": 89,
    "start": 47.07916666666665,
    "velocity": 78
  },
  {
    "duration": 0.6796875,
    "end": 47.761979166666606,
    "pitch": 97,
    "start": 47.082291666666606,
    "velocity": 70
  },
  {
    "duration": 0.6557291666666742,
    "end": 47.74791666666658,
    "pitch": 101,
    "start": 47.09218749999991,
    "velocity": 71
  },
  {
    "duration": 0.6635416666665606,
    "end": 47.756770833333235,
    "pitch": 94,
    "start": 47.093229166666674,
    "velocity": 61
  },
  {
    "duration": 0.3947916666667197,
    "end": 47.936979166666674,
    "pitch": 87,
    "start": 47.542187499999955,
    "velocity": 95
  },
  {
    "duration": 0.34635416666674246,
    "end": 48.08749999999998,
    "pitch": 89,
    "start": 47.741145833333235,
    "velocity": 76
  },
  {
    "duration": 0.3484375000000455,
    "end": 48.09635416666663,
    "pitch": 101,
    "start": 47.74791666666658,
    "velocity": 72
  },
  {
    "duration": 0.34427083333343944,
    "end": 48.101041666666674,
    "pitch": 94,
    "start": 47.756770833333235,
    "velocity": 59
  },
  {
    "duration": 0.34635416666662877,
    "end": 48.108333333333235,
    "pitch": 97,
    "start": 47.761979166666606,
    "velocity": 48
  },
  {
    "duration": 0.3104166666665833,
    "end": 48.24739583333326,
    "pitch": 87,
    "start": 47.936979166666674,
    "velocity": 80
  },
  {
    "duration": 0.32447916666660603,
    "end": 48.41197916666658,
    "pitch": 89,
    "start": 48.08749999999998,
    "velocity": 71
  },
  {
    "duration": 0.30989583333337123,
    "end": 48.40625,
    "pitch": 101,
    "start": 48.09635416666663,
    "velocity": 65
  },
  {
    "duration": 0.338020833333303,
    "end": 48.43906249999998,
    "pitch": 94,
    "start": 48.101041666666674,
    "velocity": 56
  },
  {
    "duration": 0.3406250000000455,
    "end": 48.44895833333328,
    "pitch": 97,
    "start": 48.108333333333235,
    "velocity": 43
  },
  {
    "duration": 0.3369791666666515,
    "end": 48.58437499999991,
    "pitch": 87,
    "start": 48.24739583333326,
    "velocity": 80
  },
  {
    "duration": 0.34375,
    "end": 48.75,
    "pitch": 101,
    "start": 48.40625,
    "velocity": 89
  },
  {
    "duration": 0.3213541666666515,
    "end": 48.733333333333235,
    "pitch": 89,
    "start": 48.41197916666658,
    "velocity": 75
  },
  {
    "duration": 0.30729166666662877,
    "end": 48.746354166666606,
    "pitch": 94,
    "start": 48.43906249999998,
    "velocity": 38
  },
  {
    "duration": 0.30624999999997726,
    "end": 48.75520833333326,
    "pitch": 97,
    "start": 48.44895833333328,
    "velocity": 20
  },
  {
    "duration": 0.31197916666667425,
    "end": 48.89635416666658,
    "pitch": 87,
    "start": 48.58437499999991,
    "velocity": 78
  },
  {
    "duration": 0.3000000000000682,
    "end": 49.0333333333333,
    "pitch": 89,
    "start": 48.733333333333235,
    "velocity": 81
  },
  {
    "duration": 0.29270833333339397,
    "end": 49.0390625,
    "pitch": 94,
    "start": 48.746354166666606,
    "velocity": 66
  },
  {
    "duration": 0.2901041666666515,
    "end": 49.04010416666665,
    "pitch": 101,
    "start": 48.75,
    "velocity": 58
  },
  {
    "duration": 0.286979166666697,
    "end": 49.042187499999955,
    "pitch": 97,
    "start": 48.75520833333326,
    "velocity": 54
  },
  {
    "duration": 0.2677083333334167,
    "end": 49.1640625,
    "pitch": 87,
    "start": 48.89635416666658,
    "velocity": 88
  },
  {
    "duration": 0.2510416666666515,
    "end": 49.284374999999955,
    "pitch": 89,
    "start": 49.0333333333333,
    "velocity": 78
  },
  {
    "duration": 0.25,
    "end": 49.2890625,
    "pitch": 94,
    "start": 49.0390625,
    "velocity": 72
  },
  {
    "duration": 0.2531249999999545,
    "end": 49.293229166666606,
    "pitch": 101,
    "start": 49.04010416666665,
    "velocity": 79
  },
  {
    "duration": 0.25,
    "end": 49.292187499999955,
    "pitch": 97,
    "start": 49.042187499999955,
    "velocity": 58
  },
  {
    "duration": 0.2401041666665833,
    "end": 49.40416666666658,
    "pitch": 87,
    "start": 49.1640625,
    "velocity": 86
  },
  {
    "duration": 0.2666666666666515,
    "end": 49.551041666666606,
    "pitch": 89,
    "start": 49.284374999999955,
    "velocity": 78
  },
  {
    "duration": 0.26614583333332575,
    "end": 49.555208333333326,
    "pitch": 94,
    "start": 49.2890625,
    "velocity": 67
  },
  {
    "duration": 0.2619791666667197,
    "end": 49.554166666666674,
    "pitch": 97,
    "start": 49.292187499999955,
    "velocity": 63
  },
  {
    "duration": 0.2619791666667197,
    "end": 49.555208333333326,
    "pitch": 101,
    "start": 49.293229166666606,
    "velocity": 69
  },
  {
    "duration": 0.32395833333339397,
    "end": 49.72812499999998,
    "pitch": 87,
    "start": 49.40416666666658,
    "velocity": 85
  },
  {
    "duration": 0.42916666666667425,
    "end": 49.98020833333328,
    "pitch": 89,
    "start": 49.551041666666606,
    "velocity": 83
  },
  {
    "duration": 0.4328124999999545,
    "end": 49.98697916666663,
    "pitch": 97,
    "start": 49.554166666666674,
    "velocity": 73
  },
  {
    "duration": 0.42916666666667425,
    "end": 49.984375,
    "pitch": 101,
    "start": 49.555208333333326,
    "velocity": 82
  },
  {
    "duration": 0.4307291666666515,
    "end": 49.98593749999998,
    "pitch": 94,
    "start": 49.555208333333326,
    "velocity": 77
  },
  {
    "duration": 0.548958333333303,
    "end": 50.27708333333328,
    "pitch": 87,
    "start": 49.72812499999998,
    "velocity": 96
  },
  {
    "duration": 1.2671874999999773,
    "end": 51.24739583333326,
    "pitch": 89,
    "start": 49.98020833333328,
    "velocity": 78
  },
  {
    "duration": 1.2630208333332575,
    "end": 51.24739583333326,
    "pitch": 101,
    "start": 49.984375,
    "velocity": 85
  },
  {
    "duration": 0.09270833333334849,
    "end": 50.078645833333326,
    "pitch": 94,
    "start": 49.98593749999998,
    "velocity": 74
  },
  {
    "duration": 0.12239583333337123,
    "end": 50.109375,
    "pitch": 97,
    "start": 49.98697916666663,
    "velocity": 70
  },
  {
    "duration": 1.1317708333333485,
    "end": 51.210416666666674,
    "pitch": 94,
    "start": 50.078645833333326,
    "velocity": 1
  },
  {
    "duration": 1.0786458333333258,
    "end": 51.188020833333326,
    "pitch": 97,
    "start": 50.109375,
    "velocity": 1
  },
  {
    "duration": 0.9703124999999773,
    "end": 51.24739583333326,
    "pitch": 87,
    "start": 50.27708333333328,
    "velocity": 94
  },
  {
    "duration": 1.3390624999999545,
    "end": 52.52708333333328,
    "pitch": 97,
    "start": 51.188020833333326,
    "velocity": 90
  },
  {
    "duration": 1.333854166666697,
    "end": 52.52708333333328,
    "pitch": 85,
    "start": 51.19322916666658,
    "velocity": 89
  },
  {
    "duration": 1.3250000000000455,
    "end": 52.52708333333328,
    "pitch": 90,
    "start": 51.202083333333235,
    "velocity": 78
  },
  {
    "duration": 1.3098958333332575,
    "end": 52.52031249999993,
    "pitch": 70,
    "start": 51.210416666666674,
    "velocity": 78
  },
  {
    "duration": 1.316666666666606,
    "end": 52.52708333333328,
    "pitch": 94,
    "start": 51.210416666666674,
    "velocity": 79
  },
  {
    "duration": 1.3151041666666288,
    "end": 52.52708333333328,
    "pitch": 61,
    "start": 51.21197916666665,
    "velocity": 76
  },
  {
    "duration": 0.109375,
    "end": 51.34635416666663,
    "pitch": 66,
    "start": 51.23697916666663,
    "velocity": 53
  },
  {
    "duration": 1.1796875,
    "end": 52.52708333333328,
    "pitch": 66,
    "start": 51.34739583333328,
    "velocity": 1
  },
  {
    "duration": 0.5307291666666742,
    "end": 52.52708333333328,
    "pitch": 54,
    "start": 51.996354166666606,
    "velocity": 82
  },
  {
    "duration": 1.154166666666697,
    "end": 53.65312499999993,
    "pitch": 99,
    "start": 52.498958333333235,
    "velocity": 102
  },
  {
    "duration": 1.1458333333332575,
    "end": 53.65312499999993,
    "pitch": 87,
    "start": 52.507291666666674,
    "velocity": 97
  },
  {
    "duration": 1.1328125,
    "end": 53.65312499999993,
    "pitch": 70,
    "start": 52.52031249999993,
    "velocity": 82
  },
  {
    "duration": 1.1244791666666742,
    "end": 53.65312499999993,
    "pitch": 66,
    "start": 52.52864583333326,
    "velocity": 76
  },
  {
    "duration": 1.1098958333333258,
    "end": 53.65312499999993,
    "pitch": 61,
    "start": 52.543229166666606,
    "velocity": 65
  },
  {
    "duration": 0.1171875,
    "end": 53.73124999999993,
    "pitch": 25,
    "start": 53.61406249999993,
    "velocity": 105
  },
  {
    "duration": 1.1708333333333485,
    "end": 54.79010416666665,
    "pitch": 97,
    "start": 53.6192708333333,
    "velocity": 103
  },
  {
    "duration": 1.1489583333333258,
    "end": 54.77135416666658,
    "pitch": 101,
    "start": 53.62239583333326,
    "velocity": 107
  },
  {
    "duration": 0.14322916666662877,
    "end": 53.76927083333328,
    "pitch": 37,
    "start": 53.62604166666665,
    "velocity": 99
  },
  {
    "duration": 1.1453124999999318,
    "end": 54.772395833333235,
    "pitch": 89,
    "start": 53.6270833333333,
    "velocity": 100
  },
  {
    "duration": 0.31302083333332575,
    "end": 54.90729166666665,
    "pitch": 87,
    "start": 54.594270833333326,
    "velocity": 88
  },
  {
    "duration": 0.23697916666674246,
    "end": 55.008333333333326,
    "pitch": 101,
    "start": 54.77135416666658,
    "velocity": 78
  },
  {
    "duration": 0.23958333333337123,
    "end": 55.011979166666606,
    "pitch": 89,
    "start": 54.772395833333235,
    "velocity": 68
  },
  {
    "duration": 2.0994791666665833,
    "end": 56.889583333333235,
    "pitch": 97,
    "start": 54.79010416666665,
    "velocity": 20
  },
  {
    "duration": 0.31406249999997726,
    "end": 55.22135416666663,
    "pitch": 87,
    "start": 54.90729166666665,
    "velocity": 67
  },
  {
    "duration": 1.0890624999999545,
    "end": 56.09739583333328,
    "pitch": 101,
    "start": 55.008333333333326,
    "velocity": 61
  },
  {
    "duration": 1.0770833333333485,
    "end": 56.089062499999955,
    "pitch": 89,
    "start": 55.011979166666606,
    "velocity": 64
  },
  {
    "duration": 0.2020833333333485,
    "end": 55.30937499999993,
    "pitch": 85,
    "start": 55.10729166666658,
    "velocity": 83
  },
  {
    "duration": 0.19062499999995453,
    "end": 55.41197916666658,
    "pitch": 87,
    "start": 55.22135416666663,
    "velocity": 77
  },
  {
    "duration": 0.17499999999995453,
    "end": 55.410416666666606,
    "pitch": 99,
    "start": 55.23541666666665,
    "velocity": 55
  },
  {
    "duration": 0.1317708333333485,
    "end": 55.44114583333328,
    "pitch": 85,
    "start": 55.30937499999993,
    "velocity": 74
  },
  {
    "duration": 1.089583333333394,
    "end": 56.5,
    "pitch": 99,
    "start": 55.410416666666606,
    "velocity": 61
  },
  {
    "duration": 0.5734375000000682,
    "end": 55.98541666666665,
    "pitch": 87,
    "start": 55.41197916666658,
    "velocity": 59
  },
  {
    "duration": 0.9500000000000455,
    "end": 56.391145833333326,
    "pitch": 85,
    "start": 55.44114583333328,
    "velocity": 74
  },
  {
    "duration": 0.2265625,
    "end": 56.21197916666665,
    "pitch": 87,
    "start": 55.98541666666665,
    "velocity": 80
  },
  {
    "duration": 0.20729166666671972,
    "end": 56.296354166666674,
    "pitch": 89,
    "start": 56.089062499999955,
    "velocity": 74
  },
  {
    "duration": 0.21666666666669698,
    "end": 56.31406249999998,
    "pitch": 101,
    "start": 56.09739583333328,
    "velocity": 73
  },
  {
    "duration": 0.275520833333303,
    "end": 56.487499999999955,
    "pitch": 87,
    "start": 56.21197916666665,
    "velocity": 58
  },
  {
    "duration": 1.2270833333333258,
    "end": 57.5234375,
    "pitch": 89,
    "start": 56.296354166666674,
    "velocity": 57
  },
  {
    "duration": 1.2093750000000227,
    "end": 57.5234375,
    "pitch": 101,
    "start": 56.31406249999998,
    "velocity": 28
  },
  {
    "duration": 0.16718749999995453,
    "end": 56.55833333333328,
    "pitch": 85,
    "start": 56.391145833333326,
    "velocity": 66
  },
  {
    "duration": 0.19479166666667425,
    "end": 56.68229166666663,
    "pitch": 87,
    "start": 56.487499999999955,
    "velocity": 69
  },
  {
    "duration": 0.17812499999990905,
    "end": 56.67812499999991,
    "pitch": 99,
    "start": 56.5,
    "velocity": 46
  },
  {
    "duration": 0.32187499999997726,
    "end": 56.88020833333326,
    "pitch": 85,
    "start": 56.55833333333328,
    "velocity": 70
  },
  {
    "duration": 0.845312500000091,
    "end": 57.5234375,
    "pitch": 99,
    "start": 56.67812499999991,
    "velocity": 58
  },
  {
    "duration": 0.8411458333333712,
    "end": 57.5234375,
    "pitch": 87,
    "start": 56.68229166666663,
    "velocity": 65
  },
  {
    "duration": 0.17135416666667425,
    "end": 56.94374999999991,
    "pitch": 80,
    "start": 56.772395833333235,
    "velocity": 71
  },
  {
    "duration": 0.16093750000004547,
    "end": 57.0411458333333,
    "pitch": 85,
    "start": 56.88020833333326,
    "velocity": 70
  },
  {
    "duration": 0.14583333333337123,
    "end": 57.035416666666606,
    "pitch": 97,
    "start": 56.889583333333235,
    "velocity": 66
  },
  {
    "duration": 0.2822916666667652,
    "end": 57.226041666666674,
    "pitch": 80,
    "start": 56.94374999999991,
    "velocity": 73
  },
  {
    "duration": 0.48802083333339397,
    "end": 57.5234375,
    "pitch": 97,
    "start": 57.035416666666606,
    "velocity": 58
  },
  {
    "duration": 0.482291666666697,
    "end": 57.5234375,
    "pitch": 85,
    "start": 57.0411458333333,
    "velocity": 67
  },
  {
    "duration": 0.349479166666697,
    "end": 57.5234375,
    "pitch": 77,
    "start": 57.1739583333333,
    "velocity": 62
  },
  {
    "duration": 0.29739583333332575,
    "end": 57.5234375,
    "pitch": 80,
    "start": 57.226041666666674,
    "velocity": 74
  },
  {
    "duration": 0.1651041666667652,
    "end": 57.5234375,
    "pitch": 73,
    "start": 57.358333333333235,
    "velocity": 75
  },
  {
    "duration": 0.05677083333330302,
    "end": 57.59218749999991,
    "pitch": 75,
    "start": 57.535416666666606,
    "velocity": 75
  },
  {
    "duration": 0.1697916666665833,
    "end": 57.77916666666658,
    "pitch": 77,
    "start": 57.609375,
    "velocity": 51
  },
  {
    "duration": 1.4953124999999545,
    "end": 59.13124999999991,
    "pitch": 79,
    "start": 57.635937499999955,
    "velocity": 28
  },
  {
    "duration": 0.2687499999999545,
    "end": 57.99010416666658,
    "pitch": 75,
    "start": 57.72135416666663,
    "velocity": 74
  },
  {
    "duration": 1.3520833333333258,
    "end": 59.13124999999991,
    "pitch": 77,
    "start": 57.77916666666658,
    "velocity": 69
  },
  {
    "duration": 1.3359375,
    "end": 59.13124999999991,
    "pitch": 89,
    "start": 57.79531249999991,
    "velocity": 65
  },
  {
    "duration": 0.17604166666660603,
    "end": 58.07604166666658,
    "pitch": 73,
    "start": 57.89999999999998,
    "velocity": 82
  },
  {
    "duration": 0.18489583333337123,
    "end": 58.174999999999955,
    "pitch": 75,
    "start": 57.99010416666658,
    "velocity": 76
  },
  {
    "duration": 0.17135416666667425,
    "end": 58.16927083333326,
    "pitch": 87,
    "start": 57.99791666666658,
    "velocity": 67
  },
  {
    "duration": 0.3213541666666515,
    "end": 58.397395833333235,
    "pitch": 73,
    "start": 58.07604166666658,
    "velocity": 79
  },
  {
    "duration": 0.9619791666666515,
    "end": 59.13124999999991,
    "pitch": 87,
    "start": 58.16927083333326,
    "velocity": 62
  },
  {
    "duration": 0.9562499999999545,
    "end": 59.13124999999991,
    "pitch": 75,
    "start": 58.174999999999955,
    "velocity": 67
  },
  {
    "duration": 0.16562499999997726,
    "end": 58.47395833333326,
    "pitch": 68,
    "start": 58.30833333333328,
    "velocity": 88
  },
  {
    "duration": 0.1750000000000682,
    "end": 58.5723958333333,
    "pitch": 73,
    "start": 58.397395833333235,
    "velocity": 76
  },
  {
    "duration": 0.15937499999995453,
    "end": 58.565624999999955,
    "pitch": 85,
    "start": 58.40625,
    "velocity": 73
  },
  {
    "duration": 0.2843750000000682,
    "end": 58.758333333333326,
    "pitch": 68,
    "start": 58.47395833333326,
    "velocity": 87
  },
  {
    "duration": 0.5656249999999545,
    "end": 59.13124999999991,
    "pitch": 85,
    "start": 58.565624999999955,
    "velocity": 54
  },
  {
    "duration": 0.558854166666606,
    "end": 59.13124999999991,
    "pitch": 73,
    "start": 58.5723958333333,
    "velocity": 67
  },
  {
    "duration": 0.44947916666660603,
    "end": 59.13124999999991,
    "pitch": 65,
    "start": 58.6817708333333,
    "velocity": 75
  },
  {
    "duration": 0.3729166666665833,
    "end": 59.13124999999991,
    "pitch": 68,
    "start": 58.758333333333326,
    "velocity": 83
  },
  {
    "duration": 0.35312499999997726,
    "end": 59.13124999999991,
    "pitch": 80,
    "start": 58.77812499999993,
    "velocity": 36
  },
  {
    "duration": 0.252083333333303,
    "end": 59.13124999999991,
    "pitch": 61,
    "start": 58.879166666666606,
    "velocity": 89
  },
  {
    "duration": 0.06093749999990905,
    "end": 59.13906249999991,
    "pitch": 63,
    "start": 59.078125,
    "velocity": 92
  },
  {
    "duration": 0.04947916666662877,
    "end": 59.19270833333326,
    "pitch": 65,
    "start": 59.14322916666663,
    "velocity": 86
  },
  {
    "duration": 0.05208333333325754,
    "end": 59.20937499999991,
    "pitch": 77,
    "start": 59.15729166666665,
    "velocity": 56
  },
  {
    "duration": 0.2781250000000455,
    "end": 59.546354166666674,
    "pitch": 63,
    "start": 59.26822916666663,
    "velocity": 78
  },
  {
    "duration": 1.1749999999999545,
    "end": 60.52031249999993,
    "pitch": 77,
    "start": 59.34531249999998,
    "velocity": 52
  },
  {
    "duration": 1.1749999999999545,
    "end": 60.52031249999993,
    "pitch": 65,
    "start": 59.34531249999998,
    "velocity": 84
  },
  {
    "duration": 0.1786458333333485,
    "end": 59.636979166666606,
    "pitch": 61,
    "start": 59.45833333333326,
    "velocity": 82
  },
  {
    "duration": 0.19270833333325754,
    "end": 59.73906249999993,
    "pitch": 63,
    "start": 59.546354166666674,
    "velocity": 81
  },
  {
    "duration": 0.19010416666662877,
    "end": 59.73906249999993,
    "pitch": 75,
    "start": 59.5489583333333,
    "velocity": 65
  },
  {
    "duration": 0.30729166666662877,
    "end": 59.944270833333235,
    "pitch": 61,
    "start": 59.636979166666606,
    "velocity": 80
  },
  {
    "duration": 0.78125,
    "end": 60.52031249999993,
    "pitch": 75,
    "start": 59.73906249999993,
    "velocity": 61
  },
  {
    "duration": 0.78125,
    "end": 60.52031249999993,
    "pitch": 63,
    "start": 59.73906249999993,
    "velocity": 74
  },
  {
    "duration": 0.18906249999997726,
    "end": 60.0333333333333,
    "pitch": 56,
    "start": 59.844270833333326,
    "velocity": 83
  },
  {
    "duration": 0.17604166666671972,
    "end": 60.120312499999955,
    "pitch": 61,
    "start": 59.944270833333235,
    "velocity": 80
  },
  {
    "duration": 0.17135416666667425,
    "end": 60.120312499999955,
    "pitch": 73,
    "start": 59.94895833333328,
    "velocity": 77
  },
  {
    "duration": 0.294791666666697,
    "end": 60.328125,
    "pitch": 56,
    "start": 60.0333333333333,
    "velocity": 81
  },
  {
    "duration": 0.39999999999997726,
    "end": 60.52031249999993,
    "pitch": 73,
    "start": 60.120312499999955,
    "velocity": 61
  },
  {
    "duration": 0.39999999999997726,
    "end": 60.52031249999993,
    "pitch": 61,
    "start": 60.120312499999955,
    "velocity": 77
  },
  {
    "duration": 0.2781249999999318,
    "end": 60.52031249999993,
    "pitch": 53,
    "start": 60.2421875,
    "velocity": 70
  },
  {
    "duration": 0.1921874999999318,
    "end": 60.52031249999993,
    "pitch": 56,
    "start": 60.328125,
    "velocity": 79
  },
  {
    "duration": 0.18333333333328028,
    "end": 60.52031249999993,
    "pitch": 68,
    "start": 60.33697916666665,
    "velocity": 59
  },
  {
    "duration": 0.16197916666669698,
    "end": 60.5880208333333,
    "pitch": 49,
    "start": 60.426041666666606,
    "velocity": 79
  },
  {
    "duration": 0.39895833333332575,
    "end": 61,
    "pitch": 45,
    "start": 60.601041666666674,
    "velocity": 44
  },
  {
    "duration": 0.3479166666667197,
    "end": 61,
    "pitch": 53,
    "start": 60.65208333333328,
    "velocity": 67
  },
  {
    "duration": 0.5,
    "end": 61.452083333333235,
    "pitch": 49,
    "start": 60.952083333333235,
    "velocity": 96
  },
  {
    "duration": 0.2848958333332803,
    "end": 61.465104166666606,
    "pitch": 44,
    "start": 61.180208333333326,
    "velocity": 101
  },
  {
    "duration": 0.3369791666667652,
    "end": 61.7890625,
    "pitch": 49,
    "start": 61.452083333333235,
    "velocity": 98
  },
  {
    "duration": 0.490104166666697,
    "end": 62.07135416666665,
    "pitch": 44,
    "start": 61.581249999999955,
    "velocity": 92
  },
  {
    "duration": 0.46822916666667425,
    "end": 62.07135416666665,
    "pitch": 53,
    "start": 61.60312499999998,
    "velocity": 79
  },
  {
    "duration": 0.25520833333325754,
    "end": 62.04427083333326,
    "pitch": 49,
    "start": 61.7890625,
    "velocity": 73
  },
  {
    "duration": 0.48802083333339397,
    "end": 62.53229166666665,
    "pitch": 49,
    "start": 62.04427083333326,
    "velocity": 96
  },
  {
    "duration": 3.465104166666606,
    "end": 65.71614583333326,
    "pitch": 44,
    "start": 62.25104166666665,
    "velocity": 94
  },
  {
    "duration": 0.36093749999997726,
    "end": 62.76718749999998,
    "pitch": 53,
    "start": 62.40625,
    "velocity": 77
  },
  {
    "duration": 3.183854166666606,
    "end": 65.71614583333326,
    "pitch": 49,
    "start": 62.53229166666665,
    "velocity": 82
  },
  {
    "duration": 0.326041666666697,
    "end": 62.968229166666674,
    "pitch": 56,
    "start": 62.64218749999998,
    "velocity": 90
  },
  {
    "duration": 2.9489583333332803,
    "end": 65.71614583333326,
    "pitch": 53,
    "start": 62.76718749999998,
    "velocity": 65
  },
  {
    "duration": 0.34114583333337123,
    "end": 63.19635416666665,
    "pitch": 61,
    "start": 62.85520833333328,
    "velocity": 85
  },
  {
    "duration": 2.7479166666665833,
    "end": 65.71614583333326,
    "pitch": 56,
    "start": 62.968229166666674,
    "velocity": 84
  },
  {
    "duration": 0.328125,
    "end": 63.40208333333328,
    "pitch": 65,
    "start": 63.07395833333328,
    "velocity": 98
  },
  {
    "duration": 2.519791666666606,
    "end": 65.71614583333326,
    "pitch": 61,
    "start": 63.19635416666665,
    "velocity": 80
  },
  {
    "duration": 0.318229166666697,
    "end": 63.59531249999998,
    "pitch": 68,
    "start": 63.27708333333328,
    "velocity": 100
  },
  {
    "duration": 2.3140624999999773,
    "end": 65.71614583333326,
    "pitch": 65,
    "start": 63.40208333333328,
    "velocity": 71
  },
  {
    "duration": 0.3046875,
    "end": 63.79010416666665,
    "pitch": 73,
    "start": 63.48541666666665,
    "velocity": 92
  },
  {
    "duration": 2.1208333333332803,
    "end": 65.71614583333326,
    "pitch": 68,
    "start": 63.59531249999998,
    "velocity": 81
  },
  {
    "duration": 0.30416666666667425,
    "end": 64.00520833333326,
    "pitch": 77,
    "start": 63.70104166666658,
    "velocity": 67
  },
  {
    "duration": 2.0130208333332575,
    "end": 65.71614583333326,
    "pitch": 76,
    "start": 63.703125,
    "velocity": 60
  },
  {
    "duration": 1.926041666666606,
    "end": 65.71614583333326,
    "pitch": 73,
    "start": 63.79010416666665,
    "velocity": 77
  },
  {
    "duration": 0.30989583333325754,
    "end": 64.18489583333326,
    "pitch": 80,
    "start": 63.875,
    "velocity": 92
  },
  {
    "duration": 1.7109375,
    "end": 65.71614583333326,
    "pitch": 77,
    "start": 64.00520833333326,
    "velocity": 43
  },
  {
    "duration": 0.3078124999999545,
    "end": 64.39322916666663,
    "pitch": 85,
    "start": 64.08541666666667,
    "velocity": 92
  },
  {
    "duration": 1.53125,
    "end": 65.71614583333326,
    "pitch": 80,
    "start": 64.18489583333326,
    "velocity": 78
  },
  {
    "duration": 0.3135416666666515,
    "end": 64.59895833333326,
    "pitch": 89,
    "start": 64.2854166666666,
    "velocity": 95
  },
  {
    "duration": 1.3229166666666288,
    "end": 65.71614583333326,
    "pitch": 85,
    "start": 64.39322916666663,
    "velocity": 80
  },
  {
    "duration": 0.31197916666667425,
    "end": 64.77916666666658,
    "pitch": 92,
    "start": 64.46718749999991,
    "velocity": 94
  },
  {
    "duration": 1.1171875,
    "end": 65.71614583333326,
    "pitch": 89,
    "start": 64.59895833333326,
    "velocity": 37
  },
  {
    "duration": 1.0270833333332803,
    "end": 65.71614583333326,
    "pitch": 96,
    "start": 64.68906249999998,
    "velocity": 69
  },
  {
    "duration": 0.9369791666666742,
    "end": 65.71614583333326,
    "pitch": 92,
    "start": 64.77916666666658,
    "velocity": 86
  },
  {
    "duration": 0.4109374999999318,
    "end": 65.3010416666666,
    "pitch": 101,
    "start": 64.89010416666667,
    "velocity": 95
  },
  {
    "duration": 0.7067708333332803,
    "end": 65.71614583333326,
    "pitch": 97,
    "start": 65.00937499999998,
    "velocity": 94
  },
  {
    "duration": 0.5807291666666288,
    "end": 65.71614583333326,
    "pitch": 104,
    "start": 65.13541666666663,
    "velocity": 102
  },
  {
    "duration": 0.4151041666666515,
    "end": 65.71614583333326,
    "pitch": 101,
    "start": 65.3010416666666,
    "velocity": 105
  },
  {
    "duration": 0.296875,
    "end": 66.46197916666665,
    "pitch": 49,
    "start": 66.16510416666665,
    "velocity": 89
  },
  {
    "duration": 0.2901041666666515,
    "end": 66.7151041666666,
    "pitch": 44,
    "start": 66.42499999999995,
    "velocity": 88
  },
  {
    "duration": 0.07760416666667425,
    "end": 66.54999999999995,
    "pitch": 43,
    "start": 66.47239583333328,
    "velocity": 40
  },
  {
    "duration": 0.28281249999997726,
    "end": 67.0510416666666,
    "pitch": 49,
    "start": 66.76822916666663,
    "velocity": 89
  },
  {
    "duration": 0.34427083333332575,
    "end": 67.31927083333323,
    "pitch": 44,
    "start": 66.97499999999991,
    "velocity": 93
  },
  {
    "duration": 0.15989583333328028,
    "end": 67.31718749999993,
    "pitch": 53,
    "start": 67.15729166666665,
    "velocity": 85
  },
  {
    "duration": 0.47239583333339397,
    "end": 67.7833333333333,
    "pitch": 49,
    "start": 67.31093749999991,
    "velocity": 81
  },
  {
    "duration": 0.34895833333337123,
    "end": 67.7833333333333,
    "pitch": 56,
    "start": 67.43437499999993,
    "velocity": 94
  },
  {
    "duration": 0.5010416666666515,
    "end": 68.28802083333323,
    "pitch": 49,
    "start": 67.78697916666658,
    "velocity": 81
  },
  {
    "duration": 0.4187500000000455,
    "end": 68.39218749999998,
    "pitch": 44,
    "start": 67.97343749999993,
    "velocity": 87
  },
  {
    "duration": 0.24479166666674246,
    "end": 68.39218749999998,
    "pitch": 53,
    "start": 68.14739583333323,
    "velocity": 76
  },
  {
    "duration": 4.4812500000000455,
    "end": 72.76927083333328,
    "pitch": 49,
    "start": 68.28802083333323,
    "velocity": 79
  },
  {
    "duration": 0.365104166666697,
    "end": 68.77812499999993,
    "pitch": 56,
    "start": 68.41302083333323,
    "velocity": 83
  },
  {
    "duration": 4.226041666666674,
    "end": 72.76927083333328,
    "pitch": 53,
    "start": 68.5432291666666,
    "velocity": 69
  },
  {
    "duration": 0.3739583333333485,
    "end": 69.03437499999995,
    "pitch": 61,
    "start": 68.6604166666666,
    "velocity": 85
  },
  {
    "duration": 3.9911458333333485,
    "end": 72.76927083333328,
    "pitch": 56,
    "start": 68.77812499999993,
    "velocity": 76
  },
  {
    "duration": 0.34999999999990905,
    "end": 69.24843749999991,
    "pitch": 65,
    "start": 68.8984375,
    "velocity": 94
  },
  {
    "duration": 3.7348958333333258,
    "end": 72.76927083333328,
    "pitch": 61,
    "start": 69.03437499999995,
    "velocity": 73
  },
  {
    "duration": 0.33333333333337123,
    "end": 69.4453125,
    "pitch": 68,
    "start": 69.11197916666663,
    "velocity": 98
  },
  {
    "duration": 3.5208333333333712,
    "end": 72.76927083333328,
    "pitch": 65,
    "start": 69.24843749999991,
    "velocity": 70
  },
  {
    "duration": 0.3390625000000682,
    "end": 69.68802083333333,
    "pitch": 73,
    "start": 69.34895833333326,
    "velocity": 90
  },
  {
    "duration": 3.3239583333332803,
    "end": 72.76927083333328,
    "pitch": 68,
    "start": 69.4453125,
    "velocity": 84
  },
  {
    "duration": 0.34322916666667425,
    "end": 69.92031249999991,
    "pitch": 77,
    "start": 69.57708333333323,
    "velocity": 86
  },
  {
    "duration": 3.0812499999999545,
    "end": 72.76927083333328,
    "pitch": 73,
    "start": 69.68802083333333,
    "velocity": 85
  },
  {
    "duration": 0.3348958333333485,
    "end": 70.1270833333333,
    "pitch": 80,
    "start": 69.79218749999995,
    "velocity": 93
  },
  {
    "duration": 2.8489583333333712,
    "end": 72.76927083333328,
    "pitch": 77,
    "start": 69.92031249999991,
    "velocity": 65
  },
  {
    "duration": 0.3468749999999545,
    "end": 70.35729166666658,
    "pitch": 85,
    "start": 70.01041666666663,
    "velocity": 95
  },
  {
    "duration": 2.6421874999999773,
    "end": 72.76927083333328,
    "pitch": 80,
    "start": 70.1270833333333,
    "velocity": 73
  },
  {
    "duration": 0.3562499999999318,
    "end": 70.58437499999991,
    "pitch": 89,
    "start": 70.22812499999998,
    "velocity": 86
  },
  {
    "duration": 2.411979166666697,
    "end": 72.76927083333328,
    "pitch": 85,
    "start": 70.35729166666658,
    "velocity": 83
  },
  {
    "duration": 0.35208333333332575,
    "end": 70.79739583333333,
    "pitch": 92,
    "start": 70.4453125,
    "velocity": 90
  },
  {
    "duration": 2.1848958333333712,
    "end": 72.76927083333328,
    "pitch": 89,
    "start": 70.58437499999991,
    "velocity": 68
  },
  {
    "duration": 0.38541666666674246,
    "end": 71.06979166666667,
    "pitch": 97,
    "start": 70.68437499999993,
    "velocity": 88
  },
  {
    "duration": 1.9718749999999545,
    "end": 72.76927083333328,
    "pitch": 92,
    "start": 70.79739583333333,
    "velocity": 79
  },
  {
    "duration": 1.8552083333332803,
    "end": 72.76927083333328,
    "pitch": 101,
    "start": 70.9140625,
    "velocity": 93
  },
  {
    "duration": 1.699479166666606,
    "end": 72.76927083333328,
    "pitch": 97,
    "start": 71.06979166666667,
    "velocity": 89
  },
  {
    "duration": 1.502083333333303,
    "end": 72.76927083333328,
    "pitch": 104,
    "start": 71.26718749999998,
    "velocity": 111
  },
  {
    "duration": 0.4708333333334167,
    "end": 73.24322916666665,
    "pitch": 49,
    "start": 72.77239583333323,
    "velocity": 91
  },
  {
    "duration": 0.6796875,
    "end": 73.87604166666665,
    "pitch": 44,
    "start": 73.19635416666665,
    "velocity": 92
  },
  {
    "duration": 0.3937500000000682,
    "end": 73.87604166666665,
    "pitch": 53,
    "start": 73.48229166666658,
    "velocity": 80
  },
  {
    "duration": 4.455208333333303,
    "end": 78.1604166666666,
    "pitch": 49,
    "start": 73.7052083333333,
    "velocity": 75
  },
  {
    "duration": 0.423958333333303,
    "end": 74.28437499999995,
    "pitch": 56,
    "start": 73.86041666666665,
    "velocity": 87
  },
  {
    "duration": 4.136979166666606,
    "end": 78.1604166666666,
    "pitch": 53,
    "start": 74.0234375,
    "velocity": 70
  },
  {
    "duration": 4.01145833333328,
    "end": 78.1604166666666,
    "pitch": 61,
    "start": 74.14895833333333,
    "velocity": 85
  },
  {
    "duration": 3.8760416666666515,
    "end": 78.1604166666666,
    "pitch": 56,
    "start": 74.28437499999995,
    "velocity": 79
  },
  {
    "duration": 0.4031249999999318,
    "end": 74.81718749999993,
    "pitch": 65,
    "start": 74.4140625,
    "velocity": 80
  },
  {
    "duration": 3.5661458333332803,
    "end": 78.1604166666666,
    "pitch": 60,
    "start": 74.59427083333333,
    "velocity": 52
  },
  {
    "duration": 0.3817708333333485,
    "end": 75.05208333333326,
    "pitch": 68,
    "start": 74.67031249999991,
    "velocity": 100
  },
  {
    "duration": 3.3432291666666742,
    "end": 78.1604166666666,
    "pitch": 65,
    "start": 74.81718749999993,
    "velocity": 75
  },
  {
    "duration": 0.39010416666667425,
    "end": 75.3322916666666,
    "pitch": 73,
    "start": 74.94218749999993,
    "velocity": 85
  },
  {
    "duration": 3.1083333333333485,
    "end": 78.1604166666666,
    "pitch": 68,
    "start": 75.05208333333326,
    "velocity": 82
  },
  {
    "duration": 0.392708333333303,
    "end": 75.5802083333333,
    "pitch": 77,
    "start": 75.1875,
    "velocity": 76
  },
  {
    "duration": 2.828125,
    "end": 78.1604166666666,
    "pitch": 73,
    "start": 75.3322916666666,
    "velocity": 74
  },
  {
    "duration": 0.39114583333332575,
    "end": 75.81718749999993,
    "pitch": 80,
    "start": 75.4260416666666,
    "velocity": 90
  },
  {
    "duration": 2.580208333333303,
    "end": 78.1604166666666,
    "pitch": 77,
    "start": 75.5802083333333,
    "velocity": 62
  },
  {
    "duration": 0.4411458333332803,
    "end": 76.13020833333326,
    "pitch": 85,
    "start": 75.68906249999998,
    "velocity": 89
  },
  {
    "duration": 2.3432291666666742,
    "end": 78.1604166666666,
    "pitch": 80,
    "start": 75.81718749999993,
    "velocity": 76
  },
  {
    "duration": 0.5401041666666515,
    "end": 76.50312499999995,
    "pitch": 89,
    "start": 75.9630208333333,
    "velocity": 80
  },
  {
    "duration": 2.0302083333333485,
    "end": 78.1604166666666,
    "pitch": 85,
    "start": 76.13020833333326,
    "velocity": 82
  },
  {
    "duration": 0.8000000000000682,
    "end": 77.08645833333333,
    "pitch": 92,
    "start": 76.28645833333326,
    "velocity": 97
  },
  {
    "duration": 1.6572916666666515,
    "end": 78.1604166666666,
    "pitch": 89,
    "start": 76.50312499999995,
    "velocity": 82
  },
  {
    "duration": 1.3531249999999773,
    "end": 78.10729166666658,
    "pitch": 97,
    "start": 76.7541666666666,
    "velocity": 100
  },
  {
    "duration": 1.0739583333332803,
    "end": 78.1604166666666,
    "pitch": 92,
    "start": 77.08645833333333,
    "velocity": 104
  },
  {
    "duration": 0.53125,
    "end": 78.22239583333328,
    "pitch": 101,
    "start": 77.69114583333328,
    "velocity": 102
  },
  {
    "duration": 2.5401041666666515,
    "end": 80.64739583333323,
    "pitch": 97,
    "start": 78.10729166666658,
    "velocity": 106
  },
  {
    "duration": 0.6520833333332803,
    "end": 80.64739583333323,
    "pitch": 104,
    "start": 79.99531249999995,
    "velocity": 115
  },
  {
    "duration": 1.588020833333303,
    "end": 82.68333333333328,
    "pitch": 80,
    "start": 81.09531249999998,
    "velocity": 101
  },
  {
    "duration": 1.620833333333394,
    "end": 82.71822916666667,
    "pitch": 66,
    "start": 81.09739583333328,
    "velocity": 99
  },
  {
    "duration": 1.6192708333334167,
    "end": 82.71822916666667,
    "pitch": 56,
    "start": 81.09895833333326,
    "velocity": 92
  },
  {
    "duration": 1.6140625000000455,
    "end": 82.71822916666667,
    "pitch": 68,
    "start": 81.10416666666663,
    "velocity": 112
  },
  {
    "duration": 1.6119791666667425,
    "end": 82.71822916666667,
    "pitch": 72,
    "start": 81.10624999999993,
    "velocity": 99
  },
  {
    "duration": 1.6098958333334394,
    "end": 82.71822916666667,
    "pitch": 60,
    "start": 81.10833333333323,
    "velocity": 83
  },
  {
    "duration": 2.3880208333333712,
    "end": 85.07135416666665,
    "pitch": 80,
    "start": 82.68333333333328,
    "velocity": 103
  },
  {
    "duration": 1.3817708333333485,
    "end": 84.06614583333328,
    "pitch": 77,
    "start": 82.68437499999993,
    "velocity": 100
  },
  {
    "duration": 1.503645833333394,
    "end": 84.19010416666663,
    "pitch": 85,
    "start": 82.68645833333323,
    "velocity": 98
  },
  {
    "duration": 2.3843749999999773,
    "end": 85.07135416666665,
    "pitch": 89,
    "start": 82.68697916666667,
    "velocity": 94
  },
  {
    "duration": 0.1630208333333485,
    "end": 82.85312499999998,
    "pitch": 37,
    "start": 82.69010416666663,
    "velocity": 102
  },
  {
    "duration": 0.13020833333337123,
    "end": 82.82135416666665,
    "pitch": 25,
    "start": 82.69114583333328,
    "velocity": 103
  },
  {
    "duration": 1.7354166666666515,
    "end": 85.07135416666665,
    "pitch": 49,
    "start": 83.3359375,
    "velocity": 90
  },
  {
    "duration": 1.4791666666667425,
    "end": 85.07135416666665,
    "pitch": 56,
    "start": 83.59218749999991,
    "velocity": 76
  },
  {
    "duration": 1.3609374999999773,
    "end": 85.07135416666665,
    "pitch": 61,
    "start": 83.71041666666667,
    "velocity": 88
  },
  {
    "duration": 1.2661458333333258,
    "end": 85.07135416666665,
    "pitch": 65,
    "start": 83.80520833333333,
    "velocity": 81
  },
  {
    "duration": 1.1802083333333258,
    "end": 85.07135416666665,
    "pitch": 68,
    "start": 83.89114583333333,
    "velocity": 89
  },
  {
    "duration": 1.0921875000000227,
    "end": 85.07135416666665,
    "pitch": 73,
    "start": 83.97916666666663,
    "velocity": 89
  },
  {
    "duration": 1.0052083333333712,
    "end": 85.07135416666665,
    "pitch": 77,
    "start": 84.06614583333328,
    "velocity": 86
  },
  {
    "duration": 0.8812500000000227,
    "end": 85.07135416666665,
    "pitch": 85,
    "start": 84.19010416666663,
    "velocity": 117
  },
  {
    "duration": 0.9416666666667197,
    "end": 87.22604166666667,
    "pitch": 49,
    "start": 86.28437499999995,
    "velocity": 83
  },
  {
    "duration": 0.6546875000000227,
    "end": 87.29010416666665,
    "pitch": 58,
    "start": 86.63541666666663,
    "velocity": 92
  },
  {
    "duration": 1.2729166666666742,
    "end": 88.56197916666667,
    "pitch": 49,
    "start": 87.2890625,
    "velocity": 85
  },
  {
    "duration": 0.3859374999999545,
    "end": 87.84999999999991,
    "pitch": 58,
    "start": 87.46406249999995,
    "velocity": 81
  },
  {
    "duration": 0.9447916666666742,
    "end": 88.56197916666667,
    "pitch": 54,
    "start": 87.6171875,
    "velocity": 79
  },
  {
    "duration": 0.25156249999997726,
    "end": 87.99687499999993,
    "pitch": 61,
    "start": 87.74531249999995,
    "velocity": 78
  },
  {
    "duration": 0.7119791666667652,
    "end": 88.56197916666667,
    "pitch": 58,
    "start": 87.84999999999991,
    "velocity": 81
  },
  {
    "duration": 0.5651041666667425,
    "end": 88.56197916666667,
    "pitch": 61,
    "start": 87.99687499999993,
    "velocity": 95
  },
  {
    "duration": 0.4578125000000455,
    "end": 88.56197916666667,
    "pitch": 63,
    "start": 88.10416666666663,
    "velocity": 88
  },
  {
    "duration": 0.28489583333339397,
    "end": 88.56197916666667,
    "pitch": 66,
    "start": 88.27708333333328,
    "velocity": 90
  },
  {
    "duration": 0.568229166666697,
    "end": 89.14114583333333,
    "pitch": 49,
    "start": 88.57291666666663,
    "velocity": 89
  },
  {
    "duration": 0.38125000000002274,
    "end": 89.17343749999998,
    "pitch": 58,
    "start": 88.79218749999995,
    "velocity": 88
  },
  {
    "duration": 1.3203125,
    "end": 90.48229166666658,
    "pitch": 49,
    "start": 89.16197916666658,
    "velocity": 93
  },
  {
    "duration": 0.5270833333332803,
    "end": 89.88020833333326,
    "pitch": 58,
    "start": 89.35312499999998,
    "velocity": 75
  },
  {
    "duration": 0.933854166666606,
    "end": 90.48229166666658,
    "pitch": 54,
    "start": 89.54843749999998,
    "velocity": 76
  },
  {
    "duration": 0.4500000000000455,
    "end": 90.1583333333333,
    "pitch": 61,
    "start": 89.70833333333326,
    "velocity": 78
  },
  {
    "duration": 0.10312499999997726,
    "end": 89.98333333333323,
    "pitch": 58,
    "start": 89.88020833333326,
    "velocity": 81
  },
  {
    "duration": 0.4989583333333485,
    "end": 90.48229166666658,
    "pitch": 58,
    "start": 89.98333333333323,
    "velocity": 1
  },
  {
    "duration": 0.463020833333303,
    "end": 90.48229166666658,
    "pitch": 63,
    "start": 90.01927083333328,
    "velocity": 84
  },
  {
    "duration": 0.27604166666662877,
    "end": 90.43437499999993,
    "pitch": 61,
    "start": 90.1583333333333,
    "velocity": 88
  },
  {
    "duration": 0.18385416666660603,
    "end": 90.48229166666658,
    "pitch": 66,
    "start": 90.29843749999998,
    "velocity": 87
  },
  {
    "duration": 1.9557291666667425,
    "end": 92.39010416666667,
    "pitch": 61,
    "start": 90.43437499999993,
    "velocity": 81
  },
  {
    "duration": 0.3427083333333485,
    "end": 90.91197916666658,
    "pitch": 70,
    "start": 90.56927083333323,
    "velocity": 78
  },
  {
    "duration": 1.708854166666697,
    "end": 92.39010416666667,
    "pitch": 66,
    "start": 90.68124999999998,
    "velocity": 59
  },
  {
    "duration": 0.35208333333343944,
    "end": 91.14010416666667,
    "pitch": 73,
    "start": 90.78802083333323,
    "velocity": 85
  },
  {
    "duration": 1.478125000000091,
    "end": 92.39010416666667,
    "pitch": 70,
    "start": 90.91197916666658,
    "velocity": 67
  },
  {
    "duration": 1.3619791666667425,
    "end": 92.39010416666667,
    "pitch": 75,
    "start": 91.02812499999993,
    "velocity": 86
  },
  {
    "duration": 0.21927083333332575,
    "end": 91.359375,
    "pitch": 73,
    "start": 91.14010416666667,
    "velocity": 76
  },
  {
    "duration": 0.3447916666666515,
    "end": 91.58906249999995,
    "pitch": 78,
    "start": 91.2442708333333,
    "velocity": 79
  },
  {
    "duration": 1.0307291666666742,
    "end": 92.39010416666667,
    "pitch": 73,
    "start": 91.359375,
    "velocity": 70
  },
  {
    "duration": 0.32291666666674246,
    "end": 91.80416666666667,
    "pitch": 82,
    "start": 91.48124999999993,
    "velocity": 80
  },
  {
    "duration": 0.8010416666667197,
    "end": 92.39010416666667,
    "pitch": 78,
    "start": 91.58906249999995,
    "velocity": 52
  },
  {
    "duration": 0.369270833333303,
    "end": 92.05833333333328,
    "pitch": 85,
    "start": 91.68906249999998,
    "velocity": 81
  },
  {
    "duration": 0.5859375,
    "end": 92.39010416666667,
    "pitch": 82,
    "start": 91.80416666666667,
    "velocity": 67
  },
  {
    "duration": 0.40572916666667425,
    "end": 92.34218749999991,
    "pitch": 87,
    "start": 91.93645833333323,
    "velocity": 88
  },
  {
    "duration": 0.33177083333339397,
    "end": 92.39010416666667,
    "pitch": 85,
    "start": 92.05833333333328,
    "velocity": 75
  },
  {
    "duration": 0.19791666666674246,
    "end": 92.39010416666667,
    "pitch": 90,
    "start": 92.19218749999993,
    "velocity": 91
  },
  {
    "duration": 0.10520833333339397,
    "end": 92.4473958333333,
    "pitch": 87,
    "start": 92.34218749999991,
    "velocity": 87
  },
  {
    "duration": 0.279166666666697,
    "end": 92.77031249999993,
    "pitch": 97,
    "start": 92.49114583333323,
    "velocity": 81
  },
  {
    "duration": 0.26510416666667425,
    "end": 92.75729166666667,
    "pitch": 89,
    "start": 92.4921875,
    "velocity": 71
  },
  {
    "duration": 0.24791666666669698,
    "end": 92.8770833333333,
    "pitch": 87,
    "start": 92.6291666666666,
    "velocity": 81
  },
  {
    "duration": 0.25,
    "end": 93.00729166666667,
    "pitch": 89,
    "start": 92.75729166666667,
    "velocity": 64
  },
  {
    "duration": 0.267708333333303,
    "end": 93.02604166666663,
    "pitch": 101,
    "start": 92.75833333333333,
    "velocity": 75
  },
  {
    "duration": 0.24427083333330302,
    "end": 93.00624999999991,
    "pitch": 94,
    "start": 92.7619791666666,
    "velocity": 63
  },
  {
    "duration": 0.24062500000002274,
    "end": 93.01093749999995,
    "pitch": 97,
    "start": 92.77031249999993,
    "velocity": 51
  },
  {
    "duration": 0.27187500000002274,
    "end": 93.14895833333333,
    "pitch": 87,
    "start": 92.8770833333333,
    "velocity": 80
  },
  {
    "duration": 0.2697916666667197,
    "end": 93.27604166666663,
    "pitch": 94,
    "start": 93.00624999999991,
    "velocity": 70
  },
  {
    "duration": 0.2567708333332348,
    "end": 93.26406249999991,
    "pitch": 89,
    "start": 93.00729166666667,
    "velocity": 65
  },
  {
    "duration": 0.2734375,
    "end": 93.28437499999995,
    "pitch": 97,
    "start": 93.01093749999995,
    "velocity": 59
  },
  {
    "duration": 0.24739583333337123,
    "end": 93.2734375,
    "pitch": 101,
    "start": 93.02604166666663,
    "velocity": 47
  },
  {
    "duration": 0.2468749999999318,
    "end": 93.39583333333326,
    "pitch": 87,
    "start": 93.14895833333333,
    "velocity": 78
  },
  {
    "duration": 0.2588541666667652,
    "end": 93.52291666666667,
    "pitch": 89,
    "start": 93.26406249999991,
    "velocity": 72
  },
  {
    "duration": 0.259895833333303,
    "end": 93.5333333333333,
    "pitch": 101,
    "start": 93.2734375,
    "velocity": 77
  },
  {
    "duration": 0.25520833333337123,
    "end": 93.53125,
    "pitch": 94,
    "start": 93.27604166666663,
    "velocity": 63
  },
  {
    "duration": 0.24583333333328028,
    "end": 93.53020833333323,
    "pitch": 97,
    "start": 93.28437499999995,
    "velocity": 51
  },
  {
    "duration": 0.2354166666666515,
    "end": 93.63124999999991,
    "pitch": 87,
    "start": 93.39583333333326,
    "velocity": 84
  },
  {
    "duration": 0.21614583333325754,
    "end": 93.73906249999993,
    "pitch": 89,
    "start": 93.52291666666667,
    "velocity": 74
  },
  {
    "duration": 0.2098958333333485,
    "end": 93.74010416666658,
    "pitch": 97,
    "start": 93.53020833333323,
    "velocity": 64
  },
  {
    "duration": 0.2109375,
    "end": 93.7421875,
    "pitch": 94,
    "start": 93.53125,
    "velocity": 70
  },
  {
    "duration": 0.21666666666669698,
    "end": 93.75,
    "pitch": 101,
    "start": 93.5333333333333,
    "velocity": 73
  },
  {
    "duration": 0.17916666666667425,
    "end": 93.81041666666658,
    "pitch": 87,
    "start": 93.63124999999991,
    "velocity": 92
  },
  {
    "duration": 0.16093750000004547,
    "end": 93.89999999999998,
    "pitch": 89,
    "start": 93.73906249999993,
    "velocity": 62
  },
  {
    "duration": 0.1661458333334167,
    "end": 93.90625,
    "pitch": 97,
    "start": 93.74010416666658,
    "velocity": 69
  },
  {
    "duration": 0.16718749999995453,
    "end": 93.90937499999995,
    "pitch": 94,
    "start": 93.7421875,
    "velocity": 70
  },
  {
    "duration": 0.16614583333330302,
    "end": 93.9161458333333,
    "pitch": 101,
    "start": 93.75,
    "velocity": 54
  },
  {
    "duration": 0.20468750000009095,
    "end": 94.01510416666667,
    "pitch": 87,
    "start": 93.81041666666658,
    "velocity": 88
  },
  {
    "duration": 0.3249999999999318,
    "end": 94.22499999999991,
    "pitch": 89,
    "start": 93.89999999999998,
    "velocity": 74
  },
  {
    "duration": 0.3239583333332803,
    "end": 94.23020833333328,
    "pitch": 97,
    "start": 93.90625,
    "velocity": 69
  },
  {
    "duration": 0.32187499999997726,
    "end": 94.23124999999993,
    "pitch": 94,
    "start": 93.90937499999995,
    "velocity": 67
  },
  {
    "duration": 0.31197916666667425,
    "end": 94.22812499999998,
    "pitch": 101,
    "start": 93.9161458333333,
    "velocity": 55
  },
  {
    "duration": 0.3760416666666515,
    "end": 94.39114583333333,
    "pitch": 87,
    "start": 94.01510416666667,
    "velocity": 95
  },
  {
    "duration": 0.5833333333333712,
    "end": 94.80833333333328,
    "pitch": 89,
    "start": 94.22499999999991,
    "velocity": 86
  },
  {
    "duration": 0.580208333333303,
    "end": 94.80833333333328,
    "pitch": 101,
    "start": 94.22812499999998,
    "velocity": 99
  },
  {
    "duration": 0.566145833333394,
    "end": 94.79635416666667,
    "pitch": 97,
    "start": 94.23020833333328,
    "velocity": 81
  },
  {
    "duration": 0.5770833333333485,
    "end": 94.80833333333328,
    "pitch": 94,
    "start": 94.23124999999993,
    "velocity": 85
  },
  {
    "duration": 0.4171874999999545,
    "end": 94.80833333333328,
    "pitch": 87,
    "start": 94.39114583333333,
    "velocity": 86
  },
  {
    "duration": 1.3296874999999773,
    "end": 96.12604166666665,
    "pitch": 97,
    "start": 94.79635416666667,
    "velocity": 92
  },
  {
    "duration": 1.3270833333333485,
    "end": 96.1270833333333,
    "pitch": 85,
    "start": 94.79999999999995,
    "velocity": 97
  },
  {
    "duration": 1.3369791666666515,
    "end": 96.14739583333323,
    "pitch": 94,
    "start": 94.81041666666658,
    "velocity": 83
  },
  {
    "duration": 1.329687500000091,
    "end": 96.14010416666667,
    "pitch": 75,
    "start": 94.81041666666658,
    "velocity": 79
  },
  {
    "duration": 1.3213541666666515,
    "end": 96.13749999999993,
    "pitch": 90,
    "start": 94.81614583333328,
    "velocity": 77
  },
  {
    "duration": 1.3192708333333485,
    "end": 96.15625,
    "pitch": 66,
    "start": 94.83697916666665,
    "velocity": 69
  },
  {
    "duration": 1.3588541666666742,
    "end": 96.21822916666667,
    "pitch": 73,
    "start": 94.859375,
    "velocity": 29
  },
  {
    "duration": 0.5942708333333258,
    "end": 96.72031249999998,
    "pitch": 97,
    "start": 96.12604166666665,
    "velocity": 88
  },
  {
    "duration": 0.597916666666606,
    "end": 96.72499999999991,
    "pitch": 85,
    "start": 96.1270833333333,
    "velocity": 94
  },
  {
    "duration": 0.5874999999999773,
    "end": 96.72499999999991,
    "pitch": 90,
    "start": 96.13749999999993,
    "velocity": 82
  },
  {
    "duration": 0.5848958333332348,
    "end": 96.72499999999991,
    "pitch": 75,
    "start": 96.14010416666667,
    "velocity": 76
  },
  {
    "duration": 0.07291666666674246,
    "end": 96.22031249999998,
    "pitch": 94,
    "start": 96.14739583333323,
    "velocity": 78
  },
  {
    "duration": 0.5776041666666742,
    "end": 96.72499999999991,
    "pitch": 70,
    "start": 96.14739583333323,
    "velocity": 76
  },
  {
    "duration": 0.568749999999909,
    "end": 96.72499999999991,
    "pitch": 66,
    "start": 96.15625,
    "velocity": 65
  },
  {
    "duration": 0.5036458333332803,
    "end": 96.72499999999991,
    "pitch": 94,
    "start": 96.22135416666663,
    "velocity": 5
  },
  {
    "duration": 0.2567708333333485,
    "end": 96.97708333333333,
    "pitch": 97,
    "start": 96.72031249999998,
    "velocity": 93
  },
  {
    "duration": 0.2510416666666515,
    "end": 96.97708333333333,
    "pitch": 85,
    "start": 96.72604166666667,
    "velocity": 102
  },
  {
    "duration": 0.24791666666669698,
    "end": 96.97708333333333,
    "pitch": 61,
    "start": 96.72916666666663,
    "velocity": 95
  },
  {
    "duration": 0.24375000000009095,
    "end": 96.97708333333333,
    "pitch": 90,
    "start": 96.73333333333323,
    "velocity": 86
  },
  {
    "duration": 0.23697916666674246,
    "end": 96.97708333333333,
    "pitch": 94,
    "start": 96.74010416666658,
    "velocity": 85
  },
  {
    "duration": 0.23489583333332575,
    "end": 96.97708333333333,
    "pitch": 70,
    "start": 96.7421875,
    "velocity": 81
  },
  {
    "duration": 1.2333333333333485,
    "end": 98.22812499999998,
    "pitch": 70,
    "start": 96.99479166666663,
    "velocity": 96
  },
  {
    "duration": 1.2333333333333485,
    "end": 98.22812499999998,
    "pitch": 85,
    "start": 96.99479166666663,
    "velocity": 97
  },
  {
    "duration": 1.2307291666667197,
    "end": 98.22812499999998,
    "pitch": 61,
    "start": 96.99739583333326,
    "velocity": 92
  },
  {
    "duration": 1.2229166666667197,
    "end": 98.22812499999998,
    "pitch": 97,
    "start": 97.00520833333326,
    "velocity": 96
  },
  {
    "duration": 1.21875,
    "end": 98.22812499999998,
    "pitch": 66,
    "start": 97.00937499999998,
    "velocity": 82
  },
  {
    "duration": 1.2151041666667197,
    "end": 98.22812499999998,
    "pitch": 90,
    "start": 97.01302083333326,
    "velocity": 88
  },
  {
    "duration": 0.07135416666665151,
    "end": 97.09739583333328,
    "pitch": 94,
    "start": 97.02604166666663,
    "velocity": 83
  },
  {
    "duration": 1.1291666666667197,
    "end": 98.22812499999998,
    "pitch": 94,
    "start": 97.09895833333326,
    "velocity": 7
  },
  {
    "duration": 0.2177083333333485,
    "end": 98.4239583333333,
    "pitch": 87,
    "start": 98.20624999999995,
    "velocity": 102
  },
  {
    "duration": 0.2765625000000682,
    "end": 98.6895833333333,
    "pitch": 89,
    "start": 98.41302083333323,
    "velocity": 78
  },
  {
    "duration": 0.27291666666667425,
    "end": 98.69114583333328,
    "pitch": 94,
    "start": 98.4182291666666,
    "velocity": 77
  },
  {
    "duration": 0.286979166666697,
    "end": 98.7072916666666,
    "pitch": 101,
    "start": 98.42031249999991,
    "velocity": 84
  },
  {
    "duration": 0.27395833333332575,
    "end": 98.7052083333333,
    "pitch": 97,
    "start": 98.43124999999998,
    "velocity": 57
  },
  {
    "duration": 0.24687500000004547,
    "end": 98.81302083333333,
    "pitch": 87,
    "start": 98.56614583333328,
    "velocity": 80
  },
  {
    "duration": 0.2177083333333485,
    "end": 98.90729166666665,
    "pitch": 89,
    "start": 98.6895833333333,
    "velocity": 65
  },
  {
    "duration": 0.21718750000002274,
    "end": 98.9083333333333,
    "pitch": 94,
    "start": 98.69114583333328,
    "velocity": 70
  },
  {
    "duration": 0.22395833333337123,
    "end": 98.92916666666667,
    "pitch": 97,
    "start": 98.7052083333333,
    "velocity": 54
  },
  {
    "duration": 0.38802083333337123,
    "end": 99.09531249999998,
    "pitch": 101,
    "start": 98.7072916666666,
    "velocity": 56
  },
  {
    "duration": 0.1609374999999318,
    "end": 98.97395833333326,
    "pitch": 87,
    "start": 98.81302083333333,
    "velocity": 65
  },
  {
    "duration": 0.17708333333325754,
    "end": 99.08437499999991,
    "pitch": 89,
    "start": 98.90729166666665,
    "velocity": 60
  },
  {
    "duration": 0.1729166666666515,
    "end": 99.08124999999995,
    "pitch": 94,
    "start": 98.9083333333333,
    "velocity": 67
  },
  {
    "duration": 0.14791666666656056,
    "end": 99.07708333333323,
    "pitch": 97,
    "start": 98.92916666666667,
    "velocity": 38
  },
  {
    "duration": 0.1593750000000682,
    "end": 99.13333333333333,
    "pitch": 87,
    "start": 98.97395833333326,
    "velocity": 67
  },
  {
    "duration": 0.15885416666674246,
    "end": 99.23593749999998,
    "pitch": 97,
    "start": 99.07708333333323,
    "velocity": 50
  },
  {
    "duration": 0.15104166666662877,
    "end": 99.23229166666658,
    "pitch": 94,
    "start": 99.08124999999995,
    "velocity": 53
  },
  {
    "duration": 0.1427083333334167,
    "end": 99.22708333333333,
    "pitch": 89,
    "start": 99.08437499999991,
    "velocity": 37
  },
  {
    "duration": 0.14374999999995453,
    "end": 99.23906249999993,
    "pitch": 101,
    "start": 99.09531249999998,
    "velocity": 33
  },
  {
    "duration": 0.15885416666662877,
    "end": 99.29218749999995,
    "pitch": 87,
    "start": 99.13333333333333,
    "velocity": 71
  },
  {
    "duration": 0.17812499999990905,
    "end": 99.40520833333323,
    "pitch": 89,
    "start": 99.22708333333333,
    "velocity": 57
  },
  {
    "duration": 0.1739583333334167,
    "end": 99.40625,
    "pitch": 94,
    "start": 99.23229166666658,
    "velocity": 58
  },
  {
    "duration": 0.17343749999997726,
    "end": 99.40937499999995,
    "pitch": 97,
    "start": 99.23593749999998,
    "velocity": 49
  },
  {
    "duration": 0.1708333333333485,
    "end": 99.40989583333328,
    "pitch": 101,
    "start": 99.23906249999993,
    "velocity": 50
  },
  {
    "duration": 0.25625000000002274,
    "end": 99.54843749999998,
    "pitch": 87,
    "start": 99.29218749999995,
    "velocity": 83
  },
  {
    "duration": 0.35416666666674246,
    "end": 99.75937499999998,
    "pitch": 89,
    "start": 99.40520833333323,
    "velocity": 62
  },
  {
    "duration": 0.3640624999999318,
    "end": 99.77031249999993,
    "pitch": 94,
    "start": 99.40625,
    "velocity": 67
  },
  {
    "duration": 0.35781250000002274,
    "end": 99.76718749999998,
    "pitch": 97,
    "start": 99.40937499999995,
    "velocity": 57
  },
  {
    "duration": 0.35208333333332575,
    "end": 99.7619791666666,
    "pitch": 101,
    "start": 99.40989583333328,
    "velocity": 62
  },
  {
    "duration": 0.44687499999997726,
    "end": 99.99531249999995,
    "pitch": 87,
    "start": 99.54843749999998,
    "velocity": 96
  },
  {
    "duration": 0.769791666666606,
    "end": 100.52916666666658,
    "pitch": 89,
    "start": 99.75937499999998,
    "velocity": 75
  },
  {
    "duration": 0.7671874999999773,
    "end": 100.52916666666658,
    "pitch": 101,
    "start": 99.7619791666666,
    "velocity": 91
  },
  {
    "duration": 0.7380208333332803,
    "end": 100.50520833333326,
    "pitch": 97,
    "start": 99.76718749999998,
    "velocity": 69
  },
  {
    "duration": 0.16093750000004547,
    "end": 99.93124999999998,
    "pitch": 94,
    "start": 99.77031249999993,
    "velocity": 69
  },
  {
    "duration": 0.597916666666606,
    "end": 100.52916666666658,
    "pitch": 94,
    "start": 99.93124999999998,
    "velocity": 1
  },
  {
    "duration": 0.5338541666666288,
    "end": 100.52916666666658,
    "pitch": 87,
    "start": 99.99531249999995,
    "velocity": 91
  },
  {
    "duration": 1.1140625000000455,
    "end": 101.6192708333333,
    "pitch": 97,
    "start": 100.50520833333326,
    "velocity": 90
  },
  {
    "duration": 1.1109374999999773,
    "end": 101.6192708333333,
    "pitch": 85,
    "start": 100.50833333333333,
    "velocity": 90
  },
  {
    "duration": 1.0791666666667652,
    "end": 101.6015625,
    "pitch": 70,
    "start": 100.52239583333323,
    "velocity": 76
  },
  {
    "duration": 1.0890625000000682,
    "end": 101.6192708333333,
    "pitch": 61,
    "start": 100.53020833333323,
    "velocity": 78
  },
  {
    "duration": 0.8109375000000227,
    "end": 101.34114583333326,
    "pitch": 94,
    "start": 100.53020833333323,
    "velocity": 72
  },
  {
    "duration": 0.8760416666666515,
    "end": 101.40729166666665,
    "pitch": 90,
    "start": 100.53125,
    "velocity": 68
  },
  {
    "duration": 1.066666666666606,
    "end": 101.61406249999993,
    "pitch": 66,
    "start": 100.54739583333333,
    "velocity": 78
  },
  {
    "duration": 0.4718750000000682,
    "end": 101.6192708333333,
    "pitch": 54,
    "start": 101.14739583333323,
    "velocity": 80
  },
  {
    "duration": 0.2781250000000455,
    "end": 101.6192708333333,
    "pitch": 94,
    "start": 101.34114583333326,
    "velocity": 1
  },
  {
    "duration": 0.2119791666666515,
    "end": 101.6192708333333,
    "pitch": 90,
    "start": 101.40729166666665,
    "velocity": 1
  },
  {
    "duration": 1.0947916666666515,
    "end": 102.66718749999995,
    "pitch": 99,
    "start": 101.5723958333333,
    "velocity": 92
  },
  {
    "duration": 1.0807291666666288,
    "end": 102.66718749999995,
    "pitch": 87,
    "start": 101.58645833333333,
    "velocity": 90
  },
  {
    "duration": 1.0656249999999545,
    "end": 102.66718749999995,
    "pitch": 70,
    "start": 101.6015625,
    "velocity": 64
  },
  {
    "duration": 1.0531250000000227,
    "end": 102.66718749999995,
    "pitch": 66,
    "start": 101.61406249999993,
    "velocity": 60
  },
  {
    "duration": 1.0197916666667197,
    "end": 102.66718749999995,
    "pitch": 61,
    "start": 101.64739583333323,
    "velocity": 39
  },
  {
    "duration": 0.09739583333339397,
    "end": 102.73541666666665,
    "pitch": 25,
    "start": 102.63802083333326,
    "velocity": 86
  },
  {
    "duration": 2.551041666666606,
    "end": 105.19322916666658,
    "pitch": 97,
    "start": 102.64218749999998,
    "velocity": 88
  },
  {
    "duration": 0.9296875,
    "end": 103.57291666666663,
    "pitch": 101,
    "start": 102.64322916666663,
    "velocity": 99
  },
  {
    "duration": 0.9406250000000682,
    "end": 103.58697916666665,
    "pitch": 89,
    "start": 102.64635416666658,
    "velocity": 84
  },
  {
    "duration": 0.13020833333337123,
    "end": 102.79218749999995,
    "pitch": 37,
    "start": 102.66197916666658,
    "velocity": 58
  },
  {
    "duration": 0.30312500000002274,
    "end": 103.68906249999998,
    "pitch": 87,
    "start": 103.38593749999995,
    "velocity": 70
  },
  {
    "duration": 1.2468750000000455,
    "end": 104.81979166666667,
    "pitch": 101,
    "start": 103.57291666666663,
    "velocity": 79
  },
  {
    "duration": 0.22395833333325754,
    "end": 103.81093749999991,
    "pitch": 89,
    "start": 103.58697916666665,
    "velocity": 49
  },
  {
    "duration": 0.3171874999999318,
    "end": 104.00624999999991,
    "pitch": 87,
    "start": 103.68906249999998,
    "velocity": 80
  },
  {
    "duration": 1.0052083333333712,
    "end": 104.81614583333328,
    "pitch": 89,
    "start": 103.81093749999991,
    "velocity": 53
  },
  {
    "duration": 0.1651041666666515,
    "end": 104.06718749999993,
    "pitch": 85,
    "start": 103.90208333333328,
    "velocity": 58
  },
  {
    "duration": 0.17812500000002274,
    "end": 104.18437499999993,
    "pitch": 87,
    "start": 104.00624999999991,
    "velocity": 69
  },
  {
    "duration": 0.1796875,
    "end": 104.18802083333333,
    "pitch": 99,
    "start": 104.00833333333333,
    "velocity": 73
  },
  {
    "duration": 1.1260416666666515,
    "end": 105.19322916666658,
    "pitch": 85,
    "start": 104.06718749999993,
    "velocity": 68
  },
  {
    "duration": 0.5140625000000227,
    "end": 104.69843749999995,
    "pitch": 87,
    "start": 104.18437499999993,
    "velocity": 65
  },
  {
    "duration": 1.0052083333332575,
    "end": 105.19322916666658,
    "pitch": 99,
    "start": 104.18802083333333,
    "velocity": 66
  },
  {
    "duration": 0.8697916666666288,
    "end": 105.19322916666658,
    "pitch": 80,
    "start": 104.32343749999995,
    "velocity": 57
  },
  {
    "duration": 0.19687499999997726,
    "end": 104.89531249999993,
    "pitch": 87,
    "start": 104.69843749999995,
    "velocity": 91
  },
  {
    "duration": 0.377083333333303,
    "end": 105.19322916666658,
    "pitch": 89,
    "start": 104.81614583333328,
    "velocity": 62
  },
  {
    "duration": 0.37343749999990905,
    "end": 105.19322916666658,
    "pitch": 101,
    "start": 104.81979166666667,
    "velocity": 78
  },
  {
    "duration": 0.29166666666674246,
    "end": 105.18697916666667,
    "pitch": 87,
    "start": 104.89531249999993,
    "velocity": 83
  },
  {
    "duration": 0.051041666666606034,
    "end": 105.23802083333328,
    "pitch": 87,
    "start": 105.18697916666667,
    "velocity": 90
  },
  {
    "duration": 0.22916666666674246,
    "end": 105.7421875,
    "pitch": 87,
    "start": 105.51302083333326,
    "velocity": 78
  },
  {
    "duration": 0.9817708333332575,
    "end": 106.72395833333326,
    "pitch": 87,
    "start": 105.7421875,
    "velocity": 81
  },
  {
    "duration": 0.18697916666667425,
    "end": 106.14114583333333,
    "pitch": 85,
    "start": 105.95416666666665,
    "velocity": 84
  },
  {
    "duration": 0.5828124999999318,
    "end": 106.72395833333326,
    "pitch": 85,
    "start": 106.14114583333333,
    "velocity": 81
  },
  {
    "duration": 0.19895833333339397,
    "end": 106.54739583333333,
    "pitch": 80,
    "start": 106.34843749999993,
    "velocity": 84
  },
  {
    "duration": 0.1765624999999318,
    "end": 106.72395833333326,
    "pitch": 80,
    "start": 106.54739583333333,
    "velocity": 76
  },
  {
    "duration": 0.296875,
    "end": 107.1369791666666,
    "pitch": 87,
    "start": 106.8401041666666,
    "velocity": 38
  },
  {
    "duration": 0.4651041666667197,
    "end": 107.60208333333333,
    "pitch": 87,
    "start": 107.1369791666666,
    "velocity": 92
  },
  {
    "duration": 0.3828125,
    "end": 107.67812499999991,
    "pitch": 89,
    "start": 107.29531249999991,
    "velocity": 74
  },
  {
    "duration": 0.38333333333332575,
    "end": 107.68229166666663,
    "pitch": 101,
    "start": 107.2989583333333,
    "velocity": 81
  },
  {
    "duration": 0.15625,
    "end": 107.75833333333333,
    "pitch": 87,
    "start": 107.60208333333333,
    "velocity": 74
  },
  {
    "duration": 0.18333333333339397,
    "end": 107.8614583333333,
    "pitch": 89,
    "start": 107.67812499999991,
    "velocity": 78
  },
  {
    "duration": 0.19583333333332575,
    "end": 107.87812499999995,
    "pitch": 101,
    "start": 107.68229166666663,
    "velocity": 81
  },
  {
    "duration": 0.1687499999999318,
    "end": 107.92708333333326,
    "pitch": 87,
    "start": 107.75833333333333,
    "velocity": 64
  },
  {
    "duration": 0.4677083333333485,
    "end": 108.32916666666665,
    "pitch": 89,
    "start": 107.8614583333333,
    "velocity": 68
  },
  {
    "duration": 0.451041666666697,
    "end": 108.32916666666665,
    "pitch": 101,
    "start": 107.87812499999995,
    "velocity": 37
  },
  {
    "duration": 0.14010416666667425,
    "end": 108.06718749999993,
    "pitch": 87,
    "start": 107.92708333333326,
    "velocity": 18
  },
  {
    "duration": 0.2979166666666515,
    "end": 108.32916666666665,
    "pitch": 85,
    "start": 108.03125,
    "velocity": 63
  },
  {
    "duration": 0.26822916666674246,
    "end": 108.32916666666665,
    "pitch": 99,
    "start": 108.06093749999991,
    "velocity": 66
  },
  {
    "duration": 0.255729166666697,
    "end": 108.32291666666663,
    "pitch": 87,
    "start": 108.06718749999993,
    "velocity": 55
  },
  {
    "duration": 0.06718750000004547,
    "end": 108.39010416666667,
    "pitch": 87,
    "start": 108.32291666666663,
    "velocity": 86
  },
  {
    "duration": 0.20260416666667425,
    "end": 108.65104166666663,
    "pitch": 89,
    "start": 108.44843749999995,
    "velocity": 71
  },
  {
    "duration": 0.20677083333339397,
    "end": 108.66510416666665,
    "pitch": 101,
    "start": 108.45833333333326,
    "velocity": 76
  },
  {
    "duration": 0.29531250000002274,
    "end": 108.84739583333328,
    "pitch": 87,
    "start": 108.55208333333326,
    "velocity": 78
  },
  {
    "duration": 0.953125,
    "end": 109.60416666666663,
    "pitch": 89,
    "start": 108.65104166666663,
    "velocity": 67
  },
  {
    "duration": 0.9442708333333485,
    "end": 109.609375,
    "pitch": 101,
    "start": 108.66510416666665,
    "velocity": 48
  },
  {
    "duration": 0.1942708333333485,
    "end": 108.9453125,
    "pitch": 85,
    "start": 108.75104166666665,
    "velocity": 79
  },
  {
    "duration": 0.20156250000002274,
    "end": 109.0489583333333,
    "pitch": 87,
    "start": 108.84739583333328,
    "velocity": 77
  },
  {
    "duration": 0.18541666666669698,
    "end": 109.04947916666663,
    "pitch": 99,
    "start": 108.86406249999993,
    "velocity": 57
  },
  {
    "duration": 1.014062499999909,
    "end": 109.95937499999991,
    "pitch": 85,
    "start": 108.9453125,
    "velocity": 80
  },
  {
    "duration": 0.443229166666697,
    "end": 109.4921875,
    "pitch": 87,
    "start": 109.0489583333333,
    "velocity": 61
  },
  {
    "duration": 1.0114583333332803,
    "end": 110.06093749999991,
    "pitch": 99,
    "start": 109.04947916666663,
    "velocity": 70
  },
  {
    "duration": 0.26197916666660603,
    "end": 109.7541666666666,
    "pitch": 87,
    "start": 109.4921875,
    "velocity": 80
  },
  {
    "duration": 0.23125000000004547,
    "end": 109.83541666666667,
    "pitch": 89,
    "start": 109.60416666666663,
    "velocity": 73
  },
  {
    "duration": 0.2276041666666515,
    "end": 109.83697916666665,
    "pitch": 101,
    "start": 109.609375,
    "velocity": 80
  },
  {
    "duration": 0.3000000000000682,
    "end": 110.05416666666667,
    "pitch": 87,
    "start": 109.7541666666666,
    "velocity": 68
  },
  {
    "duration": 0.9489583333332803,
    "end": 110.78437499999995,
    "pitch": 89,
    "start": 109.83541666666667,
    "velocity": 53
  },
  {
    "duration": 0.947395833333303,
    "end": 110.78437499999995,
    "pitch": 101,
    "start": 109.83697916666665,
    "velocity": 39
  },
  {
    "duration": 0.20468750000009095,
    "end": 110.1640625,
    "pitch": 85,
    "start": 109.95937499999991,
    "velocity": 74
  },
  {
    "duration": 0.2322916666665833,
    "end": 110.28645833333326,
    "pitch": 87,
    "start": 110.05416666666667,
    "velocity": 71
  },
  {
    "duration": 0.2333333333333485,
    "end": 110.29427083333326,
    "pitch": 99,
    "start": 110.06093749999991,
    "velocity": 64
  },
  {
    "duration": 0.6203124999999545,
    "end": 110.78437499999995,
    "pitch": 85,
    "start": 110.1640625,
    "velocity": 73
  },
  {
    "duration": 0.497916666666697,
    "end": 110.78437499999995,
    "pitch": 87,
    "start": 110.28645833333326,
    "velocity": 61
  },
  {
    "duration": 0.490104166666697,
    "end": 110.78437499999995,
    "pitch": 99,
    "start": 110.29427083333326,
    "velocity": 62
  },
  {
    "duration": 0.3213541666666515,
    "end": 110.78437499999995,
    "pitch": 79,
    "start": 110.4630208333333,
    "velocity": 7
  },
  {
    "duration": 0.29427083333337123,
    "end": 111.0802083333333,
    "pitch": 87,
    "start": 110.78593749999993,
    "velocity": 87
  },
  {
    "duration": 0.1921874999999318,
    "end": 111.27239583333323,
    "pitch": 87,
    "start": 111.0802083333333,
    "velocity": 75
  },
  {
    "duration": 0.19583333333332575,
    "end": 111.36406249999993,
    "pitch": 101,
    "start": 111.1682291666666,
    "velocity": 81
  },
  {
    "duration": 0.18906249999997726,
    "end": 111.35833333333323,
    "pitch": 89,
    "start": 111.16927083333326,
    "velocity": 62
  },
  {
    "duration": 0.2901041666667652,
    "end": 111.5625,
    "pitch": 87,
    "start": 111.27239583333323,
    "velocity": 77
  },
  {
    "duration": 0.9260416666667197,
    "end": 112.28437499999995,
    "pitch": 89,
    "start": 111.35833333333323,
    "velocity": 69
  },
  {
    "duration": 0.9203125000000227,
    "end": 112.28437499999995,
    "pitch": 101,
    "start": 111.36406249999993,
    "velocity": 65
  },
  {
    "duration": 0.1796875,
    "end": 111.64114583333333,
    "pitch": 85,
    "start": 111.46145833333333,
    "velocity": 79
  },
  {
    "duration": 0.18281249999995453,
    "end": 111.74114583333323,
    "pitch": 99,
    "start": 111.55833333333328,
    "velocity": 78
  },
  {
    "duration": 0.1765624999999318,
    "end": 111.73906249999993,
    "pitch": 87,
    "start": 111.5625,
    "velocity": 76
  },
  {
    "duration": 0.17812499999990905,
    "end": 111.81927083333323,
    "pitch": 85,
    "start": 111.64114583333333,
    "velocity": 80
  },
  {
    "duration": 0.5453125000000227,
    "end": 112.28437499999995,
    "pitch": 87,
    "start": 111.73906249999993,
    "velocity": 71
  },
  {
    "duration": 0.5432291666667197,
    "end": 112.28437499999995,
    "pitch": 99,
    "start": 111.74114583333323,
    "velocity": 70
  },
  {
    "duration": 0.4651041666667197,
    "end": 112.28437499999995,
    "pitch": 85,
    "start": 111.81927083333323,
    "velocity": 67
  },
  {
    "duration": 0.30416666666667425,
    "end": 112.28437499999995,
    "pitch": 80,
    "start": 111.98020833333328,
    "velocity": 80
  },
  {
    "duration": 0.2880208333333485,
    "end": 112.28437499999995,
    "pitch": 97,
    "start": 111.9963541666666,
    "velocity": 36
  },
  {
    "duration": 0.2177083333333485,
    "end": 112.51093749999995,
    "pitch": 87,
    "start": 112.2932291666666,
    "velocity": 88
  },
  {
    "duration": 0.22291666666660603,
    "end": 112.61406249999993,
    "pitch": 89,
    "start": 112.39114583333333,
    "velocity": 69
  },
  {
    "duration": 1.5187500000000682,
    "end": 113.9161458333333,
    "pitch": 101,
    "start": 112.39739583333323,
    "velocity": 88
  },
  {
    "duration": 0.29531250000002274,
    "end": 112.80624999999998,
    "pitch": 87,
    "start": 112.51093749999995,
    "velocity": 74
  },
  {
    "duration": 1.3020833333333712,
    "end": 113.9161458333333,
    "pitch": 89,
    "start": 112.61406249999993,
    "velocity": 53
  },
  {
    "duration": 0.1999999999999318,
    "end": 112.91093749999993,
    "pitch": 85,
    "start": 112.7109375,
    "velocity": 80
  },
  {
    "duration": 0.20677083333328028,
    "end": 113.01302083333326,
    "pitch": 87,
    "start": 112.80624999999998,
    "velocity": 75
  },
  {
    "duration": 0.20260416666667425,
    "end": 113.0119791666666,
    "pitch": 99,
    "start": 112.80937499999993,
    "velocity": 71
  },
  {
    "duration": 0.33541666666667425,
    "end": 113.2463541666666,
    "pitch": 85,
    "start": 112.91093749999993,
    "velocity": 84
  },
  {
    "duration": 0.904166666666697,
    "end": 113.9161458333333,
    "pitch": 99,
    "start": 113.0119791666666,
    "velocity": 66
  },
  {
    "duration": 0.9031250000000455,
    "end": 113.9161458333333,
    "pitch": 87,
    "start": 113.01302083333326,
    "velocity": 64
  },
  {
    "duration": 0.18541666666669698,
    "end": 113.28437499999995,
    "pitch": 80,
    "start": 113.09895833333326,
    "velocity": 82
  },
  {
    "duration": 0.17552083333339397,
    "end": 113.39947916666665,
    "pitch": 97,
    "start": 113.22395833333326,
    "velocity": 66
  },
  {
    "duration": 0.14583333333337123,
    "end": 113.39218749999998,
    "pitch": 85,
    "start": 113.2463541666666,
    "velocity": 51
  },
  {
    "duration": 0.3317708333332803,
    "end": 113.61614583333323,
    "pitch": 80,
    "start": 113.28437499999995,
    "velocity": 80
  },
  {
    "duration": 0.5239583333333258,
    "end": 113.9161458333333,
    "pitch": 85,
    "start": 113.39218749999998,
    "velocity": 67
  },
  {
    "duration": 0.5166666666666515,
    "end": 113.9161458333333,
    "pitch": 97,
    "start": 113.39947916666665,
    "velocity": 75
  },
  {
    "duration": 0.39010416666667425,
    "end": 113.9161458333333,
    "pitch": 77,
    "start": 113.52604166666663,
    "velocity": 69
  },
  {
    "duration": 0.3000000000000682,
    "end": 113.9161458333333,
    "pitch": 80,
    "start": 113.61614583333323,
    "velocity": 67
  },
  {
    "duration": 0.286979166666697,
    "end": 113.9161458333333,
    "pitch": 92,
    "start": 113.6291666666666,
    "velocity": 44
  },
  {
    "duration": 0.18906249999997726,
    "end": 113.9161458333333,
    "pitch": 73,
    "start": 113.72708333333333,
    "velocity": 81
  },
  {
    "duration": 0.06302083333332575,
    "end": 113.99114583333323,
    "pitch": 75,
    "start": 113.92812499999991,
    "velocity": 92
  },
  {
    "duration": 0.20572916666662877,
    "end": 114.22916666666663,
    "pitch": 77,
    "start": 114.0234375,
    "velocity": 73
  },
  {
    "duration": 0.2041666666666515,
    "end": 114.23333333333323,
    "pitch": 89,
    "start": 114.02916666666658,
    "velocity": 76
  },
  {
    "duration": 0.8999999999999773,
    "end": 115.05312499999991,
    "pitch": 75,
    "start": 114.15312499999993,
    "velocity": 84
  },
  {
    "duration": 0.8239583333332803,
    "end": 115.05312499999991,
    "pitch": 77,
    "start": 114.22916666666663,
    "velocity": 73
  },
  {
    "duration": 0.8197916666666742,
    "end": 115.05312499999991,
    "pitch": 89,
    "start": 114.23333333333323,
    "velocity": 65
  },
  {
    "duration": 0.713020833333303,
    "end": 115.05312499999991,
    "pitch": 73,
    "start": 114.3401041666666,
    "velocity": 88
  },
  {
    "duration": 0.32968749999997726,
    "end": 115.34999999999991,
    "pitch": 88,
    "start": 115.02031249999993,
    "velocity": 90
  },
  {
    "duration": 0.544791666666697,
    "end": 115.8671875,
    "pitch": 87,
    "start": 115.3223958333333,
    "velocity": 97
  },
  {
    "duration": 0.42708333333337123,
    "end": 115.9572916666666,
    "pitch": 101,
    "start": 115.53020833333323,
    "velocity": 85
  },
  {
    "duration": 0.4187499999999318,
    "end": 115.94999999999993,
    "pitch": 89,
    "start": 115.53125,
    "velocity": 78
  },
  {
    "duration": 0.21406249999995453,
    "end": 116.08124999999995,
    "pitch": 87,
    "start": 115.8671875,
    "velocity": 71
  },
  {
    "duration": 0.2041666666666515,
    "end": 116.15416666666658,
    "pitch": 89,
    "start": 115.94999999999993,
    "velocity": 76
  },
  {
    "duration": 0.21666666666669698,
    "end": 116.1739583333333,
    "pitch": 101,
    "start": 115.9572916666666,
    "velocity": 79
  },
  {
    "duration": 0.4807291666667197,
    "end": 116.56197916666667,
    "pitch": 87,
    "start": 116.08124999999995,
    "velocity": 68
  },
  {
    "duration": 0.40781250000009095,
    "end": 116.56197916666667,
    "pitch": 89,
    "start": 116.15416666666658,
    "velocity": 48
  },
  {
    "duration": 0.38802083333337123,
    "end": 116.56197916666667,
    "pitch": 101,
    "start": 116.1739583333333,
    "velocity": 18
  },
  {
    "duration": 0.31093750000002274,
    "end": 116.56197916666667,
    "pitch": 85,
    "start": 116.25104166666665,
    "velocity": 80
  },
  {
    "duration": 0.19791666666662877,
    "end": 116.7619791666666,
    "pitch": 87,
    "start": 116.56406249999998,
    "velocity": 68
  },
  {
    "duration": 0.22083333333330302,
    "end": 116.8770833333333,
    "pitch": 101,
    "start": 116.65625,
    "velocity": 85
  },
  {
    "duration": 0.19062499999995453,
    "end": 116.84999999999991,
    "pitch": 89,
    "start": 116.65937499999995,
    "velocity": 59
  },
  {
    "duration": 0.28125,
    "end": 117.0432291666666,
    "pitch": 87,
    "start": 116.7619791666666,
    "velocity": 69
  },
  {
    "duration": 0.9630208333334167,
    "end": 117.81302083333333,
    "pitch": 89,
    "start": 116.84999999999991,
    "velocity": 55
  },
  {
    "duration": 0.9359375000000227,
    "end": 117.81302083333333,
    "pitch": 101,
    "start": 116.8770833333333,
    "velocity": 13
  },
  {
    "duration": 0.2020833333333485,
    "end": 117.14427083333328,
    "pitch": 85,
    "start": 116.94218749999993,
    "velocity": 68
  },
  {
    "duration": 0.19010416666662877,
    "end": 117.23333333333323,
    "pitch": 99,
    "start": 117.0432291666666,
    "velocity": 69
  },
  {
    "duration": 0.19583333333332575,
    "end": 117.23906249999993,
    "pitch": 87,
    "start": 117.0432291666666,
    "velocity": 72
  },
  {
    "duration": 0.16614583333330302,
    "end": 117.31041666666658,
    "pitch": 85,
    "start": 117.14427083333328,
    "velocity": 70
  },
  {
    "duration": 0.579687500000091,
    "end": 117.81302083333333,
    "pitch": 99,
    "start": 117.23333333333323,
    "velocity": 68
  },
  {
    "duration": 0.5609375000000227,
    "end": 117.79999999999995,
    "pitch": 87,
    "start": 117.23906249999993,
    "velocity": 64
  },
  {
    "duration": 0.15468750000002274,
    "end": 117.4651041666666,
    "pitch": 85,
    "start": 117.31041666666658,
    "velocity": 67
  },
  {
    "duration": 0.3479166666667197,
    "end": 117.81302083333333,
    "pitch": 85,
    "start": 117.4651041666666,
    "velocity": 62
  },
  {
    "duration": 0.3479166666667197,
    "end": 117.81302083333333,
    "pitch": 97,
    "start": 117.4651041666666,
    "velocity": 59
  },
  {
    "duration": 0.09791666666671972,
    "end": 117.89791666666667,
    "pitch": 87,
    "start": 117.79999999999995,
    "velocity": 85
  },
  {
    "duration": 0.30520833333343944,
    "end": 118.21041666666667,
    "pitch": 89,
    "start": 117.90520833333323,
    "velocity": 73
  },
  {
    "duration": 0.259895833333303,
    "end": 118.17708333333326,
    "pitch": 101,
    "start": 117.91718749999995,
    "velocity": 75
  },
  {
    "duration": 0.27083333333337123,
    "end": 118.34427083333333,
    "pitch": 87,
    "start": 118.07343749999995,
    "velocity": 75
  },
  {
    "duration": 0.1671875000000682,
    "end": 118.34427083333333,
    "pitch": 101,
    "start": 118.17708333333326,
    "velocity": 57
  },
  {
    "duration": 0.1338541666666515,
    "end": 118.34427083333333,
    "pitch": 89,
    "start": 118.21041666666667,
    "velocity": 9
  },
  {
    "duration": 0.23802083333328028,
    "end": 118.52239583333323,
    "pitch": 85,
    "start": 118.28437499999995,
    "velocity": 76
  },
  {
    "duration": 0.2510416666666515,
    "end": 118.64531249999993,
    "pitch": 87,
    "start": 118.39427083333328,
    "velocity": 64
  },
  {
    "duration": 0.23229166666669698,
    "end": 118.63541666666663,
    "pitch": 99,
    "start": 118.40312499999993,
    "velocity": 61
  },
  {
    "duration": 0.3427083333333485,
    "end": 118.86510416666658,
    "pitch": 85,
    "start": 118.52239583333323,
    "velocity": 72
  },
  {
    "duration": 2.0807291666666288,
    "end": 120.71614583333326,
    "pitch": 99,
    "start": 118.63541666666663,
    "velocity": 68
  },
  {
    "duration": 2.0708333333333258,
    "end": 120.71614583333326,
    "pitch": 87,
    "start": 118.64531249999993,
    "velocity": 54
  },
  {
    "duration": 0.2276041666666515,
    "end": 118.98697916666663,
    "pitch": 80,
    "start": 118.75937499999998,
    "velocity": 71
  },
  {
    "duration": 0.22083333333330302,
    "end": 119.0822916666666,
    "pitch": 97,
    "start": 118.8614583333333,
    "velocity": 74
  },
  {
    "duration": 0.2333333333333485,
    "end": 119.09843749999993,
    "pitch": 85,
    "start": 118.86510416666658,
    "velocity": 65
  },
  {
    "duration": 0.377083333333303,
    "end": 119.36406249999993,
    "pitch": 80,
    "start": 118.98697916666663,
    "velocity": 61
  },
  {
    "duration": 1.6338541666666515,
    "end": 120.71614583333326,
    "pitch": 97,
    "start": 119.0822916666666,
    "velocity": 67
  },
  {
    "duration": 1.6177083333333258,
    "end": 120.71614583333326,
    "pitch": 85,
    "start": 119.09843749999993,
    "velocity": 65
  },
  {
    "duration": 0.8479166666667197,
    "end": 120.11822916666665,
    "pitch": 77,
    "start": 119.27031249999993,
    "velocity": 31
  },
  {
    "duration": 1.3520833333333258,
    "end": 120.71614583333326,
    "pitch": 80,
    "start": 119.36406249999993,
    "velocity": 76
  },
  {
    "duration": 1.3468749999999545,
    "end": 120.71614583333326,
    "pitch": 92,
    "start": 119.3692708333333,
    "velocity": 73
  },
  {
    "duration": 1.0369791666665833,
    "end": 120.71614583333326,
    "pitch": 73,
    "start": 119.67916666666667,
    "velocity": 88
  },
  {
    "duration": 0.26979166666660603,
    "end": 120.29583333333323,
    "pitch": 75,
    "start": 120.02604166666663,
    "velocity": 84
  },
  {
    "duration": 0.19583333333332575,
    "end": 120.31406249999998,
    "pitch": 77,
    "start": 120.11822916666665,
    "velocity": 70
  },
  {
    "duration": 0.1953125,
    "end": 120.3203125,
    "pitch": 89,
    "start": 120.125,
    "velocity": 68
  },
  {
    "duration": 0.35416666666674246,
    "end": 120.64999999999998,
    "pitch": 75,
    "start": 120.29583333333323,
    "velocity": 48
  },
  {
    "duration": 0.4020833333332803,
    "end": 120.71614583333326,
    "pitch": 77,
    "start": 120.31406249999998,
    "velocity": 65
  },
  {
    "duration": 0.39583333333325754,
    "end": 120.71614583333326,
    "pitch": 89,
    "start": 120.3203125,
    "velocity": 51
  },
  {
    "duration": 0.47916666666662877,
    "end": 121.1291666666666,
    "pitch": 75,
    "start": 120.64999999999998,
    "velocity": 82
  },
  {
    "duration": 0.3739583333333485,
    "end": 121.2442708333333,
    "pitch": 89,
    "start": 120.87031249999995,
    "velocity": 76
  },
  {
    "duration": 0.36770833333332575,
    "end": 121.23802083333328,
    "pitch": 77,
    "start": 120.87031249999995,
    "velocity": 78
  },
  {
    "duration": 0.2041666666666515,
    "end": 121.33333333333326,
    "pitch": 75,
    "start": 121.1291666666666,
    "velocity": 75
  },
  {
    "duration": 0.203125,
    "end": 121.44114583333328,
    "pitch": 77,
    "start": 121.23802083333328,
    "velocity": 71
  },
  {
    "duration": 0.20677083333328028,
    "end": 121.45104166666658,
    "pitch": 89,
    "start": 121.2442708333333,
    "velocity": 72
  },
  {
    "duration": 0.3078125000000682,
    "end": 121.64114583333333,
    "pitch": 75,
    "start": 121.33333333333326,
    "velocity": 70
  },
  {
    "duration": 1.3250000000000455,
    "end": 122.76614583333333,
    "pitch": 77,
    "start": 121.44114583333328,
    "velocity": 51
  },
  {
    "duration": 1.3151041666667425,
    "end": 122.76614583333333,
    "pitch": 89,
    "start": 121.45104166666658,
    "velocity": 31
  },
  {
    "duration": 0.2062500000000682,
    "end": 121.73541666666665,
    "pitch": 73,
    "start": 121.52916666666658,
    "velocity": 75
  },
  {
    "duration": 0.1921874999999318,
    "end": 121.8322916666666,
    "pitch": 87,
    "start": 121.64010416666667,
    "velocity": 69
  },
  {
    "duration": 0.19791666666662877,
    "end": 121.83906249999995,
    "pitch": 75,
    "start": 121.64114583333333,
    "velocity": 70
  },
  {
    "duration": 0.31875000000002274,
    "end": 122.05416666666667,
    "pitch": 73,
    "start": 121.73541666666665,
    "velocity": 78
  },
  {
    "duration": 0.9338541666667197,
    "end": 122.76614583333333,
    "pitch": 87,
    "start": 121.8322916666666,
    "velocity": 64
  },
  {
    "duration": 0.9270833333333712,
    "end": 122.76614583333333,
    "pitch": 75,
    "start": 121.83906249999995,
    "velocity": 65
  },
  {
    "duration": 0.18489583333337123,
    "end": 122.1270833333333,
    "pitch": 68,
    "start": 121.94218749999993,
    "velocity": 84
  },
  {
    "duration": 0.18385416666660603,
    "end": 122.23802083333328,
    "pitch": 73,
    "start": 122.05416666666667,
    "velocity": 76
  },
  {
    "duration": 0.1807291666666515,
    "end": 122.23697916666663,
    "pitch": 85,
    "start": 122.05624999999998,
    "velocity": 71
  },
  {
    "duration": 0.318229166666697,
    "end": 122.4453125,
    "pitch": 68,
    "start": 122.1270833333333,
    "velocity": 81
  },
  {
    "duration": 0.529166666666697,
    "end": 122.76614583333333,
    "pitch": 85,
    "start": 122.23697916666663,
    "velocity": 64
  },
  {
    "duration": 0.5281250000000455,
    "end": 122.76614583333333,
    "pitch": 73,
    "start": 122.23802083333328,
    "velocity": 70
  },
  {
    "duration": 0.4130208333333485,
    "end": 122.76614583333333,
    "pitch": 65,
    "start": 122.35312499999998,
    "velocity": 67
  },
  {
    "duration": 0.32083333333332575,
    "end": 122.76614583333333,
    "pitch": 68,
    "start": 122.4453125,
    "velocity": 84
  },
  {
    "duration": 0.20885416666669698,
    "end": 122.76614583333333,
    "pitch": 61,
    "start": 122.55729166666663,
    "velocity": 81
  },
  {
    "duration": 0.06406249999997726,
    "end": 122.86614583333323,
    "pitch": 63,
    "start": 122.80208333333326,
    "velocity": 12
  },
  {
    "duration": 0.3270833333333485,
    "end": 123.19218749999993,
    "pitch": 65,
    "start": 122.86510416666658,
    "velocity": 92
  },
  {
    "duration": 0.31302083333332575,
    "end": 123.19218749999993,
    "pitch": 77,
    "start": 122.8791666666666,
    "velocity": 71
  },
  {
    "duration": 0.19895833333328028,
    "end": 123.19218749999993,
    "pitch": 63,
    "start": 122.99322916666665,
    "velocity": 71
  },
  {
    "duration": 0.21354166666662877,
    "end": 123.44895833333328,
    "pitch": 63,
    "start": 123.23541666666665,
    "velocity": 84
  },
  {
    "duration": 0.2088541666665833,
    "end": 123.55208333333326,
    "pitch": 65,
    "start": 123.34322916666667,
    "velocity": 80
  },
  {
    "duration": 0.16354166666667425,
    "end": 123.54999999999995,
    "pitch": 77,
    "start": 123.38645833333328,
    "velocity": 10
  },
  {
    "duration": 0.34635416666662877,
    "end": 123.79531249999991,
    "pitch": 63,
    "start": 123.44895833333328,
    "velocity": 63
  },
  {
    "duration": 0.5932291666665606,
    "end": 124.14322916666652,
    "pitch": 77,
    "start": 123.54999999999995,
    "velocity": 63
  },
  {
    "duration": 0.5911458333332575,
    "end": 124.14322916666652,
    "pitch": 65,
    "start": 123.55208333333326,
    "velocity": 83
  },
  {
    "duration": 0.2218750000000682,
    "end": 123.88229166666667,
    "pitch": 61,
    "start": 123.6604166666666,
    "velocity": 87
  },
  {
    "duration": 0.2098958333333485,
    "end": 124.00520833333326,
    "pitch": 63,
    "start": 123.79531249999991,
    "velocity": 80
  },
  {
    "duration": 0.20885416666669698,
    "end": 124.0041666666666,
    "pitch": 75,
    "start": 123.79531249999991,
    "velocity": 69
  },
  {
    "duration": 0.26093749999984084,
    "end": 124.14322916666652,
    "pitch": 61,
    "start": 123.88229166666667,
    "velocity": 84
  },
  {
    "duration": 0.13906249999990905,
    "end": 124.14322916666652,
    "pitch": 75,
    "start": 124.0041666666666,
    "velocity": 71
  },
  {
    "duration": 0.13802083333325754,
    "end": 124.14322916666652,
    "pitch": 63,
    "start": 124.00520833333326,
    "velocity": 80
  },
  {
    "duration": 0.11302083333339397,
    "end": 124.22343750000005,
    "pitch": 56,
    "start": 124.11041666666665,
    "velocity": 84
  },
  {
    "duration": 0.22604166666678793,
    "end": 124.45000000000005,
    "pitch": 61,
    "start": 124.22395833333326,
    "velocity": 83
  },
  {
    "duration": 0.21718750000013642,
    "end": 124.44635416666665,
    "pitch": 73,
    "start": 124.22916666666652,
    "velocity": 75
  },
  {
    "duration": 0.4281250000001364,
    "end": 124.77031250000005,
    "pitch": 56,
    "start": 124.34218749999991,
    "velocity": 67
  },
  {
    "duration": 0.5546875,
    "end": 125.00104166666665,
    "pitch": 73,
    "start": 124.44635416666665,
    "velocity": 74
  },
  {
    "duration": 0.551041666666606,
    "end": 125.00104166666665,
    "pitch": 61,
    "start": 124.45000000000005,
    "velocity": 78
  },
  {
    "duration": 0.3760416666666515,
    "end": 125.00104166666665,
    "pitch": 53,
    "start": 124.625,
    "velocity": 61
  },
  {
    "duration": 0.23072916666660603,
    "end": 125.00104166666665,
    "pitch": 68,
    "start": 124.77031250000005,
    "velocity": 80
  },
  {
    "duration": 0.23072916666660603,
    "end": 125.00104166666665,
    "pitch": 56,
    "start": 124.77031250000005,
    "velocity": 80
  },
  {
    "duration": 0.08802083333330302,
    "end": 125.00104166666665,
    "pitch": 50,
    "start": 124.91302083333335,
    "velocity": 62
  },
  {
    "duration": 0.24374999999986358,
    "end": 125.35416666666652,
    "pitch": 49,
    "start": 125.11041666666665,
    "velocity": 85
  },
  {
    "duration": 1.050520833333394,
    "end": 126.41093750000005,
    "pitch": 44,
    "start": 125.36041666666665,
    "velocity": 88
  },
  {
    "duration": 0.31666666666660603,
    "end": 125.83906249999995,
    "pitch": 53,
    "start": 125.52239583333335,
    "velocity": 71
  },
  {
    "duration": 0.7916666666667425,
    "end": 126.41093750000005,
    "pitch": 49,
    "start": 125.6192708333333,
    "velocity": 79
  },
  {
    "duration": 0.30885416666660603,
    "end": 126.04427083333326,
    "pitch": 56,
    "start": 125.73541666666665,
    "velocity": 79
  },
  {
    "duration": 0.571875000000091,
    "end": 126.41093750000005,
    "pitch": 53,
    "start": 125.83906249999995,
    "velocity": 61
  },
  {
    "duration": 0.2848958333331666,
    "end": 126.23697916666652,
    "pitch": 61,
    "start": 125.95208333333335,
    "velocity": 81
  },
  {
    "duration": 0.36666666666678793,
    "end": 126.41093750000005,
    "pitch": 56,
    "start": 126.04427083333326,
    "velocity": 78
  },
  {
    "duration": 0.24687500000004547,
    "end": 126.41093750000005,
    "pitch": 65,
    "start": 126.1640625,
    "velocity": 92
  },
  {
    "duration": 0.1739583333335304,
    "end": 126.41093750000005,
    "pitch": 61,
    "start": 126.23697916666652,
    "velocity": 70
  },
  {
    "duration": 0.18177083333330302,
    "end": 127.1151041666667,
    "pitch": 87,
    "start": 126.9333333333334,
    "velocity": 76
  },
  {
    "duration": 0.1942708333333485,
    "end": 127.21822916666656,
    "pitch": 89,
    "start": 127.02395833333321,
    "velocity": 71
  },
  {
    "duration": 0.957291666666606,
    "end": 127.9942708333333,
    "pitch": 101,
    "start": 127.0369791666667,
    "velocity": 75
  },
  {
    "duration": 0.18489583333325754,
    "end": 127.29999999999995,
    "pitch": 87,
    "start": 127.1151041666667,
    "velocity": 75
  },
  {
    "duration": 0.7697916666668334,
    "end": 127.9880208333334,
    "pitch": 89,
    "start": 127.21822916666656,
    "velocity": 65
  },
  {
    "duration": 0.28645833333325754,
    "end": 127.58645833333321,
    "pitch": 87,
    "start": 127.29999999999995,
    "velocity": 20
  },
  {
    "duration": 0.3177083333334849,
    "end": 127.9041666666667,
    "pitch": 87,
    "start": 127.58645833333321,
    "velocity": 85
  },
  {
    "duration": 0.39895833333321207,
    "end": 128.3031249999999,
    "pitch": 87,
    "start": 127.9041666666667,
    "velocity": 47
  },
  {
    "duration": 0.4031249999998181,
    "end": 128.3911458333332,
    "pitch": 89,
    "start": 127.9880208333334,
    "velocity": 79
  },
  {
    "duration": 0.40572916666656056,
    "end": 128.39999999999986,
    "pitch": 101,
    "start": 127.9942708333333,
    "velocity": 86
  },
  {
    "duration": 0.1651041666666515,
    "end": 128.46822916666656,
    "pitch": 87,
    "start": 128.3031249999999,
    "velocity": 79
  },
  {
    "duration": 0.1838541666668334,
    "end": 128.57500000000005,
    "pitch": 89,
    "start": 128.3911458333332,
    "velocity": 83
  },
  {
    "duration": 0.18229166666674246,
    "end": 128.5822916666666,
    "pitch": 101,
    "start": 128.39999999999986,
    "velocity": 89
  },
  {
    "duration": 0.13906250000013642,
    "end": 128.6072916666667,
    "pitch": 87,
    "start": 128.46822916666656,
    "velocity": 66
  },
  {
    "duration": 0.5203124999998181,
    "end": 129.09531249999986,
    "pitch": 89,
    "start": 128.57500000000005,
    "velocity": 81
  },
  {
    "duration": 0.514062499999909,
    "end": 129.09635416666652,
    "pitch": 101,
    "start": 128.5822916666666,
    "velocity": 72
  },
  {
    "duration": 0.3739583333333485,
    "end": 128.98125000000005,
    "pitch": 87,
    "start": 128.6072916666667,
    "velocity": 65
  },
  {
    "duration": 0.1921874999998181,
    "end": 129.17343749999986,
    "pitch": 87,
    "start": 128.98125000000005,
    "velocity": 95
  },
  {
    "duration": 0.203125,
    "end": 129.29843749999986,
    "pitch": 89,
    "start": 129.09531249999986,
    "velocity": 75
  },
  {
    "duration": 0.20781250000004547,
    "end": 129.30416666666656,
    "pitch": 101,
    "start": 129.09635416666652,
    "velocity": 93
  },
  {
    "duration": 0.1729166666666515,
    "end": 129.34635416666652,
    "pitch": 87,
    "start": 129.17343749999986,
    "velocity": 90
  },
  {
    "duration": 0.4515625000001364,
    "end": 129.75,
    "pitch": 89,
    "start": 129.29843749999986,
    "velocity": 86
  },
  {
    "duration": 0.44583333333343944,
    "end": 129.75,
    "pitch": 101,
    "start": 129.30416666666656,
    "velocity": 85
  },
  {
    "duration": 0.35885416666678793,
    "end": 129.7052083333333,
    "pitch": 87,
    "start": 129.34635416666652,
    "velocity": 66
  },
  {
    "duration": 0.32083333333321207,
    "end": 130.02604166666652,
    "pitch": 87,
    "start": 129.7052083333333,
    "velocity": 102
  },
  {
    "duration": 0.2708333333334849,
    "end": 130.15625,
    "pitch": 101,
    "start": 129.88541666666652,
    "velocity": 94
  },
  {
    "duration": 0.26145833333339397,
    "end": 130.14739583333335,
    "pitch": 89,
    "start": 129.88593749999995,
    "velocity": 81
  },
  {
    "duration": 0.3703125000001819,
    "end": 130.3963541666667,
    "pitch": 87,
    "start": 130.02604166666652,
    "velocity": 92
  },
  {
    "duration": 1.0640624999998636,
    "end": 131.2114583333332,
    "pitch": 89,
    "start": 130.14739583333335,
    "velocity": 84
  },
  {
    "duration": 1.055208333333212,
    "end": 131.2114583333332,
    "pitch": 101,
    "start": 130.15625,
    "velocity": 92
  },
  {
    "duration": 0.22499999999990905,
    "end": 130.5020833333333,
    "pitch": 85,
    "start": 130.2770833333334,
    "velocity": 94
  },
  {
    "duration": 0.24374999999986358,
    "end": 130.64010416666656,
    "pitch": 87,
    "start": 130.3963541666667,
    "velocity": 75
  },
  {
    "duration": 0.23854166666660603,
    "end": 130.63541666666652,
    "pitch": 99,
    "start": 130.3968749999999,
    "velocity": 75
  },
  {
    "duration": 0.709374999999909,
    "end": 131.2114583333332,
    "pitch": 85,
    "start": 130.5020833333333,
    "velocity": 90
  },
  {
    "duration": 0.576041666666697,
    "end": 131.2114583333332,
    "pitch": 99,
    "start": 130.63541666666652,
    "velocity": 79
  },
  {
    "duration": 0.509895833333303,
    "end": 131.14999999999986,
    "pitch": 87,
    "start": 130.64010416666656,
    "velocity": 75
  },
  {
    "duration": 0.3552083333331666,
    "end": 131.2114583333332,
    "pitch": 81,
    "start": 130.85625000000005,
    "velocity": 46
  },
  {
    "duration": 0.09322916666678793,
    "end": 131.24322916666665,
    "pitch": 87,
    "start": 131.14999999999986,
    "velocity": 99
  },
  {
    "duration": 0.24166666666656056,
    "end": 131.65104166666652,
    "pitch": 87,
    "start": 131.40937499999995,
    "velocity": 91
  },
  {
    "duration": 0.03854166666678793,
    "end": 131.6989583333334,
    "pitch": 85,
    "start": 131.6604166666666,
    "velocity": 51
  },
  {
    "duration": 0.3416666666664696,
    "end": 133.40104166666652,
    "pitch": 87,
    "start": 133.05937500000005,
    "velocity": 95
  },
  {
    "duration": 0.14322916666674246,
    "end": 133.54427083333326,
    "pitch": 87,
    "start": 133.40104166666652,
    "velocity": 78
  },
  {
    "duration": 0.19427083333312112,
    "end": 133.68229166666652,
    "pitch": 89,
    "start": 133.4880208333334,
    "velocity": 68
  },
  {
    "duration": 0.19114583333339397,
    "end": 133.68437500000005,
    "pitch": 101,
    "start": 133.49322916666665,
    "velocity": 70
  },
  {
    "duration": 0.4578125000000455,
    "end": 134.0020833333333,
    "pitch": 87,
    "start": 133.54427083333326,
    "velocity": 70
  },
  {
    "duration": 0.45260416666678793,
    "end": 134.1348958333333,
    "pitch": 89,
    "start": 133.68229166666652,
    "velocity": 60
  },
  {
    "duration": 0.4578124999998181,
    "end": 134.14218749999986,
    "pitch": 101,
    "start": 133.68437500000005,
    "velocity": 67
  },
  {
    "duration": 0.27291666666656056,
    "end": 134.27499999999986,
    "pitch": 87,
    "start": 134.0020833333333,
    "velocity": 89
  },
  {
    "duration": 0.263541666666697,
    "end": 134.3984375,
    "pitch": 89,
    "start": 134.1348958333333,
    "velocity": 68
  },
  {
    "duration": 0.2687500000001819,
    "end": 134.41093750000005,
    "pitch": 101,
    "start": 134.14218749999986,
    "velocity": 80
  },
  {
    "duration": 0.375,
    "end": 134.64999999999986,
    "pitch": 87,
    "start": 134.27499999999986,
    "velocity": 75
  },
  {
    "duration": 0.904687499999909,
    "end": 135.3031249999999,
    "pitch": 89,
    "start": 134.3984375,
    "velocity": 74
  },
  {
    "duration": 0.9093749999999545,
    "end": 135.3203125,
    "pitch": 101,
    "start": 134.41093750000005,
    "velocity": 71
  },
  {
    "duration": 0.21875,
    "end": 134.7270833333332,
    "pitch": 85,
    "start": 134.5083333333332,
    "velocity": 80
  },
  {
    "duration": 0.2218750000001819,
    "end": 134.8651041666667,
    "pitch": 99,
    "start": 134.64322916666652,
    "velocity": 67
  },
  {
    "duration": 0.234375,
    "end": 134.88437499999986,
    "pitch": 87,
    "start": 134.64999999999986,
    "velocity": 59
  },
  {
    "duration": 0.8619791666667425,
    "end": 135.58906249999995,
    "pitch": 85,
    "start": 134.7270833333332,
    "velocity": 74
  },
  {
    "duration": 0.833854166666697,
    "end": 135.6989583333334,
    "pitch": 99,
    "start": 134.8651041666667,
    "velocity": 76
  },
  {
    "duration": 0.31979166666678793,
    "end": 135.20416666666665,
    "pitch": 87,
    "start": 134.88437499999986,
    "velocity": 36
  },
  {
    "duration": 0.19322916666669698,
    "end": 135.39739583333335,
    "pitch": 87,
    "start": 135.20416666666665,
    "velocity": 75
  },
  {
    "duration": 0.19114583333339397,
    "end": 135.4942708333333,
    "pitch": 89,
    "start": 135.3031249999999,
    "velocity": 61
  },
  {
    "duration": 0.19479166666656056,
    "end": 135.51510416666656,
    "pitch": 101,
    "start": 135.3203125,
    "velocity": 68
  },
  {
    "duration": 0.2880208333333485,
    "end": 135.6854166666667,
    "pitch": 87,
    "start": 135.39739583333335,
    "velocity": 71
  },
  {
    "duration": 1.167708333333394,
    "end": 136.6619791666667,
    "pitch": 89,
    "start": 135.4942708333333,
    "velocity": 59
  },
  {
    "duration": 1.4203125000001364,
    "end": 136.9354166666667,
    "pitch": 101,
    "start": 135.51510416666656,
    "velocity": 28
  },
  {
    "duration": 0.18906250000009095,
    "end": 135.77812500000005,
    "pitch": 85,
    "start": 135.58906249999995,
    "velocity": 64
  },
  {
    "duration": 0.1911458333331666,
    "end": 135.87656249999986,
    "pitch": 87,
    "start": 135.6854166666667,
    "velocity": 70
  },
  {
    "duration": 0.17708333333325754,
    "end": 135.87604166666665,
    "pitch": 99,
    "start": 135.6989583333334,
    "velocity": 57
  },
  {
    "duration": 0.3072916666665151,
    "end": 136.08541666666656,
    "pitch": 85,
    "start": 135.77812500000005,
    "velocity": 67
  },
  {
    "duration": 1.0593750000000455,
    "end": 136.9354166666667,
    "pitch": 99,
    "start": 135.87604166666665,
    "velocity": 63
  },
  {
    "duration": 0.6473958333333485,
    "end": 136.5239583333332,
    "pitch": 87,
    "start": 135.87656249999986,
    "velocity": 62
  },
  {
    "duration": 0.8500000000001364,
    "end": 136.9354166666667,
    "pitch": 85,
    "start": 136.08541666666656,
    "velocity": 57
  },
  {
    "duration": 0.849479166666697,
    "end": 136.9354166666667,
    "pitch": 97,
    "start": 136.0859375,
    "velocity": 68
  },
  {
    "duration": 0.35208333333343944,
    "end": 136.87604166666665,
    "pitch": 87,
    "start": 136.5239583333332,
    "velocity": 78
  },
  {
    "duration": 0.2734375,
    "end": 136.9354166666667,
    "pitch": 89,
    "start": 136.6619791666667,
    "velocity": 46
  },
  {
    "duration": 0.3999999999998636,
    "end": 137.27604166666652,
    "pitch": 87,
    "start": 136.87604166666665,
    "velocity": 73
  },
  {
    "duration": 0.3546874999999545,
    "end": 137.34895833333326,
    "pitch": 89,
    "start": 136.9942708333333,
    "velocity": 79
  },
  {
    "duration": 0.35312500000009095,
    "end": 137.359375,
    "pitch": 101,
    "start": 137.0062499999999,
    "velocity": 80
  },
  {
    "duration": 0.19010416666674246,
    "end": 137.46614583333326,
    "pitch": 87,
    "start": 137.27604166666652,
    "velocity": 74
  },
  {
    "duration": 0.21822916666678793,
    "end": 137.56718750000005,
    "pitch": 89,
    "start": 137.34895833333326,
    "velocity": 82
  },
  {
    "duration": 1.283854166666515,
    "end": 138.64322916666652,
    "pitch": 101,
    "start": 137.359375,
    "velocity": 81
  },
  {
    "duration": 0.3078124999999545,
    "end": 137.7739583333332,
    "pitch": 87,
    "start": 137.46614583333326,
    "velocity": 68
  },
  {
    "duration": 1.0760416666664696,
    "end": 138.64322916666652,
    "pitch": 89,
    "start": 137.56718750000005,
    "velocity": 55
  },
  {
    "duration": 0.20104166666669698,
    "end": 137.8671875,
    "pitch": 85,
    "start": 137.6661458333333,
    "velocity": 68
  },
  {
    "duration": 0.1989583333331666,
    "end": 137.97031249999986,
    "pitch": 99,
    "start": 137.7713541666667,
    "velocity": 69
  },
  {
    "duration": 0.20104166666669698,
    "end": 137.9749999999999,
    "pitch": 87,
    "start": 137.7739583333332,
    "velocity": 69
  },
  {
    "duration": 0.3192708333333485,
    "end": 138.18645833333335,
    "pitch": 85,
    "start": 137.8671875,
    "velocity": 68
  },
  {
    "duration": 0.6729166666666515,
    "end": 138.64322916666652,
    "pitch": 99,
    "start": 137.97031249999986,
    "velocity": 71
  },
  {
    "duration": 0.6390625000001364,
    "end": 138.61406250000005,
    "pitch": 87,
    "start": 137.9749999999999,
    "velocity": 61
  },
  {
    "duration": 0.203125,
    "end": 138.2953124999999,
    "pitch": 80,
    "start": 138.0921874999999,
    "velocity": 44
  },
  {
    "duration": 0.4567708333331666,
    "end": 138.64322916666652,
    "pitch": 85,
    "start": 138.18645833333335,
    "velocity": 63
  },
  {
    "duration": 0.4499999999998181,
    "end": 138.64322916666652,
    "pitch": 97,
    "start": 138.1932291666667,
    "velocity": 64
  },
  {
    "duration": 0.34791666666660603,
    "end": 138.64322916666652,
    "pitch": 80,
    "start": 138.2953124999999,
    "velocity": 70
  },
  {
    "duration": 0.09322916666656056,
    "end": 138.7072916666666,
    "pitch": 87,
    "start": 138.61406250000005,
    "velocity": 80
  },
  {
    "duration": 1.15625,
    "end": 139.9723958333334,
    "pitch": 87,
    "start": 138.8161458333334,
    "velocity": 69
  },
  {
    "duration": 0.20677083333339397,
    "end": 139.2401041666667,
    "pitch": 85,
    "start": 139.0333333333333,
    "velocity": 78
  },
  {
    "duration": 0.732291666666697,
    "end": 139.9723958333334,
    "pitch": 85,
    "start": 139.2401041666667,
    "velocity": 75
  },
  {
    "duration": 0.19687499999986358,
    "end": 139.64322916666652,
    "pitch": 80,
    "start": 139.44635416666665,
    "velocity": 83
  },
  {
    "duration": 0.3291666666668789,
    "end": 139.9723958333334,
    "pitch": 80,
    "start": 139.64322916666652,
    "velocity": 76
  },
  {
    "duration": 0.4890625000000455,
    "end": 140.3890624999999,
    "pitch": 76,
    "start": 139.89999999999986,
    "velocity": 75
  },
  {
    "duration": 0.13020833333348492,
    "end": 140.484375,
    "pitch": 77,
    "start": 140.35416666666652,
    "velocity": 80
  },
  {
    "duration": 0.326041666666697,
    "end": 141.5062499999999,
    "pitch": 87,
    "start": 141.1802083333332,
    "velocity": 84
  },
  {
    "duration": 0.6687500000000455,
    "end": 142.17499999999995,
    "pitch": 87,
    "start": 141.5062499999999,
    "velocity": 85
  },
  {
    "duration": 0.25937500000009095,
    "end": 142.43437500000005,
    "pitch": 87,
    "start": 142.17499999999995,
    "velocity": 68
  },
  {
    "duration": 2.4276041666664696,
    "end": 144.86197916666652,
    "pitch": 87,
    "start": 142.43437500000005,
    "velocity": 65
  },
  {
    "duration": 0.2380208333331666,
    "end": 142.92135416666656,
    "pitch": 85,
    "start": 142.6833333333334,
    "velocity": 85
  },
  {
    "duration": 1.9406249999999545,
    "end": 144.86197916666652,
    "pitch": 85,
    "start": 142.92135416666656,
    "velocity": 75
  },
  {
    "duration": 0.26614583333343944,
    "end": 143.43645833333335,
    "pitch": 80,
    "start": 143.1703124999999,
    "velocity": 85
  },
  {
    "duration": 1.4255208333331666,
    "end": 144.86197916666652,
    "pitch": 80,
    "start": 143.43645833333335,
    "velocity": 81
  },
  {
    "duration": 0.21979166666687888,
    "end": 144.9489583333334,
    "pitch": 76,
    "start": 144.72916666666652,
    "velocity": 83
  },
  {
    "duration": 0.8901041666665606,
    "end": 145.92135416666656,
    "pitch": 77,
    "start": 145.03125,
    "velocity": 86
  },
  {
    "duration": 1.3718750000000455,
    "end": 147.2932291666666,
    "pitch": 77,
    "start": 145.92135416666656,
    "velocity": 68
  },
  {
    "duration": 1.0718749999998636,
    "end": 147.51302083333326,
    "pitch": 80,
    "start": 146.4411458333334,
    "velocity": 85
  },
  {
    "duration": 1.0536458333333485,
    "end": 147.49531249999995,
    "pitch": 92,
    "start": 146.4416666666666,
    "velocity": 95
  },
  {
    "duration": 0.5989583333332575,
    "end": 147.89218749999986,
    "pitch": 77,
    "start": 147.2932291666666,
    "velocity": 72
  },
  {
    "duration": 0.39687499999990905,
    "end": 147.89218749999986,
    "pitch": 92,
    "start": 147.49531249999995,
    "velocity": 57
  },
  {
    "duration": 0.37916666666660603,
    "end": 147.89218749999986,
    "pitch": 80,
    "start": 147.51302083333326,
    "velocity": 55
  },
  {
    "duration": 1.0541666666665606,
    "end": 148.88541666666652,
    "pitch": 73,
    "start": 147.83124999999995,
    "velocity": 94
  },
  {
    "duration": 0.550520833333394,
    "end": 149.4359374999999,
    "pitch": 73,
    "start": 148.88541666666652,
    "velocity": 88
  },
  {
    "duration": 0.21249999999986358,
    "end": 149.64583333333326,
    "pitch": 75,
    "start": 149.4333333333334,
    "velocity": 73
  },
  {
    "duration": 1.1375000000000455,
    "end": 150.7833333333333,
    "pitch": 75,
    "start": 149.64583333333326,
    "velocity": 63
  },
  {
    "duration": 0.19895833333339397,
    "end": 150.04427083333326,
    "pitch": 73,
    "start": 149.84531249999986,
    "velocity": 80
  },
  {
    "duration": 0.7390625000000455,
    "end": 150.7833333333333,
    "pitch": 73,
    "start": 150.04427083333326,
    "velocity": 80
  },
  {
    "duration": 0.19479166666678793,
    "end": 150.4552083333333,
    "pitch": 68,
    "start": 150.26041666666652,
    "velocity": 80
  },
  {
    "duration": 0.328125,
    "end": 150.7833333333333,
    "pitch": 68,
    "start": 150.4552083333333,
    "velocity": 86
  },
  {
    "duration": 0.9791666666667425,
    "end": 151.6932291666667,
    "pitch": 65,
    "start": 150.71406249999995,
    "velocity": 91
  },
  {
    "duration": 1.0421874999999545,
    "end": 152.73541666666665,
    "pitch": 65,
    "start": 151.6932291666667,
    "velocity": 80
  },
  {
    "duration": 0.3859374999999545,
    "end": 153.1213541666666,
    "pitch": 65,
    "start": 152.73541666666665,
    "velocity": 82
  },
  {
    "duration": 0.845833333333303,
    "end": 153.8770833333333,
    "pitch": 61,
    "start": 153.03125,
    "velocity": 85
  },
  {
    "duration": 0.10416666666674246,
    "end": 153.89947916666665,
    "pitch": 87,
    "start": 153.7953124999999,
    "velocity": 96
  },
  {
    "duration": 0.1989583333331666,
    "end": 154.11093749999986,
    "pitch": 89,
    "start": 153.9119791666667,
    "velocity": 73
  },
  {
    "duration": 0.19687500000009095,
    "end": 154.11822916666665,
    "pitch": 101,
    "start": 153.92135416666656,
    "velocity": 80
  },
  {
    "duration": 0.5166666666666515,
    "end": 154.51302083333326,
    "pitch": 87,
    "start": 153.9963541666666,
    "velocity": 78
  },
  {
    "duration": 0.5302083333333485,
    "end": 154.6411458333332,
    "pitch": 89,
    "start": 154.11093749999986,
    "velocity": 63
  },
  {
    "duration": 0.5359375000000455,
    "end": 154.6541666666667,
    "pitch": 101,
    "start": 154.11822916666665,
    "velocity": 58
  },
  {
    "duration": 1.4484374999999545,
    "end": 155.9614583333332,
    "pitch": 87,
    "start": 154.51302083333326,
    "velocity": 88
  },
  {
    "duration": 1.3203125,
    "end": 155.9614583333332,
    "pitch": 89,
    "start": 154.6411458333332,
    "velocity": 71
  },
  {
    "duration": 1.307291666666515,
    "end": 155.9614583333332,
    "pitch": 101,
    "start": 154.6541666666667,
    "velocity": 70
  },
  {
    "duration": 1.342187499999909,
    "end": 157.30624999999986,
    "pitch": 89,
    "start": 155.96406249999995,
    "velocity": 104
  },
  {
    "duration": 0.09791666666660603,
    "end": 156.06510416666652,
    "pitch": 25,
    "start": 155.9671874999999,
    "velocity": 96
  },
  {
    "duration": 1.3390624999999545,
    "end": 157.30624999999986,
    "pitch": 97,
    "start": 155.9671874999999,
    "velocity": 102
  },
  {
    "duration": 1.338020833333303,
    "end": 157.30624999999986,
    "pitch": 37,
    "start": 155.96822916666656,
    "velocity": 97
  },
  {
    "duration": 1.3359375,
    "end": 157.30624999999986,
    "pitch": 101,
    "start": 155.97031249999986,
    "velocity": 106
  },
  {
    "duration": 0.09270833333312112,
    "end": 157.40104166666652,
    "pitch": 25,
    "start": 157.3083333333334,
    "velocity": 96
  },
  {
    "duration": 0.13541666666674246,
    "end": 157.44427083333335,
    "pitch": 37,
    "start": 157.3088541666666,
    "velocity": 96
  },
  {
    "duration": 0.7260416666667879,
    "end": 158.03802083333335,
    "pitch": 89,
    "start": 157.31197916666656,
    "velocity": 109
  },
  {
    "duration": 1.5552083333334394,
    "end": 158.87031249999995,
    "pitch": 97,
    "start": 157.31510416666652,
    "velocity": 102
  },
  {
    "duration": 0.722916666666606,
    "end": 158.0411458333333,
    "pitch": 101,
    "start": 157.3182291666667,
    "velocity": 104
  },
  {
    "duration": 0.2020833333333485,
    "end": 158.15729166666665,
    "pitch": 87,
    "start": 157.9552083333333,
    "velocity": 76
  },
  {
    "duration": 0.2098958333333485,
    "end": 158.2479166666667,
    "pitch": 89,
    "start": 158.03802083333335,
    "velocity": 81
  },
  {
    "duration": 0.23020833333339397,
    "end": 158.2713541666667,
    "pitch": 101,
    "start": 158.0411458333333,
    "velocity": 85
  },
  {
    "duration": 0.2958333333333485,
    "end": 158.453125,
    "pitch": 87,
    "start": 158.15729166666665,
    "velocity": 70
  },
  {
    "duration": 1.068229166666697,
    "end": 159.3161458333334,
    "pitch": 89,
    "start": 158.2479166666667,
    "velocity": 46
  },
  {
    "duration": 1.044791666666697,
    "end": 159.3161458333334,
    "pitch": 101,
    "start": 158.2713541666667,
    "velocity": 19
  },
  {
    "duration": 0.18229166666674246,
    "end": 158.53229166666665,
    "pitch": 85,
    "start": 158.3499999999999,
    "velocity": 76
  },
  {
    "duration": 0.18124999999986358,
    "end": 158.6333333333332,
    "pitch": 99,
    "start": 158.45208333333335,
    "velocity": 58
  },
  {
    "duration": 0.17604166666660603,
    "end": 158.6291666666666,
    "pitch": 87,
    "start": 158.453125,
    "velocity": 61
  },
  {
    "duration": 0.16197916666669698,
    "end": 158.69427083333335,
    "pitch": 85,
    "start": 158.53229166666665,
    "velocity": 75
  },
  {
    "duration": 0.6338541666666515,
    "end": 159.26302083333326,
    "pitch": 87,
    "start": 158.6291666666666,
    "velocity": 60
  },
  {
    "duration": 0.6828125000001819,
    "end": 159.3161458333334,
    "pitch": 99,
    "start": 158.6333333333332,
    "velocity": 56
  },
  {
    "duration": 0.14999999999986358,
    "end": 158.8442708333332,
    "pitch": 85,
    "start": 158.69427083333335,
    "velocity": 70
  },
  {
    "duration": 0.4718750000001819,
    "end": 159.3161458333334,
    "pitch": 85,
    "start": 158.8442708333332,
    "velocity": 60
  },
  {
    "duration": 0.44583333333343944,
    "end": 159.3161458333334,
    "pitch": 97,
    "start": 158.87031249999995,
    "velocity": 36
  },
  {
    "duration": 0.10729166666669698,
    "end": 159.37031249999995,
    "pitch": 87,
    "start": 159.26302083333326,
    "velocity": 63
  },
  {
    "duration": 0.5078125,
    "end": 159.86406250000005,
    "pitch": 89,
    "start": 159.35625000000005,
    "velocity": 82
  },
  {
    "duration": 0.5046875000000455,
    "end": 159.87812499999995,
    "pitch": 101,
    "start": 159.3734374999999,
    "velocity": 69
  },
  {
    "duration": 0.31979166666656056,
    "end": 159.77604166666652,
    "pitch": 87,
    "start": 159.45624999999995,
    "velocity": 75
  },
  {
    "duration": 0.1750000000001819,
    "end": 159.9510416666667,
    "pitch": 87,
    "start": 159.77604166666652,
    "velocity": 88
  },
  {
    "duration": 0.18697916666656056,
    "end": 160.0510416666666,
    "pitch": 89,
    "start": 159.86406250000005,
    "velocity": 76
  },
  {
    "duration": 1.076041666666697,
    "end": 160.95416666666665,
    "pitch": 101,
    "start": 159.87812499999995,
    "velocity": 71
  },
  {
    "duration": 0.2859374999998181,
    "end": 160.23697916666652,
    "pitch": 87,
    "start": 159.9510416666667,
    "velocity": 88
  },
  {
    "duration": 0.8854166666667425,
    "end": 160.93645833333335,
    "pitch": 89,
    "start": 160.0510416666666,
    "velocity": 58
  },
  {
    "duration": 0.19062499999995453,
    "end": 160.3203125,
    "pitch": 85,
    "start": 160.12968750000005,
    "velocity": 81
  },
  {
    "duration": 0.19010416666674246,
    "end": 160.42708333333326,
    "pitch": 87,
    "start": 160.23697916666652,
    "velocity": 75
  },
  {
    "duration": 0.17812499999990905,
    "end": 160.42916666666656,
    "pitch": 99,
    "start": 160.25104166666665,
    "velocity": 55
  },
  {
    "duration": 0.8796875000000455,
    "end": 161.20000000000005,
    "pitch": 85,
    "start": 160.3203125,
    "velocity": 78
  },
  {
    "duration": 0.404166666666697,
    "end": 160.83124999999995,
    "pitch": 87,
    "start": 160.42708333333326,
    "velocity": 61
  },
  {
    "duration": 0.8781249999999545,
    "end": 161.30729166666652,
    "pitch": 99,
    "start": 160.42916666666656,
    "velocity": 61
  },
  {
    "duration": 0.18593749999990905,
    "end": 161.01718749999986,
    "pitch": 87,
    "start": 160.83124999999995,
    "velocity": 82
  },
  {
    "duration": 0.18958333333330302,
    "end": 161.12604166666665,
    "pitch": 89,
    "start": 160.93645833333335,
    "velocity": 72
  },
  {
    "duration": 0.18697916666656056,
    "end": 161.1411458333332,
    "pitch": 101,
    "start": 160.95416666666665,
    "velocity": 61
  },
  {
    "duration": 0.28489583333339397,
    "end": 161.30208333333326,
    "pitch": 87,
    "start": 161.01718749999986,
    "velocity": 80
  },
  {
    "duration": 1.2859375000000455,
    "end": 162.4119791666667,
    "pitch": 89,
    "start": 161.12604166666665,
    "velocity": 63
  },
  {
    "duration": 1.270833333333485,
    "end": 162.4119791666667,
    "pitch": 101,
    "start": 161.1411458333332,
    "velocity": 37
  },
  {
    "duration": 0.19791666666651508,
    "end": 161.39791666666656,
    "pitch": 85,
    "start": 161.20000000000005,
    "velocity": 85
  },
  {
    "duration": 0.19583333333343944,
    "end": 161.4979166666667,
    "pitch": 87,
    "start": 161.30208333333326,
    "velocity": 83
  },
  {
    "duration": 0.18697916666678793,
    "end": 161.4942708333333,
    "pitch": 99,
    "start": 161.30729166666652,
    "velocity": 82
  },
  {
    "duration": 0.2942708333334849,
    "end": 161.69218750000005,
    "pitch": 85,
    "start": 161.39791666666656,
    "velocity": 80
  },
  {
    "duration": 0.917708333333394,
    "end": 162.4119791666667,
    "pitch": 99,
    "start": 161.4942708333333,
    "velocity": 78
  },
  {
    "duration": 0.9140625,
    "end": 162.4119791666667,
    "pitch": 87,
    "start": 161.4979166666667,
    "velocity": 71
  },
  {
    "duration": 0.18385416666660603,
    "end": 161.76093749999995,
    "pitch": 80,
    "start": 161.57708333333335,
    "velocity": 88
  },
  {
    "duration": 0.18020833333321207,
    "end": 161.87239583333326,
    "pitch": 85,
    "start": 161.69218750000005,
    "velocity": 83
  },
  {
    "duration": 0.17604166666660603,
    "end": 161.87239583333326,
    "pitch": 97,
    "start": 161.69635416666665,
    "velocity": 80
  },
  {
    "duration": 0.32447916666660603,
    "end": 162.08541666666656,
    "pitch": 80,
    "start": 161.76093749999995,
    "velocity": 87
  },
  {
    "duration": 0.5395833333334394,
    "end": 162.4119791666667,
    "pitch": 85,
    "start": 161.87239583333326,
    "velocity": 61
  },
  {
    "duration": 0.5395833333334394,
    "end": 162.4119791666667,
    "pitch": 97,
    "start": 161.87239583333326,
    "velocity": 51
  },
  {
    "duration": 0.4036458333334849,
    "end": 162.4119791666667,
    "pitch": 77,
    "start": 162.0083333333332,
    "velocity": 48
  },
  {
    "duration": 0.390625,
    "end": 162.4119791666667,
    "pitch": 76,
    "start": 162.0213541666667,
    "velocity": 32
  },
  {
    "duration": 0.3265625000001364,
    "end": 162.4119791666667,
    "pitch": 80,
    "start": 162.08541666666656,
    "velocity": 68
  },
  {
    "duration": 0.31406250000009095,
    "end": 162.4119791666667,
    "pitch": 92,
    "start": 162.0979166666666,
    "velocity": 47
  },
  {
    "duration": 0.20677083333339397,
    "end": 162.4119791666667,
    "pitch": 73,
    "start": 162.2052083333333,
    "velocity": 85
  },
  {
    "duration": 0.10104166666656056,
    "end": 162.50937499999986,
    "pitch": 75,
    "start": 162.4083333333333,
    "velocity": 94
  },
  {
    "duration": 0.1942708333333485,
    "end": 162.70416666666665,
    "pitch": 77,
    "start": 162.5098958333333,
    "velocity": 78
  },
  {
    "duration": 0.18489583333325754,
    "end": 162.7052083333333,
    "pitch": 89,
    "start": 162.52031250000005,
    "velocity": 70
  },
  {
    "duration": 0.2859374999998181,
    "end": 162.8989583333332,
    "pitch": 75,
    "start": 162.6130208333334,
    "velocity": 73
  },
  {
    "duration": 1.1062500000000455,
    "end": 163.8104166666667,
    "pitch": 77,
    "start": 162.70416666666665,
    "velocity": 73
  },
  {
    "duration": 1.105208333333394,
    "end": 163.8104166666667,
    "pitch": 89,
    "start": 162.7052083333333,
    "velocity": 63
  },
  {
    "duration": 0.1807291666666515,
    "end": 162.98593749999986,
    "pitch": 73,
    "start": 162.8052083333332,
    "velocity": 81
  },
  {
    "duration": 0.1864583333333485,
    "end": 163.08541666666656,
    "pitch": 75,
    "start": 162.8989583333332,
    "velocity": 73
  },
  {
    "duration": 0.18281249999995453,
    "end": 163.0901041666666,
    "pitch": 87,
    "start": 162.90729166666665,
    "velocity": 64
  },
  {
    "duration": 0.17135416666678793,
    "end": 163.15729166666665,
    "pitch": 73,
    "start": 162.98593749999986,
    "velocity": 82
  },
  {
    "duration": 0.7250000000001364,
    "end": 163.8104166666667,
    "pitch": 75,
    "start": 163.08541666666656,
    "velocity": 76
  },
  {
    "duration": 0.720312500000091,
    "end": 163.8104166666667,
    "pitch": 87,
    "start": 163.0901041666666,
    "velocity": 66
  },
  {
    "duration": 0.14999999999986358,
    "end": 163.30729166666652,
    "pitch": 73,
    "start": 163.15729166666665,
    "velocity": 56
  },
  {
    "duration": 0.3817708333333485,
    "end": 163.68906249999986,
    "pitch": 73,
    "start": 163.30729166666652,
    "velocity": 70
  },
  {
    "duration": 0.5010416666666515,
    "end": 163.8104166666667,
    "pitch": 85,
    "start": 163.30937500000005,
    "velocity": 73
  },
  {
    "duration": 0.13437500000009095,
    "end": 163.82343749999995,
    "pitch": 73,
    "start": 163.68906249999986,
    "velocity": 94
  },
  {
    "duration": 0.39791666666656056,
    "end": 164.35416666666652,
    "pitch": 75,
    "start": 163.95624999999995,
    "velocity": 94
  },
  {
    "duration": 0.34114583333325754,
    "end": 164.46041666666656,
    "pitch": 77,
    "start": 164.1192708333333,
    "velocity": 81
  },
  {
    "duration": 0.34010416666660603,
    "end": 164.46614583333326,
    "pitch": 89,
    "start": 164.12604166666665,
    "velocity": 76
  },
  {
    "duration": 0.18020833333343944,
    "end": 164.53437499999995,
    "pitch": 75,
    "start": 164.35416666666652,
    "velocity": 87
  },
  {
    "duration": 0.16197916666669698,
    "end": 164.62239583333326,
    "pitch": 77,
    "start": 164.46041666666656,
    "velocity": 71
  },
  {
    "duration": 0.16822916666660603,
    "end": 164.63437499999986,
    "pitch": 89,
    "start": 164.46614583333326,
    "velocity": 63
  },
  {
    "duration": 0.3078124999999545,
    "end": 164.8421874999999,
    "pitch": 75,
    "start": 164.53437499999995,
    "velocity": 83
  },
  {
    "duration": 1.3328125000000455,
    "end": 165.9552083333333,
    "pitch": 77,
    "start": 164.62239583333326,
    "velocity": 56
  },
  {
    "duration": 1.3208333333334394,
    "end": 165.9552083333333,
    "pitch": 89,
    "start": 164.63437499999986,
    "velocity": 23
  },
  {
    "duration": 0.1984375000001819,
    "end": 164.93437500000005,
    "pitch": 73,
    "start": 164.73593749999986,
    "velocity": 77
  },
  {
    "duration": 0.18385416666660603,
    "end": 165.02604166666652,
    "pitch": 87,
    "start": 164.8421874999999,
    "velocity": 64
  },
  {
    "duration": 0.19114583333339397,
    "end": 165.0333333333333,
    "pitch": 75,
    "start": 164.8421874999999,
    "velocity": 65
  },
  {
    "duration": 0.3015624999998181,
    "end": 165.23593749999986,
    "pitch": 73,
    "start": 164.93437500000005,
    "velocity": 80
  },
  {
    "duration": 0.9291666666667879,
    "end": 165.9552083333333,
    "pitch": 87,
    "start": 165.02604166666652,
    "velocity": 64
  },
  {
    "duration": 0.921875,
    "end": 165.9552083333333,
    "pitch": 75,
    "start": 165.0333333333333,
    "velocity": 60
  },
  {
    "duration": 0.18124999999986358,
    "end": 165.29635416666656,
    "pitch": 68,
    "start": 165.1151041666667,
    "velocity": 95
  },
  {
    "duration": 0.18333333333339397,
    "end": 165.41927083333326,
    "pitch": 73,
    "start": 165.23593749999986,
    "velocity": 83
  },
  {
    "duration": 0.18020833333321207,
    "end": 165.4182291666666,
    "pitch": 85,
    "start": 165.2380208333334,
    "velocity": 76
  },
  {
    "duration": 0.3057291666666515,
    "end": 165.6020833333332,
    "pitch": 68,
    "start": 165.29635416666656,
    "velocity": 93
  },
  {
    "duration": 0.536979166666697,
    "end": 165.9552083333333,
    "pitch": 85,
    "start": 165.4182291666666,
    "velocity": 59
  },
  {
    "duration": 0.5359375000000455,
    "end": 165.9552083333333,
    "pitch": 73,
    "start": 165.41927083333326,
    "velocity": 70
  },
  {
    "duration": 0.40364583333325754,
    "end": 165.9552083333333,
    "pitch": 65,
    "start": 165.55156250000005,
    "velocity": 90
  },
  {
    "duration": 0.35312500000009095,
    "end": 165.9552083333333,
    "pitch": 68,
    "start": 165.6020833333332,
    "velocity": 86
  },
  {
    "duration": 0.32395833333339397,
    "end": 165.9552083333333,
    "pitch": 80,
    "start": 165.6312499999999,
    "velocity": 31
  },
  {
    "duration": 0.21875,
    "end": 165.9552083333333,
    "pitch": 61,
    "start": 165.7364583333333,
    "velocity": 92
  },
  {
    "duration": 0.09687499999995453,
    "end": 166.01510416666656,
    "pitch": 63,
    "start": 165.9182291666666,
    "velocity": 95
  },
  {
    "duration": 0.19583333333321207,
    "end": 166.2171874999999,
    "pitch": 65,
    "start": 166.0213541666667,
    "velocity": 98
  },
  {
    "duration": 0.043750000000045475,
    "end": 166.078125,
    "pitch": 77,
    "start": 166.03437499999995,
    "velocity": 81
  },
  {
    "duration": 0.18802083333343944,
    "end": 166.3260416666667,
    "pitch": 63,
    "start": 166.13802083333326,
    "velocity": 76
  },
  {
    "duration": 0.5791666666666515,
    "end": 166.79635416666656,
    "pitch": 65,
    "start": 166.2171874999999,
    "velocity": 86
  },
  {
    "duration": 0.5619791666665606,
    "end": 166.79635416666656,
    "pitch": 77,
    "start": 166.234375,
    "velocity": 61
  },
  {
    "duration": 0.11614583333334849,
    "end": 166.44218750000005,
    "pitch": 63,
    "start": 166.3260416666667,
    "velocity": 57
  },
  {
    "duration": 0.1598958333331666,
    "end": 166.52499999999986,
    "pitch": 61,
    "start": 166.3651041666667,
    "velocity": 63
  },
  {
    "duration": 0.22395833333348492,
    "end": 166.6520833333334,
    "pitch": 75,
    "start": 166.4281249999999,
    "velocity": 75
  },
  {
    "duration": 0.22395833333325754,
    "end": 166.6661458333333,
    "pitch": 63,
    "start": 166.44218750000005,
    "velocity": 78
  },
  {
    "duration": 0.271354166666697,
    "end": 166.79635416666656,
    "pitch": 61,
    "start": 166.52499999999986,
    "velocity": 78
  },
  {
    "duration": 0.1442708333331666,
    "end": 166.79635416666656,
    "pitch": 75,
    "start": 166.6520833333334,
    "velocity": 68
  },
  {
    "duration": 0.13020833333325754,
    "end": 166.79635416666656,
    "pitch": 63,
    "start": 166.6661458333333,
    "velocity": 62
  },
  {
    "duration": 0.058333333333393966,
    "end": 166.8572916666667,
    "pitch": 57,
    "start": 166.7989583333333,
    "velocity": 43
  },
  {
    "duration": 0.21875,
    "end": 167.0822916666666,
    "pitch": 61,
    "start": 166.8635416666666,
    "velocity": 83
  },
  {
    "duration": 0.21666666666669698,
    "end": 167.0859375,
    "pitch": 73,
    "start": 166.8692708333333,
    "velocity": 75
  },
  {
    "duration": 0.33177083333339397,
    "end": 167.2911458333333,
    "pitch": 56,
    "start": 166.9593749999999,
    "velocity": 88
  },
  {
    "duration": 0.3760416666666515,
    "end": 167.45833333333326,
    "pitch": 61,
    "start": 167.0822916666666,
    "velocity": 79
  },
  {
    "duration": 0.37239583333325754,
    "end": 167.45833333333326,
    "pitch": 73,
    "start": 167.0859375,
    "velocity": 70
  },
  {
    "duration": 0.25416666666660603,
    "end": 167.45833333333326,
    "pitch": 53,
    "start": 167.20416666666665,
    "velocity": 70
  },
  {
    "duration": 0.16718749999995453,
    "end": 167.45833333333326,
    "pitch": 56,
    "start": 167.2911458333333,
    "velocity": 83
  },
  {
    "duration": 0.15416666666669698,
    "end": 167.45833333333326,
    "pitch": 68,
    "start": 167.30416666666656,
    "velocity": 57
  },
  {
    "duration": 0.14895833333343944,
    "end": 167.53125,
    "pitch": 49,
    "start": 167.38229166666656,
    "velocity": 71
  },
  {
    "duration": 2.808333333333394,
    "end": 170.3244791666666,
    "pitch": 44,
    "start": 167.5161458333332,
    "velocity": 85
  },
  {
    "duration": 0.3390624999999545,
    "end": 167.9161458333333,
    "pitch": 53,
    "start": 167.57708333333335,
    "velocity": 67
  },
  {
    "duration": 2.6083333333333485,
    "end": 170.3244791666666,
    "pitch": 49,
    "start": 167.71614583333326,
    "velocity": 80
  },
  {
    "duration": 0.33072916666674246,
    "end": 168.1130208333334,
    "pitch": 56,
    "start": 167.78229166666665,
    "velocity": 88
  },
  {
    "duration": 2.408333333333303,
    "end": 170.3244791666666,
    "pitch": 53,
    "start": 167.9161458333333,
    "velocity": 67
  },
  {
    "duration": 0.30104166666660603,
    "end": 168.30729166666652,
    "pitch": 61,
    "start": 168.0062499999999,
    "velocity": 94
  },
  {
    "duration": 2.211458333333212,
    "end": 170.3244791666666,
    "pitch": 56,
    "start": 168.1130208333334,
    "velocity": 82
  },
  {
    "duration": 0.306770833333303,
    "end": 168.5119791666666,
    "pitch": 65,
    "start": 168.2052083333333,
    "velocity": 101
  },
  {
    "duration": 2.017187500000091,
    "end": 170.3244791666666,
    "pitch": 61,
    "start": 168.30729166666652,
    "velocity": 83
  },
  {
    "duration": 0.2854166666668334,
    "end": 168.68437500000005,
    "pitch": 68,
    "start": 168.3989583333332,
    "velocity": 100
  },
  {
    "duration": 1.8125,
    "end": 170.3244791666666,
    "pitch": 65,
    "start": 168.5119791666666,
    "velocity": 79
  },
  {
    "duration": 1.7020833333333485,
    "end": 170.3244791666666,
    "pitch": 74,
    "start": 168.62239583333326,
    "velocity": 74
  },
  {
    "duration": 1.6401041666665606,
    "end": 170.3244791666666,
    "pitch": 68,
    "start": 168.68437500000005,
    "velocity": 84
  },
  {
    "duration": 0.29322916666660603,
    "end": 169.08124999999995,
    "pitch": 77,
    "start": 168.78802083333335,
    "velocity": 88
  },
  {
    "duration": 1.4463541666666515,
    "end": 170.3244791666666,
    "pitch": 73,
    "start": 168.87812499999995,
    "velocity": 79
  },
  {
    "duration": 0.283333333333303,
    "end": 169.2562499999999,
    "pitch": 80,
    "start": 168.9729166666666,
    "velocity": 92
  },
  {
    "duration": 1.2432291666666515,
    "end": 170.3244791666666,
    "pitch": 77,
    "start": 169.08124999999995,
    "velocity": 65
  },
  {
    "duration": 0.2937500000000455,
    "end": 169.46406249999995,
    "pitch": 85,
    "start": 169.1703124999999,
    "velocity": 93
  },
  {
    "duration": 1.068229166666697,
    "end": 170.3244791666666,
    "pitch": 80,
    "start": 169.2562499999999,
    "velocity": 78
  },
  {
    "duration": 0.291145833333303,
    "end": 169.65625,
    "pitch": 89,
    "start": 169.3651041666667,
    "velocity": 94
  },
  {
    "duration": 0.8604166666666515,
    "end": 170.3244791666666,
    "pitch": 85,
    "start": 169.46406249999995,
    "velocity": 73
  },
  {
    "duration": 0.271354166666697,
    "end": 169.80937500000005,
    "pitch": 92,
    "start": 169.53802083333335,
    "velocity": 94
  },
  {
    "duration": 0.668229166666606,
    "end": 170.3244791666666,
    "pitch": 89,
    "start": 169.65625,
    "velocity": 65
  },
  {
    "duration": 0.5770833333333485,
    "end": 170.3244791666666,
    "pitch": 96,
    "start": 169.74739583333326,
    "velocity": 63
  },
  {
    "duration": 0.5151041666665606,
    "end": 170.3244791666666,
    "pitch": 92,
    "start": 169.80937500000005,
    "velocity": 86
  },
  {
    "duration": 0.388541666666697,
    "end": 170.3244791666666,
    "pitch": 100,
    "start": 169.9359374999999,
    "velocity": 75
  },
  {
    "duration": 0.3875000000000455,
    "end": 170.3244791666666,
    "pitch": 101,
    "start": 169.93697916666656,
    "velocity": 85
  },
  {
    "duration": 0.29739583333321207,
    "end": 170.3244791666666,
    "pitch": 97,
    "start": 170.0270833333334,
    "velocity": 99
  },
  {
    "duration": 0.18020833333321207,
    "end": 170.3244791666666,
    "pitch": 104,
    "start": 170.1442708333334,
    "velocity": 113
  },
  {
    "duration": 0.2197916666666515,
    "end": 171.4140625,
    "pitch": 49,
    "start": 171.19427083333335,
    "velocity": 89
  },
  {
    "duration": 0.18177083333330302,
    "end": 171.56406249999986,
    "pitch": 44,
    "start": 171.38229166666656,
    "velocity": 92
  },
  {
    "duration": 0.3239583333331666,
    "end": 171.97031249999986,
    "pitch": 49,
    "start": 171.6463541666667,
    "velocity": 81
  },
  {
    "duration": 0.534895833333394,
    "end": 172.3010416666666,
    "pitch": 44,
    "start": 171.7661458333332,
    "velocity": 84
  },
  {
    "duration": 0.46822916666656056,
    "end": 172.3010416666666,
    "pitch": 53,
    "start": 171.83281250000005,
    "velocity": 54
  },
  {
    "duration": 0.31406250000009095,
    "end": 172.28437499999995,
    "pitch": 49,
    "start": 171.97031249999986,
    "velocity": 77
  },
  {
    "duration": 0.5578124999999545,
    "end": 172.8421874999999,
    "pitch": 49,
    "start": 172.28437499999995,
    "velocity": 86
  },
  {
    "duration": 0.832291666666606,
    "end": 173.3302083333333,
    "pitch": 44,
    "start": 172.4979166666667,
    "velocity": 83
  },
  {
    "duration": 0.39791666666678793,
    "end": 173.07708333333335,
    "pitch": 53,
    "start": 172.67916666666656,
    "velocity": 67
  },
  {
    "duration": 0.48802083333339397,
    "end": 173.3302083333333,
    "pitch": 49,
    "start": 172.8421874999999,
    "velocity": 75
  },
  {
    "duration": 0.38906249999990905,
    "end": 173.3302083333333,
    "pitch": 56,
    "start": 172.9411458333334,
    "velocity": 79
  },
  {
    "duration": 0.2531249999999545,
    "end": 173.3302083333333,
    "pitch": 53,
    "start": 173.07708333333335,
    "velocity": 64
  },
  {
    "duration": 0.5619791666665606,
    "end": 173.9281249999999,
    "pitch": 49,
    "start": 173.36614583333335,
    "velocity": 79
  },
  {
    "duration": 0.47604166666678793,
    "end": 173.9901041666667,
    "pitch": 53,
    "start": 173.5140624999999,
    "velocity": 40
  },
  {
    "duration": 0.416145833333303,
    "end": 173.9901041666667,
    "pitch": 44,
    "start": 173.5739583333334,
    "velocity": 71
  },
  {
    "duration": 0.5968749999999545,
    "end": 174.52499999999986,
    "pitch": 49,
    "start": 173.9281249999999,
    "velocity": 76
  },
  {
    "duration": 0.5770833333333485,
    "end": 174.734375,
    "pitch": 53,
    "start": 174.15729166666665,
    "velocity": 17
  },
  {
    "duration": 0.40989583333339397,
    "end": 174.6640625,
    "pitch": 44,
    "start": 174.2541666666666,
    "velocity": 73
  },
  {
    "duration": 0.558333333333394,
    "end": 175.08333333333326,
    "pitch": 49,
    "start": 174.52499999999986,
    "velocity": 71
  },
  {
    "duration": 0.463020833333303,
    "end": 175.1270833333333,
    "pitch": 44,
    "start": 174.6640625,
    "velocity": 75
  },
  {
    "duration": 0.392708333333303,
    "end": 175.1270833333333,
    "pitch": 53,
    "start": 174.734375,
    "velocity": 52
  },
  {
    "duration": 0.6317708333333485,
    "end": 175.7151041666666,
    "pitch": 49,
    "start": 175.08333333333326,
    "velocity": 77
  },
  {
    "duration": 0.8932291666667425,
    "end": 176.29010416666665,
    "pitch": 44,
    "start": 175.3968749999999,
    "velocity": 77
  },
  {
    "duration": 0.3562500000000455,
    "end": 175.9473958333333,
    "pitch": 53,
    "start": 175.59114583333326,
    "velocity": 52
  },
  {
    "duration": 0.536979166666697,
    "end": 176.2520833333333,
    "pitch": 49,
    "start": 175.7151041666666,
    "velocity": 72
  },
  {
    "duration": 0.466666666666697,
    "end": 176.29010416666665,
    "pitch": 56,
    "start": 175.82343749999995,
    "velocity": 74
  },
  {
    "duration": 0.3427083333333485,
    "end": 176.29010416666665,
    "pitch": 53,
    "start": 175.9473958333333,
    "velocity": 61
  },
  {
    "duration": 0.609375,
    "end": 176.8614583333333,
    "pitch": 49,
    "start": 176.2520833333333,
    "velocity": 76
  },
  {
    "duration": 1.2119791666666515,
    "end": 177.60416666666652,
    "pitch": 53,
    "start": 176.39218749999986,
    "velocity": 45
  },
  {
    "duration": 0.5557291666666515,
    "end": 176.9921875,
    "pitch": 44,
    "start": 176.43645833333335,
    "velocity": 72
  },
  {
    "duration": 0.4874999999999545,
    "end": 177.34895833333326,
    "pitch": 49,
    "start": 176.8614583333333,
    "velocity": 79
  },
  {
    "duration": 0.451041666666697,
    "end": 177.4432291666667,
    "pitch": 44,
    "start": 176.9921875,
    "velocity": 86
  },
  {
    "duration": 0.3734375000001364,
    "end": 177.7223958333334,
    "pitch": 49,
    "start": 177.34895833333326,
    "velocity": 77
  },
  {
    "duration": 3.011979166666606,
    "end": 180.4552083333333,
    "pitch": 44,
    "start": 177.4432291666667,
    "velocity": 90
  },
  {
    "duration": 0.3312500000001819,
    "end": 177.9354166666667,
    "pitch": 53,
    "start": 177.60416666666652,
    "velocity": 64
  },
  {
    "duration": 2.732812499999909,
    "end": 180.4552083333333,
    "pitch": 49,
    "start": 177.7223958333334,
    "velocity": 82
  },
  {
    "duration": 0.32083333333321207,
    "end": 178.1369791666666,
    "pitch": 56,
    "start": 177.8161458333334,
    "velocity": 75
  },
  {
    "duration": 2.519791666666606,
    "end": 180.4552083333333,
    "pitch": 53,
    "start": 177.9354166666667,
    "velocity": 58
  },
  {
    "duration": 0.3239583333331666,
    "end": 178.3520833333332,
    "pitch": 61,
    "start": 178.02812500000005,
    "velocity": 75
  },
  {
    "duration": 2.318229166666697,
    "end": 180.4552083333333,
    "pitch": 56,
    "start": 178.1369791666666,
    "velocity": 78
  },
  {
    "duration": 0.3093749999998181,
    "end": 178.5473958333332,
    "pitch": 65,
    "start": 178.2380208333334,
    "velocity": 91
  },
  {
    "duration": 2.103125000000091,
    "end": 180.4552083333333,
    "pitch": 61,
    "start": 178.3520833333332,
    "velocity": 67
  },
  {
    "duration": 0.2999999999999545,
    "end": 178.7249999999999,
    "pitch": 68,
    "start": 178.42499999999995,
    "velocity": 86
  },
  {
    "duration": 1.907812500000091,
    "end": 180.4552083333333,
    "pitch": 65,
    "start": 178.5473958333332,
    "velocity": 48
  },
  {
    "duration": 0.2932291666668334,
    "end": 178.9354166666667,
    "pitch": 73,
    "start": 178.64218749999986,
    "velocity": 77
  },
  {
    "duration": 1.730208333333394,
    "end": 180.4552083333333,
    "pitch": 68,
    "start": 178.7249999999999,
    "velocity": 92
  },
  {
    "duration": 0.286979166666697,
    "end": 179.1369791666666,
    "pitch": 77,
    "start": 178.8499999999999,
    "velocity": 86
  },
  {
    "duration": 1.519791666666606,
    "end": 180.4552083333333,
    "pitch": 73,
    "start": 178.9354166666667,
    "velocity": 75
  },
  {
    "duration": 0.27604166666674246,
    "end": 179.3083333333334,
    "pitch": 80,
    "start": 179.03229166666665,
    "velocity": 90
  },
  {
    "duration": 1.318229166666697,
    "end": 180.4552083333333,
    "pitch": 77,
    "start": 179.1369791666666,
    "velocity": 54
  },
  {
    "duration": 0.3078124999999545,
    "end": 179.53020833333335,
    "pitch": 85,
    "start": 179.2223958333334,
    "velocity": 94
  },
  {
    "duration": 1.146874999999909,
    "end": 180.4552083333333,
    "pitch": 80,
    "start": 179.3083333333334,
    "velocity": 83
  },
  {
    "duration": 0.3020833333334849,
    "end": 179.7223958333334,
    "pitch": 89,
    "start": 179.4203124999999,
    "velocity": 94
  },
  {
    "duration": 0.9249999999999545,
    "end": 180.4552083333333,
    "pitch": 85,
    "start": 179.53020833333335,
    "velocity": 75
  },
  {
    "duration": 0.838020833333303,
    "end": 180.4552083333333,
    "pitch": 93,
    "start": 179.6171875,
    "velocity": 79
  },
  {
    "duration": 0.732812499999909,
    "end": 180.4552083333333,
    "pitch": 89,
    "start": 179.7223958333334,
    "velocity": 59
  },
  {
    "duration": 0.644791666666606,
    "end": 180.4552083333333,
    "pitch": 96,
    "start": 179.8104166666667,
    "velocity": 65
  },
  {
    "duration": 0.548958333333303,
    "end": 180.4552083333333,
    "pitch": 92,
    "start": 179.90625,
    "velocity": 78
  },
  {
    "duration": 0.44687500000009095,
    "end": 180.4552083333333,
    "pitch": 101,
    "start": 180.0083333333332,
    "velocity": 93
  },
  {
    "duration": 0.3270833333333485,
    "end": 180.4552083333333,
    "pitch": 97,
    "start": 180.12812499999995,
    "velocity": 96
  },
  {
    "duration": 0.23489583333343944,
    "end": 180.4552083333333,
    "pitch": 104,
    "start": 180.22031249999986,
    "velocity": 105
  },
  {
    "duration": 0.03854166666656056,
    "end": 181.0276041666666,
    "pitch": 87,
    "start": 180.98906250000005,
    "velocity": 70
  },
  {
    "duration": 0.18593749999990905,
    "end": 181.2583333333332,
    "pitch": 89,
    "start": 181.0723958333333,
    "velocity": 76
  },
  {
    "duration": 0.17604166666660603,
    "end": 181.25729166666656,
    "pitch": 101,
    "start": 181.08124999999995,
    "velocity": 72
  },
  {
    "duration": 0.30416666666678793,
    "end": 181.45416666666665,
    "pitch": 87,
    "start": 181.14999999999986,
    "velocity": 75
  },
  {
    "duration": 2.771354166666697,
    "end": 184.02864583333326,
    "pitch": 101,
    "start": 181.25729166666656,
    "velocity": 73
  },
  {
    "duration": 1.307812500000182,
    "end": 182.5661458333334,
    "pitch": 89,
    "start": 181.2583333333332,
    "velocity": 73
  },
  {
    "duration": 0.18697916666678793,
    "end": 181.53802083333335,
    "pitch": 85,
    "start": 181.35104166666656,
    "velocity": 80
  },
  {
    "duration": 0.17604166666660603,
    "end": 181.6291666666666,
    "pitch": 99,
    "start": 181.453125,
    "velocity": 70
  },
  {
    "duration": 0.17812499999990905,
    "end": 181.63229166666656,
    "pitch": 87,
    "start": 181.45416666666665,
    "velocity": 72
  },
  {
    "duration": 0.29427083333325754,
    "end": 181.8322916666666,
    "pitch": 85,
    "start": 181.53802083333335,
    "velocity": 88
  },
  {
    "duration": 2.3994791666666515,
    "end": 184.02864583333326,
    "pitch": 99,
    "start": 181.6291666666666,
    "velocity": 70
  },
  {
    "duration": 1.3187500000001364,
    "end": 182.9510416666667,
    "pitch": 87,
    "start": 181.63229166666656,
    "velocity": 61
  },
  {
    "duration": 0.16979166666669698,
    "end": 181.9140625,
    "pitch": 80,
    "start": 181.7442708333333,
    "velocity": 83
  },
  {
    "duration": 0.15885416666674246,
    "end": 181.99114583333335,
    "pitch": 85,
    "start": 181.8322916666666,
    "velocity": 69
  },
  {
    "duration": 0.15572916666678793,
    "end": 181.98906250000005,
    "pitch": 97,
    "start": 181.83333333333326,
    "velocity": 80
  },
  {
    "duration": 0.25416666666660603,
    "end": 182.1682291666666,
    "pitch": 80,
    "start": 181.9140625,
    "velocity": 83
  },
  {
    "duration": 2.039583333333212,
    "end": 184.02864583333326,
    "pitch": 97,
    "start": 181.98906250000005,
    "velocity": 70
  },
  {
    "duration": 1.3567708333332575,
    "end": 183.3479166666666,
    "pitch": 85,
    "start": 181.99114583333335,
    "velocity": 70
  },
  {
    "duration": 0.4562499999999545,
    "end": 182.55729166666652,
    "pitch": 77,
    "start": 182.10104166666656,
    "velocity": 71
  },
  {
    "duration": 1.5208333333332575,
    "end": 183.68906249999986,
    "pitch": 80,
    "start": 182.1682291666666,
    "velocity": 80
  },
  {
    "duration": 1.826562499999909,
    "end": 184.02864583333326,
    "pitch": 92,
    "start": 182.20208333333335,
    "velocity": 23
  },
  {
    "duration": 0.560937499999909,
    "end": 182.8499999999999,
    "pitch": 73,
    "start": 182.2890625,
    "velocity": 80
  },
  {
    "duration": 0.1942708333333485,
    "end": 182.66302083333335,
    "pitch": 75,
    "start": 182.46875,
    "velocity": 80
  },
  {
    "duration": 0.19114583333339397,
    "end": 182.7484374999999,
    "pitch": 77,
    "start": 182.55729166666652,
    "velocity": 83
  },
  {
    "duration": 0.18281249999995453,
    "end": 182.74895833333335,
    "pitch": 89,
    "start": 182.5661458333334,
    "velocity": 71
  },
  {
    "duration": 0.28541666666660603,
    "end": 182.94843749999995,
    "pitch": 75,
    "start": 182.66302083333335,
    "velocity": 76
  },
  {
    "duration": 1.2802083333333485,
    "end": 184.02864583333326,
    "pitch": 77,
    "start": 182.7484374999999,
    "velocity": 65
  },
  {
    "duration": 1.279687499999909,
    "end": 184.02864583333326,
    "pitch": 89,
    "start": 182.74895833333335,
    "velocity": 59
  },
  {
    "duration": 0.17239583333343944,
    "end": 183.02239583333335,
    "pitch": 73,
    "start": 182.8499999999999,
    "velocity": 73
  },
  {
    "duration": 0.1885416666666515,
    "end": 183.1369791666666,
    "pitch": 75,
    "start": 182.94843749999995,
    "velocity": 76
  },
  {
    "duration": 0.18802083333321207,
    "end": 183.1390624999999,
    "pitch": 87,
    "start": 182.9510416666667,
    "velocity": 73
  },
  {
    "duration": 0.326041666666697,
    "end": 183.34843750000005,
    "pitch": 73,
    "start": 183.02239583333335,
    "velocity": 73
  },
  {
    "duration": 0.8916666666666515,
    "end": 184.02864583333326,
    "pitch": 75,
    "start": 183.1369791666666,
    "velocity": 66
  },
  {
    "duration": 0.8895833333333485,
    "end": 184.02864583333326,
    "pitch": 87,
    "start": 183.1390624999999,
    "velocity": 65
  },
  {
    "duration": 0.6807291666666515,
    "end": 184.02864583333326,
    "pitch": 85,
    "start": 183.3479166666666,
    "velocity": 74
  },
  {
    "duration": 0.6802083333332121,
    "end": 184.02864583333326,
    "pitch": 73,
    "start": 183.34843750000005,
    "velocity": 77
  },
  {
    "duration": 0.27291666666656056,
    "end": 183.67916666666656,
    "pitch": 68,
    "start": 183.40625,
    "velocity": 77
  },
  {
    "duration": 0.4385416666666515,
    "end": 184.02864583333326,
    "pitch": 65,
    "start": 183.5901041666666,
    "velocity": 77
  },
  {
    "duration": 0.349479166666697,
    "end": 184.02864583333326,
    "pitch": 68,
    "start": 183.67916666666656,
    "velocity": 84
  },
  {
    "duration": 0.33958333333339397,
    "end": 184.02864583333326,
    "pitch": 80,
    "start": 183.68906249999986,
    "velocity": 50
  },
  {
    "duration": 0.23749999999995453,
    "end": 184.02864583333326,
    "pitch": 61,
    "start": 183.7911458333333,
    "velocity": 77
  },
  {
    "duration": 0.08906249999995453,
    "end": 184.06927083333335,
    "pitch": 63,
    "start": 183.9802083333334,
    "velocity": 93
  },
  {
    "duration": 0.19583333333343944,
    "end": 184.28020833333335,
    "pitch": 65,
    "start": 184.0843749999999,
    "velocity": 83
  },
  {
    "duration": 0.32291666666674246,
    "end": 184.50104166666665,
    "pitch": 63,
    "start": 184.1781249999999,
    "velocity": 68
  },
  {
    "duration": 1.193749999999909,
    "end": 185.47395833333326,
    "pitch": 65,
    "start": 184.28020833333335,
    "velocity": 81
  },
  {
    "duration": 1.1875,
    "end": 185.47395833333326,
    "pitch": 77,
    "start": 184.28645833333326,
    "velocity": 49
  },
  {
    "duration": 0.203125,
    "end": 184.57916666666665,
    "pitch": 61,
    "start": 184.37604166666665,
    "velocity": 80
  },
  {
    "duration": 0.20104166666669698,
    "end": 184.69427083333335,
    "pitch": 75,
    "start": 184.49322916666665,
    "velocity": 71
  },
  {
    "duration": 0.1953125,
    "end": 184.69635416666665,
    "pitch": 63,
    "start": 184.50104166666665,
    "velocity": 75
  },
  {
    "duration": 0.31093749999990905,
    "end": 184.89010416666656,
    "pitch": 61,
    "start": 184.57916666666665,
    "velocity": 73
  },
  {
    "duration": 0.779687499999909,
    "end": 185.47395833333326,
    "pitch": 75,
    "start": 184.69427083333335,
    "velocity": 56
  },
  {
    "duration": 0.777604166666606,
    "end": 185.47395833333326,
    "pitch": 63,
    "start": 184.69635416666665,
    "velocity": 74
  },
  {
    "duration": 0.2109375,
    "end": 184.97031249999986,
    "pitch": 56,
    "start": 184.75937499999986,
    "velocity": 78
  },
  {
    "duration": 0.18906250000009095,
    "end": 185.07916666666665,
    "pitch": 61,
    "start": 184.89010416666656,
    "velocity": 83
  },
  {
    "duration": 0.1807291666666515,
    "end": 185.078125,
    "pitch": 73,
    "start": 184.89739583333335,
    "velocity": 72
  },
  {
    "duration": 0.3098958333334849,
    "end": 185.28020833333335,
    "pitch": 56,
    "start": 184.97031249999986,
    "velocity": 74
  },
  {
    "duration": 0.39583333333325754,
    "end": 185.47395833333326,
    "pitch": 73,
    "start": 185.078125,
    "velocity": 57
  },
  {
    "duration": 0.39479166666660603,
    "end": 185.47395833333326,
    "pitch": 61,
    "start": 185.07916666666665,
    "velocity": 83
  },
  {
    "duration": 0.2781250000000455,
    "end": 185.47395833333326,
    "pitch": 53,
    "start": 185.1958333333332,
    "velocity": 59
  },
  {
    "duration": 0.19374999999990905,
    "end": 185.47395833333326,
    "pitch": 56,
    "start": 185.28020833333335,
    "velocity": 79
  },
  {
    "duration": 0.18281249999995453,
    "end": 185.47395833333326,
    "pitch": 68,
    "start": 185.2911458333333,
    "velocity": 61
  },
  {
    "duration": 0.15364583333325754,
    "end": 185.52604166666652,
    "pitch": 49,
    "start": 185.37239583333326,
    "velocity": 76
  },
  {
    "duration": 2.5072916666665606,
    "end": 188.03645833333326,
    "pitch": 44,
    "start": 185.5291666666667,
    "velocity": 83
  },
  {
    "duration": 0.3015625000000455,
    "end": 185.93697916666656,
    "pitch": 53,
    "start": 185.63541666666652,
    "velocity": 76
  },
  {
    "duration": 2.244791666666515,
    "end": 187.99374999999986,
    "pitch": 49,
    "start": 185.74895833333335,
    "velocity": 80
  },
  {
    "duration": 0.2953125000001364,
    "end": 186.11041666666665,
    "pitch": 56,
    "start": 185.81510416666652,
    "velocity": 88
  },
  {
    "duration": 2.099479166666697,
    "end": 188.03645833333326,
    "pitch": 53,
    "start": 185.93697916666656,
    "velocity": 61
  },
  {
    "duration": 0.28541666666660603,
    "end": 186.2973958333332,
    "pitch": 61,
    "start": 186.0119791666666,
    "velocity": 88
  },
  {
    "duration": 1.926041666666606,
    "end": 188.03645833333326,
    "pitch": 56,
    "start": 186.11041666666665,
    "velocity": 59
  },
  {
    "duration": 0.30989583333325754,
    "end": 186.50312499999995,
    "pitch": 65,
    "start": 186.1932291666667,
    "velocity": 94
  },
  {
    "duration": 1.7390625000000455,
    "end": 188.03645833333326,
    "pitch": 61,
    "start": 186.2973958333332,
    "velocity": 80
  },
  {
    "duration": 0.3348958333333485,
    "end": 186.70000000000005,
    "pitch": 68,
    "start": 186.3651041666667,
    "velocity": 98
  },
  {
    "duration": 1.533333333333303,
    "end": 188.03645833333326,
    "pitch": 65,
    "start": 186.50312499999995,
    "velocity": 43
  },
  {
    "duration": 1.4854166666666515,
    "end": 188.03645833333326,
    "pitch": 73,
    "start": 186.5510416666666,
    "velocity": 91
  },
  {
    "duration": 1.336458333333212,
    "end": 188.03645833333326,
    "pitch": 68,
    "start": 186.70000000000005,
    "velocity": 41
  },
  {
    "duration": 1.3140624999998636,
    "end": 188.03645833333326,
    "pitch": 70,
    "start": 186.7223958333334,
    "velocity": 13
  },
  {
    "duration": 1.271354166666697,
    "end": 188.03645833333326,
    "pitch": 79,
    "start": 186.76510416666656,
    "velocity": 76
  },
  {
    "duration": 1.107291666666697,
    "end": 188.03645833333326,
    "pitch": 74,
    "start": 186.92916666666656,
    "velocity": 41
  },
  {
    "duration": 1.0984375000000455,
    "end": 188.03645833333326,
    "pitch": 81,
    "start": 186.9380208333332,
    "velocity": 61
  },
  {
    "duration": 0.9624999999998636,
    "end": 188.03645833333326,
    "pitch": 77,
    "start": 187.0739583333334,
    "velocity": 68
  },
  {
    "duration": 0.8703124999999545,
    "end": 188.03645833333326,
    "pitch": 85,
    "start": 187.1661458333333,
    "velocity": 89
  },
  {
    "duration": 0.396354166666697,
    "end": 188.39010416666656,
    "pitch": 49,
    "start": 187.99374999999986,
    "velocity": 88
  },
  {
    "duration": 0.18385416666660603,
    "end": 188.4770833333332,
    "pitch": 44,
    "start": 188.2932291666666,
    "velocity": 85
  },
  {
    "duration": 0.3500000000001364,
    "end": 188.90520833333335,
    "pitch": 49,
    "start": 188.5552083333332,
    "velocity": 81
  },
  {
    "duration": 2.891145833333212,
    "end": 191.55208333333326,
    "pitch": 44,
    "start": 188.66093750000005,
    "velocity": 83
  },
  {
    "duration": 0.3218749999998636,
    "end": 189.0999999999999,
    "pitch": 53,
    "start": 188.77812500000005,
    "velocity": 71
  },
  {
    "duration": 2.646874999999909,
    "end": 191.55208333333326,
    "pitch": 49,
    "start": 188.90520833333335,
    "velocity": 77
  },
  {
    "duration": 0.3317708333331666,
    "end": 189.30416666666656,
    "pitch": 56,
    "start": 188.9723958333334,
    "velocity": 79
  },
  {
    "duration": 2.4520833333333485,
    "end": 191.55208333333326,
    "pitch": 53,
    "start": 189.0999999999999,
    "velocity": 64
  },
  {
    "duration": 0.34427083333343944,
    "end": 189.5192708333334,
    "pitch": 61,
    "start": 189.17499999999995,
    "velocity": 85
  },
  {
    "duration": 2.247916666666697,
    "end": 191.55208333333326,
    "pitch": 56,
    "start": 189.30416666666656,
    "velocity": 77
  },
  {
    "duration": 0.2999999999999545,
    "end": 189.70208333333335,
    "pitch": 65,
    "start": 189.4020833333334,
    "velocity": 90
  },
  {
    "duration": 2.0328124999998636,
    "end": 191.55208333333326,
    "pitch": 61,
    "start": 189.5192708333334,
    "velocity": 75
  },
  {
    "duration": 0.3093750000000455,
    "end": 189.87447916666656,
    "pitch": 68,
    "start": 189.56510416666652,
    "velocity": 91
  },
  {
    "duration": 1.849999999999909,
    "end": 191.55208333333326,
    "pitch": 65,
    "start": 189.70208333333335,
    "velocity": 71
  },
  {
    "duration": 0.2921874999999545,
    "end": 190.09322916666656,
    "pitch": 73,
    "start": 189.8010416666666,
    "velocity": 89
  },
  {
    "duration": 1.677604166666697,
    "end": 191.55208333333326,
    "pitch": 68,
    "start": 189.87447916666656,
    "velocity": 80
  },
  {
    "duration": 0.2890625,
    "end": 190.28229166666665,
    "pitch": 77,
    "start": 189.99322916666665,
    "velocity": 86
  },
  {
    "duration": 1.458854166666697,
    "end": 191.55208333333326,
    "pitch": 73,
    "start": 190.09322916666656,
    "velocity": 70
  },
  {
    "duration": 0.279166666666697,
    "end": 190.46041666666656,
    "pitch": 80,
    "start": 190.18124999999986,
    "velocity": 86
  },
  {
    "duration": 1.269791666666606,
    "end": 191.55208333333326,
    "pitch": 77,
    "start": 190.28229166666665,
    "velocity": 57
  },
  {
    "duration": 0.30104166666660603,
    "end": 190.67343749999986,
    "pitch": 85,
    "start": 190.37239583333326,
    "velocity": 92
  },
  {
    "duration": 1.091666666666697,
    "end": 191.55208333333326,
    "pitch": 80,
    "start": 190.46041666666656,
    "velocity": 82
  },
  {
    "duration": 0.28177083333343944,
    "end": 190.86614583333335,
    "pitch": 89,
    "start": 190.5843749999999,
    "velocity": 92
  },
  {
    "duration": 0.878645833333394,
    "end": 191.55208333333326,
    "pitch": 85,
    "start": 190.67343749999986,
    "velocity": 80
  },
  {
    "duration": 0.2843749999999545,
    "end": 191.04635416666656,
    "pitch": 92,
    "start": 190.7619791666666,
    "velocity": 92
  },
  {
    "duration": 0.685937499999909,
    "end": 191.55208333333326,
    "pitch": 89,
    "start": 190.86614583333335,
    "velocity": 68
  },
  {
    "duration": 0.3036458333333485,
    "end": 191.24895833333335,
    "pitch": 97,
    "start": 190.9453125,
    "velocity": 90
  },
  {
    "duration": 0.505729166666697,
    "end": 191.55208333333326,
    "pitch": 92,
    "start": 191.04635416666656,
    "velocity": 62
  },
  {
    "duration": 0.41666666666674246,
    "end": 191.55208333333326,
    "pitch": 101,
    "start": 191.13541666666652,
    "velocity": 105
  },
  {
    "duration": 0.30312499999990905,
    "end": 191.55208333333326,
    "pitch": 97,
    "start": 191.24895833333335,
    "velocity": 102
  },
  {
    "duration": 0.21510416666660603,
    "end": 191.55208333333326,
    "pitch": 104,
    "start": 191.33697916666665,
    "velocity": 113
  },
  {
    "duration": 1.1880208333334394,
    "end": 193.2833333333333,
    "pitch": 80,
    "start": 192.09531249999986,
    "velocity": 99
  },
  {
    "duration": 1.183333333333394,
    "end": 193.2833333333333,
    "pitch": 68,
    "start": 192.0999999999999,
    "velocity": 111
  },
  {
    "duration": 1.1822916666667425,
    "end": 193.2833333333333,
    "pitch": 66,
    "start": 192.10104166666656,
    "velocity": 87
  },
  {
    "duration": 1.171354166666788,
    "end": 193.2833333333333,
    "pitch": 56,
    "start": 192.11197916666652,
    "velocity": 71
  },
  {
    "duration": 1.1692708333332575,
    "end": 193.2833333333333,
    "pitch": 72,
    "start": 192.11406250000005,
    "velocity": 92
  },
  {
    "duration": 1.158333333333303,
    "end": 193.2833333333333,
    "pitch": 60,
    "start": 192.125,
    "velocity": 65
  },
  {
    "duration": 1.277083333333394,
    "end": 194.53125,
    "pitch": 85,
    "start": 193.2541666666666,
    "velocity": 103
  },
  {
    "duration": 1.9421875000000455,
    "end": 195.1973958333333,
    "pitch": 89,
    "start": 193.25520833333326,
    "velocity": 103
  },
  {
    "duration": 1.144791666666606,
    "end": 194.40104166666652,
    "pitch": 77,
    "start": 193.2562499999999,
    "velocity": 106
  },
  {
    "duration": 0.1598958333331666,
    "end": 193.42135416666656,
    "pitch": 25,
    "start": 193.2614583333334,
    "velocity": 100
  },
  {
    "duration": 1.9302083333334394,
    "end": 195.1973958333333,
    "pitch": 37,
    "start": 193.26718749999986,
    "velocity": 99
  },
  {
    "duration": 1.384375000000091,
    "end": 195.1973958333333,
    "pitch": 49,
    "start": 193.8130208333332,
    "velocity": 88
  },
  {
    "duration": 1.186979166666788,
    "end": 195.1973958333333,
    "pitch": 56,
    "start": 194.01041666666652,
    "velocity": 73
  },
  {
    "duration": 1.0713541666666515,
    "end": 195.1973958333333,
    "pitch": 61,
    "start": 194.12604166666665,
    "velocity": 90
  },
  {
    "duration": 1.0010416666666515,
    "end": 195.1973958333333,
    "pitch": 65,
    "start": 194.19635416666665,
    "velocity": 77
  },
  {
    "duration": 0.918229166666606,
    "end": 195.1973958333333,
    "pitch": 68,
    "start": 194.2791666666667,
    "velocity": 88
  },
  {
    "duration": 0.859375,
    "end": 195.1973958333333,
    "pitch": 73,
    "start": 194.3380208333333,
    "velocity": 89
  },
  {
    "duration": 0.7963541666667879,
    "end": 195.1973958333333,
    "pitch": 77,
    "start": 194.40104166666652,
    "velocity": 86
  },
  {
    "duration": 0.666145833333303,
    "end": 195.1973958333333,
    "pitch": 85,
    "start": 194.53125,
    "velocity": 118
  },
  {
    "duration": 1.3130208333334394,
    "end": 201.42656250000005,
    "pitch": 92,
    "start": 200.1135416666666,
    "velocity": 80
  },
  {
    "duration": 1.3072916666667425,
    "end": 201.42656250000005,
    "pitch": 80,
    "start": 200.1192708333333,
    "velocity": 75
  },
  {
    "duration": 1.3052083333334394,
    "end": 201.42656250000005,
    "pitch": 88,
    "start": 200.1213541666666,
    "velocity": 58
  },
  {
    "duration": 1.302083333333485,
    "end": 201.42656250000005,
    "pitch": 37,
    "start": 200.12447916666656,
    "velocity": 59
  },
  {
    "duration": 1.0770833333333485,
    "end": 201.42656250000005,
    "pitch": 44,
    "start": 200.3494791666667,
    "velocity": 40
  },
  {
    "duration": 0.8859375000001819,
    "end": 201.42656250000005,
    "pitch": 49,
    "start": 200.54062499999986,
    "velocity": 57
  },
  {
    "duration": 0.6921875000000455,
    "end": 201.42656250000005,
    "pitch": 52,
    "start": 200.734375,
    "velocity": 58
  },
  {
    "duration": 0.5078125,
    "end": 201.42656250000005,
    "pitch": 56,
    "start": 200.91875000000005,
    "velocity": 68
  },
  {
    "duration": 0.31406250000009095,
    "end": 201.42656250000005,
    "pitch": 61,
    "start": 201.11249999999995,
    "velocity": 71
  },
  {
    "duration": 1.1671874999999545,
    "end": 202.4536458333332,
    "pitch": 90,
    "start": 201.28645833333326,
    "velocity": 54
  },
  {
    "duration": 1.1218750000000455,
    "end": 202.42864583333335,
    "pitch": 85,
    "start": 201.3067708333333,
    "velocity": 73
  },
  {
    "duration": 1.1203124999999545,
    "end": 202.42864583333335,
    "pitch": 93,
    "start": 201.3083333333334,
    "velocity": 73
  },
  {
    "duration": 1.115104166666697,
    "end": 202.42864583333335,
    "pitch": 81,
    "start": 201.31354166666665,
    "velocity": 78
  },
  {
    "duration": 0.9171874999999545,
    "end": 202.42864583333335,
    "pitch": 54,
    "start": 201.5114583333334,
    "velocity": 71
  },
  {
    "duration": 0.7463541666668334,
    "end": 202.42864583333335,
    "pitch": 61,
    "start": 201.68229166666652,
    "velocity": 80
  },
  {
    "duration": 0.546875,
    "end": 202.42864583333335,
    "pitch": 66,
    "start": 201.88177083333335,
    "velocity": 73
  },
  {
    "duration": 0.369270833333303,
    "end": 202.42864583333335,
    "pitch": 69,
    "start": 202.05937500000005,
    "velocity": 52
  },
  {
    "duration": 0.18020833333343944,
    "end": 202.42864583333335,
    "pitch": 73,
    "start": 202.2484374999999,
    "velocity": 51
  },
  {
    "duration": 1.118750000000091,
    "end": 203.5333333333333,
    "pitch": 92,
    "start": 202.4145833333332,
    "velocity": 85
  },
  {
    "duration": 1.095833333333303,
    "end": 203.5333333333333,
    "pitch": 80,
    "start": 202.4375,
    "velocity": 62
  },
  {
    "duration": 1.0927083333333485,
    "end": 203.5333333333333,
    "pitch": 76,
    "start": 202.44062499999995,
    "velocity": 48
  },
  {
    "duration": 0.9286458333333485,
    "end": 203.5333333333333,
    "pitch": 73,
    "start": 202.60468749999995,
    "velocity": 65
  },
  {
    "duration": 0.08281250000004547,
    "end": 202.8734374999999,
    "pitch": 69,
    "start": 202.79062499999986,
    "velocity": 63
  },
  {
    "duration": 0.659895833333394,
    "end": 203.5333333333333,
    "pitch": 69,
    "start": 202.8734374999999,
    "velocity": 1
  },
  {
    "duration": 0.5786458333334394,
    "end": 203.5333333333333,
    "pitch": 90,
    "start": 202.95468749999986,
    "velocity": 69
  },
  {
    "duration": 0.5697916666667879,
    "end": 203.5333333333333,
    "pitch": 78,
    "start": 202.96354166666652,
    "velocity": 71
  },
  {
    "duration": 0.564583333333303,
    "end": 203.5333333333333,
    "pitch": 66,
    "start": 202.96875,
    "velocity": 73
  },
  {
    "duration": 0.390625,
    "end": 203.5333333333333,
    "pitch": 63,
    "start": 203.1427083333333,
    "velocity": 81
  },
  {
    "duration": 0.1885416666666515,
    "end": 203.5333333333333,
    "pitch": 61,
    "start": 203.34479166666665,
    "velocity": 76
  },
  {
    "duration": 0.42916666666678793,
    "end": 203.96875,
    "pitch": 97,
    "start": 203.5395833333332,
    "velocity": 76
  },
  {
    "duration": 0.4281250000001364,
    "end": 203.96875,
    "pitch": 57,
    "start": 203.54062499999986,
    "velocity": 76
  },
  {
    "duration": 0.423958333333303,
    "end": 203.96875,
    "pitch": 85,
    "start": 203.5447916666667,
    "velocity": 76
  },
  {
    "duration": 0.41770833333339397,
    "end": 203.96875,
    "pitch": 93,
    "start": 203.5510416666666,
    "velocity": 69
  },
  {
    "duration": 1.128125000000182,
    "end": 205.8885416666667,
    "pitch": 92,
    "start": 204.76041666666652,
    "velocity": 80
  },
  {
    "duration": 1.113020833333394,
    "end": 205.8885416666667,
    "pitch": 37,
    "start": 204.7755208333333,
    "velocity": 63
  },
  {
    "duration": 1.1098958333334394,
    "end": 205.8885416666667,
    "pitch": 80,
    "start": 204.77864583333326,
    "velocity": 73
  },
  {
    "duration": 1.1000000000001364,
    "end": 205.8885416666667,
    "pitch": 88,
    "start": 204.78854166666656,
    "velocity": 53
  },
  {
    "duration": 0.9010416666667425,
    "end": 205.8885416666667,
    "pitch": 44,
    "start": 204.98749999999995,
    "velocity": 74
  },
  {
    "duration": 0.7229166666668334,
    "end": 205.8885416666667,
    "pitch": 49,
    "start": 205.16562499999986,
    "velocity": 59
  },
  {
    "duration": 0.5390625,
    "end": 205.8885416666667,
    "pitch": 52,
    "start": 205.3494791666667,
    "velocity": 59
  },
  {
    "duration": 0.3468750000001819,
    "end": 205.8885416666667,
    "pitch": 56,
    "start": 205.54166666666652,
    "velocity": 65
  },
  {
    "duration": 0.16614583333330302,
    "end": 205.8885416666667,
    "pitch": 61,
    "start": 205.7223958333334,
    "velocity": 85
  },
  {
    "duration": 0.22968749999995453,
    "end": 206.09635416666652,
    "pitch": 90,
    "start": 205.86666666666656,
    "velocity": 40
  },
  {
    "duration": 0.14010416666656056,
    "end": 206.03072916666656,
    "pitch": 81,
    "start": 205.890625,
    "velocity": 80
  },
  {
    "duration": 0.13489583333330302,
    "end": 206.0276041666666,
    "pitch": 93,
    "start": 205.8927083333333,
    "velocity": 60
  },
  {
    "duration": 0.19062499999995453,
    "end": 206.0843749999999,
    "pitch": 85,
    "start": 205.89374999999995,
    "velocity": 68
  },
  {
    "duration": 1.1869791666665606,
    "end": 207.72135416666652,
    "pitch": 92,
    "start": 206.53437499999995,
    "velocity": 80
  },
  {
    "duration": 1.171875,
    "end": 207.72135416666652,
    "pitch": 37,
    "start": 206.54947916666652,
    "velocity": 55
  },
  {
    "duration": 1.1708333333331211,
    "end": 207.72135416666652,
    "pitch": 80,
    "start": 206.5505208333334,
    "velocity": 69
  },
  {
    "duration": 1.1557291666665606,
    "end": 207.72135416666652,
    "pitch": 88,
    "start": 206.56562499999995,
    "velocity": 51
  },
  {
    "duration": 0.972916666666606,
    "end": 207.72135416666652,
    "pitch": 44,
    "start": 206.7484374999999,
    "velocity": 70
  },
  {
    "duration": 0.7927083333331666,
    "end": 207.72135416666652,
    "pitch": 49,
    "start": 206.92864583333335,
    "velocity": 62
  },
  {
    "duration": 0.6177083333332121,
    "end": 207.72135416666652,
    "pitch": 52,
    "start": 207.1036458333333,
    "velocity": 50
  },
  {
    "duration": 0.42604166666660603,
    "end": 207.72135416666652,
    "pitch": 56,
    "start": 207.2953124999999,
    "velocity": 46
  },
  {
    "duration": 0.26197916666660603,
    "end": 207.72135416666652,
    "pitch": 61,
    "start": 207.4593749999999,
    "velocity": 63
  },
  {
    "duration": 0.9619791666666515,
    "end": 208.5843749999999,
    "pitch": 90,
    "start": 207.62239583333326,
    "velocity": 44
  },
  {
    "duration": 0.9479166666665151,
    "end": 208.5843749999999,
    "pitch": 93,
    "start": 207.6364583333334,
    "velocity": 77
  },
  {
    "duration": 0.9390624999998636,
    "end": 208.5843749999999,
    "pitch": 81,
    "start": 207.64531250000005,
    "velocity": 70
  },
  {
    "duration": 0.9380208333332121,
    "end": 208.5843749999999,
    "pitch": 85,
    "start": 207.6463541666667,
    "velocity": 64
  },
  {
    "duration": 0.7588541666666515,
    "end": 208.5843749999999,
    "pitch": 54,
    "start": 207.82552083333326,
    "velocity": 64
  },
  {
    "duration": 0.5750000000000455,
    "end": 208.5843749999999,
    "pitch": 61,
    "start": 208.00937499999986,
    "velocity": 70
  },
  {
    "duration": 1.2281249999998636,
    "end": 210.3677083333332,
    "pitch": 92,
    "start": 209.13958333333335,
    "velocity": 80
  },
  {
    "duration": 1.207291666666606,
    "end": 210.3677083333332,
    "pitch": 80,
    "start": 209.1604166666666,
    "velocity": 67
  },
  {
    "duration": 1.207291666666606,
    "end": 210.3677083333332,
    "pitch": 88,
    "start": 209.1604166666666,
    "velocity": 59
  },
  {
    "duration": 1.188020833333212,
    "end": 210.3677083333332,
    "pitch": 37,
    "start": 209.1796875,
    "velocity": 58
  },
  {
    "duration": 0.9921875,
    "end": 210.3677083333332,
    "pitch": 44,
    "start": 209.3755208333332,
    "velocity": 61
  },
  {
    "duration": 0.8151041666665151,
    "end": 210.3677083333332,
    "pitch": 49,
    "start": 209.5526041666667,
    "velocity": 64
  },
  {
    "duration": 0.627083333333303,
    "end": 210.3677083333332,
    "pitch": 52,
    "start": 209.7406249999999,
    "velocity": 45
  },
  {
    "duration": 0.4453125,
    "end": 210.3677083333332,
    "pitch": 56,
    "start": 209.9223958333332,
    "velocity": 47
  },
  {
    "duration": 0.2703124999998181,
    "end": 210.3677083333332,
    "pitch": 61,
    "start": 210.0973958333334,
    "velocity": 63
  },
  {
    "duration": 1.130729166666697,
    "end": 211.39531250000005,
    "pitch": 90,
    "start": 210.26458333333335,
    "velocity": 18
  },
  {
    "duration": 1.0953124999998636,
    "end": 211.36979166666652,
    "pitch": 93,
    "start": 210.27447916666665,
    "velocity": 81
  },
  {
    "duration": 1.0812499999999545,
    "end": 211.36979166666652,
    "pitch": 81,
    "start": 210.28854166666656,
    "velocity": 67
  },
  {
    "duration": 1.080208333333303,
    "end": 211.36979166666652,
    "pitch": 85,
    "start": 210.2895833333332,
    "velocity": 64
  },
  {
    "duration": 0.8999999999998636,
    "end": 211.36979166666652,
    "pitch": 54,
    "start": 210.46979166666665,
    "velocity": 63
  },
  {
    "duration": 0.7302083333331666,
    "end": 211.36979166666652,
    "pitch": 61,
    "start": 210.63958333333335,
    "velocity": 60
  },
  {
    "duration": 0.5520833333332575,
    "end": 211.36979166666652,
    "pitch": 66,
    "start": 210.81770833333326,
    "velocity": 62
  },
  {
    "duration": 0.37239583333325754,
    "end": 211.36979166666652,
    "pitch": 69,
    "start": 210.99739583333326,
    "velocity": 45
  },
  {
    "duration": 1.030729166666788,
    "end": 212.39531250000005,
    "pitch": 92,
    "start": 211.36458333333326,
    "velocity": 78
  },
  {
    "duration": 1.019270833333394,
    "end": 212.39531250000005,
    "pitch": 76,
    "start": 211.37604166666665,
    "velocity": 42
  },
  {
    "duration": 1.0098958333335304,
    "end": 212.39531250000005,
    "pitch": 80,
    "start": 211.38541666666652,
    "velocity": 55
  },
  {
    "duration": 0.8515625,
    "end": 212.39531250000005,
    "pitch": 73,
    "start": 211.54375000000005,
    "velocity": 53
  },
  {
    "duration": 0.6765625000000455,
    "end": 212.39531250000005,
    "pitch": 69,
    "start": 211.71875,
    "velocity": 51
  },
  {
    "duration": 0.4989583333333485,
    "end": 212.39531250000005,
    "pitch": 90,
    "start": 211.8963541666667,
    "velocity": 54
  },
  {
    "duration": 0.49375000000009095,
    "end": 212.39531250000005,
    "pitch": 78,
    "start": 211.90156249999995,
    "velocity": 61
  },
  {
    "duration": 0.4906250000001364,
    "end": 212.39531250000005,
    "pitch": 66,
    "start": 211.9046874999999,
    "velocity": 68
  },
  {
    "duration": 0.3015625000000455,
    "end": 212.39531250000005,
    "pitch": 64,
    "start": 212.09375,
    "velocity": 57
  },
  {
    "duration": 0.1328125,
    "end": 212.39947916666665,
    "pitch": 61,
    "start": 212.26666666666665,
    "velocity": 67
  },
  {
    "duration": 1.648958333333212,
    "end": 214.0843749999999,
    "pitch": 97,
    "start": 212.4354166666667,
    "velocity": 72
  },
  {
    "duration": 1.355208333333394,
    "end": 213.7927083333334,
    "pitch": 93,
    "start": 212.4375,
    "velocity": 79
  },
  {
    "duration": 1.644791666666606,
    "end": 214.0843749999999,
    "pitch": 85,
    "start": 212.4395833333333,
    "velocity": 75
  },
  {
    "duration": 0.3088541666668334,
    "end": 212.77239583333335,
    "pitch": 57,
    "start": 212.46354166666652,
    "velocity": 66
  },
  {
    "duration": 0.2458333333331666,
    "end": 212.9223958333332,
    "pitch": 54,
    "start": 212.67656250000005,
    "velocity": 23
  },
  {
    "duration": 1.3119791666665606,
    "end": 214.0843749999999,
    "pitch": 57,
    "start": 212.77239583333335,
    "velocity": 1
  },
  {
    "duration": 1.161979166666697,
    "end": 214.0843749999999,
    "pitch": 54,
    "start": 212.9223958333332,
    "velocity": 84
  },
  {
    "duration": 0.8609374999998636,
    "end": 214.0843749999999,
    "pitch": 52,
    "start": 213.22343750000005,
    "velocity": 69
  },
  {
    "duration": 0.6119791666665151,
    "end": 214.0843749999999,
    "pitch": 92,
    "start": 213.4723958333334,
    "velocity": 78
  },
  {
    "duration": 0.611458333333303,
    "end": 214.0843749999999,
    "pitch": 95,
    "start": 213.4729166666666,
    "velocity": 79
  },
  {
    "duration": 0.6109374999998636,
    "end": 214.0843749999999,
    "pitch": 49,
    "start": 213.47343750000005,
    "velocity": 75
  },
  {
    "duration": 0.599999999999909,
    "end": 214.0843749999999,
    "pitch": 83,
    "start": 213.484375,
    "velocity": 62
  },
  {
    "duration": 0.40677083333321207,
    "end": 214.0843749999999,
    "pitch": 45,
    "start": 213.6776041666667,
    "velocity": 75
  },
  {
    "duration": 0.29322916666660603,
    "end": 214.0843749999999,
    "pitch": 81,
    "start": 213.7911458333333,
    "velocity": 78
  },
  {
    "duration": 0.2916666666665151,
    "end": 214.0843749999999,
    "pitch": 93,
    "start": 213.7927083333334,
    "velocity": 72
  },
  {
    "duration": 0.2906249999998636,
    "end": 214.0843749999999,
    "pitch": 90,
    "start": 213.79375000000005,
    "velocity": 66
  },
  {
    "duration": 0.18541666666669698,
    "end": 214.0916666666667,
    "pitch": 42,
    "start": 213.90625,
    "velocity": 63
  },
  {
    "duration": 1.127083333333303,
    "end": 215.2286458333333,
    "pitch": 92,
    "start": 214.1015625,
    "velocity": 83
  },
  {
    "duration": 1.113020833333394,
    "end": 215.2286458333333,
    "pitch": 80,
    "start": 214.1156249999999,
    "velocity": 76
  },
  {
    "duration": 1.09375,
    "end": 215.2192708333332,
    "pitch": 88,
    "start": 214.1255208333332,
    "velocity": 65
  },
  {
    "duration": 1.099999999999909,
    "end": 215.2286458333333,
    "pitch": 35,
    "start": 214.1286458333334,
    "velocity": 76
  },
  {
    "duration": 0.1598958333331666,
    "end": 214.47135416666652,
    "pitch": 47,
    "start": 214.31145833333335,
    "velocity": 62
  },
  {
    "duration": 0.740104166666697,
    "end": 215.2114583333332,
    "pitch": 47,
    "start": 214.47135416666652,
    "velocity": 68
  },
  {
    "duration": 0.5703125,
    "end": 215.2286458333333,
    "pitch": 58,
    "start": 214.6583333333333,
    "velocity": 75
  },
  {
    "duration": 0.551041666666606,
    "end": 215.2286458333333,
    "pitch": 90,
    "start": 214.6776041666667,
    "velocity": 54
  },
  {
    "duration": 0.5479166666666515,
    "end": 215.2286458333333,
    "pitch": 78,
    "start": 214.68072916666665,
    "velocity": 69
  },
  {
    "duration": 0.5203125000000455,
    "end": 215.2286458333333,
    "pitch": 87,
    "start": 214.70833333333326,
    "velocity": 51
  },
  {
    "duration": 0.24375000000009095,
    "end": 215.01250000000005,
    "pitch": 57,
    "start": 214.76874999999995,
    "velocity": 14
  },
  {
    "duration": 0.35989583333343944,
    "end": 215.2286458333333,
    "pitch": 63,
    "start": 214.86874999999986,
    "velocity": 60
  },
  {
    "duration": 0.21614583333325754,
    "end": 215.2286458333333,
    "pitch": 57,
    "start": 215.01250000000005,
    "velocity": 44
  },
  {
    "duration": 0.1291666666668334,
    "end": 215.34062500000005,
    "pitch": 47,
    "start": 215.2114583333332,
    "velocity": 81
  },
  {
    "duration": 0.22135416666674246,
    "end": 215.44062499999995,
    "pitch": 88,
    "start": 215.2192708333332,
    "velocity": 75
  },
  {
    "duration": 0.14895833333321207,
    "end": 215.3713541666666,
    "pitch": 76,
    "start": 215.2223958333334,
    "velocity": 56
  },
  {
    "duration": 0.21458333333339397,
    "end": 215.4453125,
    "pitch": 85,
    "start": 215.2307291666666,
    "velocity": 71
  },
  {
    "duration": 0.7098958333333485,
    "end": 216.7755208333333,
    "pitch": 92,
    "start": 216.06562499999995,
    "velocity": 88
  },
  {
    "duration": 0.703125,
    "end": 216.7755208333333,
    "pitch": 35,
    "start": 216.0723958333333,
    "velocity": 76
  },
  {
    "duration": 0.6958333333334394,
    "end": 216.7755208333333,
    "pitch": 80,
    "start": 216.07968749999986,
    "velocity": 80
  },
  {
    "duration": 0.683854166666606,
    "end": 216.7755208333333,
    "pitch": 88,
    "start": 216.0916666666667,
    "velocity": 64
  },
  {
    "duration": 0.35104166666678793,
    "end": 216.7755208333333,
    "pitch": 47,
    "start": 216.42447916666652,
    "velocity": 70
  },
  {
    "duration": 1.068229166666697,
    "end": 217.87968750000005,
    "pitch": 92,
    "start": 216.81145833333335,
    "velocity": 88
  },
  {
    "duration": 1.0593750000000455,
    "end": 217.87968750000005,
    "pitch": 80,
    "start": 216.8203125,
    "velocity": 83
  },
  {
    "duration": 1.046875,
    "end": 217.87968750000005,
    "pitch": 35,
    "start": 216.83281250000005,
    "velocity": 81
  },
  {
    "duration": 0.9869791666667425,
    "end": 217.87968750000005,
    "pitch": 88,
    "start": 216.8927083333333,
    "velocity": 6
  },
  {
    "duration": 0.9729166666668334,
    "end": 217.87968750000005,
    "pitch": 89,
    "start": 216.9067708333332,
    "velocity": 9
  },
  {
    "duration": 0.1630208333333485,
    "end": 217.1645833333332,
    "pitch": 47,
    "start": 217.00156249999986,
    "velocity": 71
  },
  {
    "duration": 0.7151041666668334,
    "end": 217.87968750000005,
    "pitch": 47,
    "start": 217.1645833333332,
    "velocity": 17
  },
  {
    "duration": 0.5031250000001819,
    "end": 217.87968750000005,
    "pitch": 57,
    "start": 217.37656249999986,
    "velocity": 57
  },
  {
    "duration": 0.5020833333335304,
    "end": 217.87968750000005,
    "pitch": 90,
    "start": 217.37760416666652,
    "velocity": 67
  },
  {
    "duration": 0.4989583333333485,
    "end": 217.87968750000005,
    "pitch": 78,
    "start": 217.3807291666667,
    "velocity": 78
  },
  {
    "duration": 0.4739583333334849,
    "end": 217.87968750000005,
    "pitch": 87,
    "start": 217.40572916666656,
    "velocity": 59
  },
  {
    "duration": 0.6822916666667425,
    "end": 218.60260416666665,
    "pitch": 92,
    "start": 217.9203124999999,
    "velocity": 90
  },
  {
    "duration": 0.6729166666666515,
    "end": 218.60260416666665,
    "pitch": 80,
    "start": 217.9296875,
    "velocity": 84
  },
  {
    "duration": 0.6640625,
    "end": 218.60260416666665,
    "pitch": 88,
    "start": 217.93854166666665,
    "velocity": 70
  },
  {
    "duration": 0.659895833333394,
    "end": 218.60260416666665,
    "pitch": 35,
    "start": 217.94270833333326,
    "velocity": 80
  },
  {
    "duration": 0.18020833333321207,
    "end": 218.2874999999999,
    "pitch": 47,
    "start": 218.1072916666667,
    "velocity": 67
  },
  {
    "duration": 0.31510416666674246,
    "end": 218.60260416666665,
    "pitch": 47,
    "start": 218.2874999999999,
    "velocity": 61
  },
  {
    "duration": 0.24375000000009095,
    "end": 218.70208333333335,
    "pitch": 90,
    "start": 218.45833333333326,
    "velocity": 69
  },
  {
    "duration": 0.2119791666666515,
    "end": 218.67135416666656,
    "pitch": 78,
    "start": 218.4593749999999,
    "velocity": 79
  },
  {
    "duration": 0.19374999999990905,
    "end": 218.66718749999995,
    "pitch": 57,
    "start": 218.47343750000005,
    "velocity": 75
  },
  {
    "duration": 0.17604166666660603,
    "end": 218.69635416666665,
    "pitch": 87,
    "start": 218.52031250000005,
    "velocity": 22
  },
  {
    "duration": 1.130729166666697,
    "end": 221.31145833333335,
    "pitch": 92,
    "start": 220.18072916666665,
    "velocity": 75
  },
  {
    "duration": 1.1161458333333485,
    "end": 221.31145833333335,
    "pitch": 80,
    "start": 220.1953125,
    "velocity": 67
  },
  {
    "duration": 1.1078125000001364,
    "end": 221.31145833333335,
    "pitch": 88,
    "start": 220.2036458333332,
    "velocity": 55
  },
  {
    "duration": 1.098958333333485,
    "end": 221.31145833333335,
    "pitch": 37,
    "start": 220.21249999999986,
    "velocity": 52
  },
  {
    "duration": 0.923958333333303,
    "end": 221.31145833333335,
    "pitch": 44,
    "start": 220.38750000000005,
    "velocity": 57
  },
  {
    "duration": 0.747916666666697,
    "end": 221.31145833333335,
    "pitch": 49,
    "start": 220.56354166666665,
    "velocity": 57
  },
  {
    "duration": 0.579687500000091,
    "end": 221.31145833333335,
    "pitch": 52,
    "start": 220.73177083333326,
    "velocity": 54
  },
  {
    "duration": 0.40677083333343944,
    "end": 221.31145833333335,
    "pitch": 56,
    "start": 220.9046874999999,
    "velocity": 55
  },
  {
    "duration": 0.2307291666668334,
    "end": 221.31145833333335,
    "pitch": 61,
    "start": 221.08072916666652,
    "velocity": 63
  },
  {
    "duration": 1.09375,
    "end": 222.33749999999986,
    "pitch": 90,
    "start": 221.24374999999986,
    "velocity": 53
  },
  {
    "duration": 1.0770833333333485,
    "end": 222.33749999999986,
    "pitch": 93,
    "start": 221.26041666666652,
    "velocity": 75
  },
  {
    "duration": 1.0770833333333485,
    "end": 222.33749999999986,
    "pitch": 85,
    "start": 221.26041666666652,
    "velocity": 69
  },
  {
    "duration": 1.0739583333331666,
    "end": 222.33749999999986,
    "pitch": 81,
    "start": 221.2635416666667,
    "velocity": 75
  },
  {
    "duration": 0.9031249999998181,
    "end": 222.33749999999986,
    "pitch": 54,
    "start": 221.43437500000005,
    "velocity": 68
  },
  {
    "duration": 0.7197916666666515,
    "end": 222.33749999999986,
    "pitch": 61,
    "start": 221.6177083333332,
    "velocity": 64
  },
  {
    "duration": 0.560937499999909,
    "end": 222.33749999999986,
    "pitch": 66,
    "start": 221.77656249999995,
    "velocity": 67
  },
  {
    "duration": 0.3739583333333485,
    "end": 222.33749999999986,
    "pitch": 69,
    "start": 221.96354166666652,
    "velocity": 46
  },
  {
    "duration": 0.2041666666666515,
    "end": 222.33749999999986,
    "pitch": 73,
    "start": 222.1333333333332,
    "velocity": 61
  },
  {
    "duration": 0.5499999999999545,
    "end": 222.86041666666665,
    "pitch": 92,
    "start": 222.3104166666667,
    "velocity": 78
  },
  {
    "duration": 0.4906250000001364,
    "end": 222.8083333333334,
    "pitch": 76,
    "start": 222.31770833333326,
    "velocity": 41
  },
  {
    "duration": 0.4817708333334849,
    "end": 222.8083333333334,
    "pitch": 80,
    "start": 222.3265624999999,
    "velocity": 52
  },
  {
    "duration": 0.32760416666678793,
    "end": 222.8083333333334,
    "pitch": 73,
    "start": 222.4807291666666,
    "velocity": 64
  },
  {
    "duration": 0.17499999999995453,
    "end": 222.84375,
    "pitch": 69,
    "start": 222.66875000000005,
    "velocity": 48
  },
  {
    "duration": 0.5187499999999545,
    "end": 223.33333333333326,
    "pitch": 90,
    "start": 222.8145833333333,
    "velocity": 67
  },
  {
    "duration": 0.07291666666674246,
    "end": 222.88958333333335,
    "pitch": 78,
    "start": 222.8166666666666,
    "velocity": 65
  },
  {
    "duration": 0.47291666666660603,
    "end": 223.33333333333326,
    "pitch": 66,
    "start": 222.86041666666665,
    "velocity": 14
  },
  {
    "duration": 0.42812499999990905,
    "end": 223.33333333333326,
    "pitch": 67,
    "start": 222.90520833333335,
    "velocity": 23
  },
  {
    "duration": 0.31770833333325754,
    "end": 223.33333333333326,
    "pitch": 64,
    "start": 223.015625,
    "velocity": 57
  },
  {
    "duration": 0.14114583333343944,
    "end": 223.3416666666667,
    "pitch": 61,
    "start": 223.20052083333326,
    "velocity": 70
  },
  {
    "duration": 1.173437500000091,
    "end": 224.53020833333335,
    "pitch": 97,
    "start": 223.35677083333326,
    "velocity": 67
  },
  {
    "duration": 1.1729166666666515,
    "end": 224.53020833333335,
    "pitch": 85,
    "start": 223.3572916666667,
    "velocity": 75
  },
  {
    "duration": 0.831770833333394,
    "end": 224.19843749999995,
    "pitch": 93,
    "start": 223.36666666666656,
    "velocity": 72
  },
  {
    "duration": 1.1468750000001364,
    "end": 224.53020833333335,
    "pitch": 57,
    "start": 223.3833333333332,
    "velocity": 75
  },
  {
    "duration": 0.9656250000000455,
    "end": 224.53020833333335,
    "pitch": 54,
    "start": 223.5645833333333,
    "velocity": 53
  },
  {
    "duration": 0.7958333333333485,
    "end": 224.53020833333335,
    "pitch": 52,
    "start": 223.734375,
    "velocity": 50
  },
  {
    "duration": 0.6557291666667879,
    "end": 224.53020833333335,
    "pitch": 95,
    "start": 223.87447916666656,
    "velocity": 78
  },
  {
    "duration": 0.638541666666697,
    "end": 224.53020833333335,
    "pitch": 83,
    "start": 223.89166666666665,
    "velocity": 68
  },
  {
    "duration": 0.609375,
    "end": 224.50260416666652,
    "pitch": 92,
    "start": 223.89322916666652,
    "velocity": 61
  },
  {
    "duration": 0.6244791666667879,
    "end": 224.53020833333335,
    "pitch": 49,
    "start": 223.90572916666656,
    "velocity": 71
  },
  {
    "duration": 0.13802083333348492,
    "end": 224.27239583333335,
    "pitch": 45,
    "start": 224.13437499999986,
    "velocity": 38
  },
  {
    "duration": 0.3947916666668334,
    "end": 224.53020833333335,
    "pitch": 47,
    "start": 224.13541666666652,
    "velocity": 33
  },
  {
    "duration": 0.33177083333339397,
    "end": 224.53020833333335,
    "pitch": 93,
    "start": 224.19843749999995,
    "velocity": 49
  },
  {
    "duration": 0.33072916666674246,
    "end": 224.53020833333335,
    "pitch": 81,
    "start": 224.1994791666666,
    "velocity": 60
  },
  {
    "duration": 0.3088541666668334,
    "end": 224.53020833333335,
    "pitch": 89,
    "start": 224.22135416666652,
    "velocity": 29
  },
  {
    "duration": 0.2578125,
    "end": 224.53020833333335,
    "pitch": 45,
    "start": 224.27239583333335,
    "velocity": 1
  },
  {
    "duration": 0.19062499999995453,
    "end": 224.53020833333335,
    "pitch": 42,
    "start": 224.3395833333334,
    "velocity": 70
  },
  {
    "duration": 1.044791666666697,
    "end": 225.5473958333332,
    "pitch": 92,
    "start": 224.50260416666652,
    "velocity": 78
  },
  {
    "duration": 1.035937499999818,
    "end": 225.5473958333332,
    "pitch": 80,
    "start": 224.5114583333334,
    "velocity": 72
  },
  {
    "duration": 0.13072916666669698,
    "end": 224.6703124999999,
    "pitch": 35,
    "start": 224.5395833333332,
    "velocity": 67
  },
  {
    "duration": 1.005729166666697,
    "end": 225.5473958333332,
    "pitch": 88,
    "start": 224.54166666666652,
    "velocity": 44
  },
  {
    "duration": 0.8489583333332575,
    "end": 225.5473958333332,
    "pitch": 47,
    "start": 224.69843749999995,
    "velocity": 55
  },
  {
    "duration": 0.3453124999998636,
    "end": 225.36874999999986,
    "pitch": 57,
    "start": 225.0234375,
    "velocity": 46
  },
  {
    "duration": 0.5088541666666515,
    "end": 225.5473958333332,
    "pitch": 78,
    "start": 225.03854166666656,
    "velocity": 76
  },
  {
    "duration": 0.506249999999909,
    "end": 225.5473958333332,
    "pitch": 90,
    "start": 225.0411458333333,
    "velocity": 58
  },
  {
    "duration": 0.4796874999999545,
    "end": 225.5473958333332,
    "pitch": 87,
    "start": 225.06770833333326,
    "velocity": 53
  },
  {
    "duration": 0.3229166666665151,
    "end": 225.5473958333332,
    "pitch": 63,
    "start": 225.2244791666667,
    "velocity": 70
  },
  {
    "duration": 0.1786458333333485,
    "end": 225.5473958333332,
    "pitch": 57,
    "start": 225.36874999999986,
    "velocity": 33
  },
  {
    "duration": 0.11666666666656056,
    "end": 225.6723958333332,
    "pitch": 47,
    "start": 225.55572916666665,
    "velocity": 65
  },
  {
    "duration": 0.1593750000001819,
    "end": 225.71562500000005,
    "pitch": 76,
    "start": 225.55624999999986,
    "velocity": 63
  },
  {
    "duration": 1.184374999999818,
    "end": 226.74374999999986,
    "pitch": 88,
    "start": 225.55937500000005,
    "velocity": 70
  },
  {
    "duration": 1.1713541666665606,
    "end": 226.74374999999986,
    "pitch": 85,
    "start": 225.5723958333333,
    "velocity": 68
  },
  {
    "duration": 0.9802083333331666,
    "end": 226.74374999999986,
    "pitch": 57,
    "start": 225.7635416666667,
    "velocity": 50
  },
  {
    "duration": 0.8052083333332121,
    "end": 226.74374999999986,
    "pitch": 63,
    "start": 225.93854166666665,
    "velocity": 43
  },
  {
    "duration": 0.6421874999998636,
    "end": 226.74374999999986,
    "pitch": 90,
    "start": 226.1015625,
    "velocity": 75
  },
  {
    "duration": 0.6239583333333485,
    "end": 226.74374999999986,
    "pitch": 78,
    "start": 226.11979166666652,
    "velocity": 59
  },
  {
    "duration": 0.590104166666606,
    "end": 226.74374999999986,
    "pitch": 87,
    "start": 226.15364583333326,
    "velocity": 34
  },
  {
    "duration": 0.38906249999990905,
    "end": 226.74374999999986,
    "pitch": 55,
    "start": 226.35468749999995,
    "velocity": 15
  },
  {
    "duration": 0.25,
    "end": 226.74374999999986,
    "pitch": 47,
    "start": 226.49374999999986,
    "velocity": 48
  },
  {
    "duration": 1.589062500000182,
    "end": 228.29375000000005,
    "pitch": 92,
    "start": 226.70468749999986,
    "velocity": 72
  },
  {
    "duration": 1.5692708333333485,
    "end": 228.29375000000005,
    "pitch": 80,
    "start": 226.7244791666667,
    "velocity": 54
  },
  {
    "duration": 1.554166666666788,
    "end": 228.29375000000005,
    "pitch": 40,
    "start": 226.73958333333326,
    "velocity": 48
  },
  {
    "duration": 1.497395833333485,
    "end": 228.29375000000005,
    "pitch": 88,
    "start": 226.79635416666656,
    "velocity": 8
  },
  {
    "duration": 1.372395833333485,
    "end": 228.29375000000005,
    "pitch": 47,
    "start": 226.92135416666656,
    "velocity": 48
  },
  {
    "duration": 1.2192708333334394,
    "end": 228.29375000000005,
    "pitch": 52,
    "start": 227.0744791666666,
    "velocity": 41
  },
  {
    "duration": 1.036979166666697,
    "end": 228.29375000000005,
    "pitch": 56,
    "start": 227.25677083333335,
    "velocity": 55
  },
  {
    "duration": 0.8390625000001819,
    "end": 228.29375000000005,
    "pitch": 59,
    "start": 227.45468749999986,
    "velocity": 61
  },
  {
    "duration": 0.661979166666697,
    "end": 228.29375000000005,
    "pitch": 64,
    "start": 227.63177083333335,
    "velocity": 63
  },
  {
    "duration": 0.46145833333343944,
    "end": 228.29375000000005,
    "pitch": 89,
    "start": 227.8322916666666,
    "velocity": 63
  },
  {
    "duration": 0.46041666666678793,
    "end": 228.29375000000005,
    "pitch": 87,
    "start": 227.83333333333326,
    "velocity": 62
  },
  {
    "duration": 0.36302083333339397,
    "end": 228.29375000000005,
    "pitch": 77,
    "start": 227.93072916666665,
    "velocity": 3
  },
  {
    "duration": 0.3614583333335304,
    "end": 228.29375000000005,
    "pitch": 79,
    "start": 227.93229166666652,
    "velocity": 2
  },
  {
    "duration": 0.09322916666678793,
    "end": 228.29375000000005,
    "pitch": 78,
    "start": 228.20052083333326,
    "velocity": 74
  },
  {
    "duration": 0.09583333333353039,
    "end": 228.30156250000005,
    "pitch": 90,
    "start": 228.20572916666652,
    "velocity": 44
  },
  {
    "duration": 0.09166666666669698,
    "end": 228.33333333333326,
    "pitch": 91,
    "start": 228.24166666666656,
    "velocity": 28
  },
  {
    "duration": 0.9812500000000455,
    "end": 230.65364583333326,
    "pitch": 92,
    "start": 229.6723958333332,
    "velocity": 72
  },
  {
    "duration": 0.9703124999998636,
    "end": 230.65364583333326,
    "pitch": 80,
    "start": 229.6833333333334,
    "velocity": 65
  },
  {
    "duration": 0.9682291666665606,
    "end": 230.65364583333326,
    "pitch": 37,
    "start": 229.6854166666667,
    "velocity": 59
  },
  {
    "duration": 0.9479166666667425,
    "end": 230.65364583333326,
    "pitch": 88,
    "start": 229.70572916666652,
    "velocity": 43
  },
  {
    "duration": 0.7682291666667425,
    "end": 230.65364583333326,
    "pitch": 44,
    "start": 229.88541666666652,
    "velocity": 64
  },
  {
    "duration": 0.609375,
    "end": 230.65364583333326,
    "pitch": 49,
    "start": 230.04427083333326,
    "velocity": 62
  },
  {
    "duration": 0.44791666666674246,
    "end": 230.65364583333326,
    "pitch": 52,
    "start": 230.20572916666652,
    "velocity": 54
  },
  {
    "duration": 0.2749999999998636,
    "end": 230.65364583333326,
    "pitch": 56,
    "start": 230.3786458333334,
    "velocity": 56
  },
  {
    "duration": 0.13229166666656056,
    "end": 230.65364583333326,
    "pitch": 61,
    "start": 230.5213541666667,
    "velocity": 75
  },
  {
    "duration": 2.1979166666667425,
    "end": 233.27656249999995,
    "pitch": 92,
    "start": 231.0786458333332,
    "velocity": 81
  },
  {
    "duration": 2.1880208333334394,
    "end": 233.27656249999995,
    "pitch": 80,
    "start": 231.08854166666652,
    "velocity": 80
  },
  {
    "duration": 2.1791666666665606,
    "end": 233.27656249999995,
    "pitch": 88,
    "start": 231.0973958333334,
    "velocity": 62
  },
  {
    "duration": 1.5093749999998636,
    "end": 232.61666666666656,
    "pitch": 37,
    "start": 231.1072916666667,
    "velocity": 58
  },
  {
    "duration": 0.09479166666665151,
    "end": 231.4005208333333,
    "pitch": 44,
    "start": 231.30572916666665,
    "velocity": 72
  },
  {
    "duration": 1.2161458333332575,
    "end": 232.61666666666656,
    "pitch": 44,
    "start": 231.4005208333333,
    "velocity": 1
  },
  {
    "duration": 1.136979166666606,
    "end": 232.61666666666656,
    "pitch": 49,
    "start": 231.47968749999995,
    "velocity": 67
  },
  {
    "duration": 0.984375,
    "end": 232.61666666666656,
    "pitch": 52,
    "start": 231.63229166666656,
    "velocity": 60
  },
  {
    "duration": 0.5322916666666515,
    "end": 232.45989583333335,
    "pitch": 56,
    "start": 231.9276041666667,
    "velocity": 44
  },
  {
    "duration": 0.4093749999999545,
    "end": 232.61666666666656,
    "pitch": 57,
    "start": 232.2072916666666,
    "velocity": 43
  },
  {
    "duration": 0.816666666666606,
    "end": 233.27656249999995,
    "pitch": 56,
    "start": 232.45989583333335,
    "velocity": 80
  },
  {
    "duration": 0.45729166666660603,
    "end": 233.27656249999995,
    "pitch": 61,
    "start": 232.81927083333335,
    "velocity": 80
  },
  {
    "duration": 1.030729166666788,
    "end": 234.2244791666667,
    "pitch": 93,
    "start": 233.1937499999999,
    "velocity": 83
  },
  {
    "duration": 1.058333333333394,
    "end": 234.2536458333334,
    "pitch": 90,
    "start": 233.1953125,
    "velocity": 73
  },
  {
    "duration": 1.0619791666665606,
    "end": 234.2583333333332,
    "pitch": 85,
    "start": 233.19635416666665,
    "velocity": 80
  },
  {
    "duration": 1.027083333333394,
    "end": 234.2244791666667,
    "pitch": 81,
    "start": 233.1973958333333,
    "velocity": 80
  },
  {
    "duration": 0.8447916666666515,
    "end": 234.2244791666667,
    "pitch": 54,
    "start": 233.37968750000005,
    "velocity": 59
  },
  {
    "duration": 0.673958333333303,
    "end": 234.2244791666667,
    "pitch": 61,
    "start": 233.5505208333334,
    "velocity": 59
  },
  {
    "duration": 0.5010416666666515,
    "end": 234.2244791666667,
    "pitch": 66,
    "start": 233.72343750000005,
    "velocity": 74
  },
  {
    "duration": 0.328125,
    "end": 234.2244791666667,
    "pitch": 69,
    "start": 233.8963541666667,
    "velocity": 58
  },
  {
    "duration": 0.16614583333330302,
    "end": 234.23749999999995,
    "pitch": 73,
    "start": 234.07135416666665,
    "velocity": 70
  },
  {
    "duration": 0.590104166666606,
    "end": 234.81979166666656,
    "pitch": 92,
    "start": 234.22968749999995,
    "velocity": 76
  },
  {
    "duration": 0.517187500000091,
    "end": 234.76458333333335,
    "pitch": 80,
    "start": 234.24739583333326,
    "velocity": 56
  },
  {
    "duration": 0.509895833333303,
    "end": 234.76458333333335,
    "pitch": 76,
    "start": 234.25468750000005,
    "velocity": 43
  },
  {
    "duration": 0.3489583333334849,
    "end": 234.76458333333335,
    "pitch": 73,
    "start": 234.41562499999986,
    "velocity": 65
  },
  {
    "duration": 0.1875,
    "end": 234.78125,
    "pitch": 69,
    "start": 234.59375,
    "velocity": 50
  },
  {
    "duration": 0.558333333333394,
    "end": 235.3046875,
    "pitch": 90,
    "start": 234.7463541666666,
    "velocity": 64
  },
  {
    "duration": 0.12968750000004547,
    "end": 234.88229166666656,
    "pitch": 78,
    "start": 234.75260416666652,
    "velocity": 65
  },
  {
    "duration": 0.5401041666666515,
    "end": 235.3046875,
    "pitch": 66,
    "start": 234.76458333333335,
    "velocity": 73
  },
  {
    "duration": 0.35520833333339397,
    "end": 235.3046875,
    "pitch": 64,
    "start": 234.9494791666666,
    "velocity": 48
  },
  {
    "duration": 0.17812500000013642,
    "end": 235.3104166666667,
    "pitch": 61,
    "start": 235.13229166666656,
    "velocity": 62
  },
  {
    "duration": 0.964583333333394,
    "end": 236.29427083333326,
    "pitch": 97,
    "start": 235.32968749999986,
    "velocity": 64
  },
  {
    "duration": 0.9760416666667879,
    "end": 236.3067708333333,
    "pitch": 85,
    "start": 235.33072916666652,
    "velocity": 81
  },
  {
    "duration": 1.0723153220548678,
    "end": 236.31562499999995,
    "pitch": 93,
    "start": 235.3322916666666,
    "velocity": 81
  },
  {
    "duration": 0.9739583333332575,
    "end": 236.3223958333333,
    "pitch": 57,
    "start": 235.34843750000005,
    "velocity": 70
  },
  {
    "duration": 0.6609375000000455,
    "end": 236.33333333333326,
    "pitch": 54,
    "start": 235.6723958333332,
    "velocity": 77
  },
  {
    "duration": 0.3999999999998636,
    "end": 236.33333333333326,
    "pitch": 52,
    "start": 235.9333333333334,
    "velocity": 68
  },
  {
    "duration": 1.140104166666788,
    "end": 237.43437500000005,
    "pitch": 97,
    "start": 236.29427083333326,
    "velocity": 83
  },
  {
    "duration": 1.1276041666667425,
    "end": 237.43437500000005,
    "pitch": 85,
    "start": 236.3067708333333,
    "velocity": 83
  },
  {
    "duration": 0.794791666666697,
    "end": 237.11041666666665,
    "pitch": 93,
    "start": 236.31562499999995,
    "velocity": 70
  },
  {
    "duration": 1.1119791666667425,
    "end": 237.43437500000005,
    "pitch": 57,
    "start": 236.3223958333333,
    "velocity": 64
  },
  {
    "duration": 0.9270833333334849,
    "end": 237.43437500000005,
    "pitch": 54,
    "start": 236.50729166666656,
    "velocity": 78
  },
  {
    "duration": 0.7526041666667425,
    "end": 237.43437500000005,
    "pitch": 52,
    "start": 236.6817708333333,
    "velocity": 65
  },
  {
    "duration": 0.6218750000000455,
    "end": 237.43437500000005,
    "pitch": 95,
    "start": 236.8125,
    "velocity": 77
  },
  {
    "duration": 0.6057291666668334,
    "end": 237.4255208333334,
    "pitch": 92,
    "start": 236.81979166666656,
    "velocity": 75
  },
  {
    "duration": 0.6119791666667425,
    "end": 237.43437500000005,
    "pitch": 83,
    "start": 236.8223958333333,
    "velocity": 64
  },
  {
    "duration": 0.6078125000001364,
    "end": 237.43437500000005,
    "pitch": 49,
    "start": 236.8265624999999,
    "velocity": 78
  },
  {
    "duration": 0.41770833333339397,
    "end": 237.43437500000005,
    "pitch": 45,
    "start": 237.01666666666665,
    "velocity": 80
  },
  {
    "duration": 0.33177083333339397,
    "end": 237.43437500000005,
    "pitch": 81,
    "start": 237.10260416666665,
    "velocity": 80
  },
  {
    "duration": 0.33072916666674246,
    "end": 237.43437500000005,
    "pitch": 90,
    "start": 237.1036458333333,
    "velocity": 68
  },
  {
    "duration": 0.32395833333339397,
    "end": 237.43437500000005,
    "pitch": 93,
    "start": 237.11041666666665,
    "velocity": 65
  },
  {
    "duration": 0.23593749999986358,
    "end": 237.4536458333332,
    "pitch": 42,
    "start": 237.21770833333335,
    "velocity": 75
  },
  {
    "duration": 1.058854166666606,
    "end": 238.484375,
    "pitch": 92,
    "start": 237.4255208333334,
    "velocity": 85
  },
  {
    "duration": 1.046875,
    "end": 238.484375,
    "pitch": 80,
    "start": 237.4375,
    "velocity": 80
  },
  {
    "duration": 1.036979166666697,
    "end": 238.484375,
    "pitch": 88,
    "start": 237.4473958333333,
    "velocity": 68
  },
  {
    "duration": 0.125,
    "end": 237.57343749999995,
    "pitch": 35,
    "start": 237.44843749999995,
    "velocity": 70
  },
  {
    "duration": 0.19895833333339397,
    "end": 237.8145833333333,
    "pitch": 47,
    "start": 237.6156249999999,
    "velocity": 61
  },
  {
    "duration": 0.7036458333334394,
    "end": 238.484375,
    "pitch": 45,
    "start": 237.78072916666656,
    "velocity": 20
  },
  {
    "duration": 0.669791666666697,
    "end": 238.484375,
    "pitch": 47,
    "start": 237.8145833333333,
    "velocity": 18
  },
  {
    "duration": 0.318229166666697,
    "end": 238.2927083333334,
    "pitch": 57,
    "start": 237.9744791666667,
    "velocity": 47
  },
  {
    "duration": 0.5088541666666515,
    "end": 238.484375,
    "pitch": 78,
    "start": 237.97552083333335,
    "velocity": 75
  },
  {
    "duration": 0.4989583333333485,
    "end": 238.484375,
    "pitch": 90,
    "start": 237.98541666666665,
    "velocity": 51
  },
  {
    "duration": 0.4796874999999545,
    "end": 238.484375,
    "pitch": 87,
    "start": 238.00468750000005,
    "velocity": 57
  },
  {
    "duration": 0.32187500000009095,
    "end": 238.484375,
    "pitch": 63,
    "start": 238.1624999999999,
    "velocity": 75
  },
  {
    "duration": 0.19166666666660603,
    "end": 238.484375,
    "pitch": 57,
    "start": 238.2927083333334,
    "velocity": 39
  },
  {
    "duration": 0.12187500000004547,
    "end": 238.609375,
    "pitch": 47,
    "start": 238.48749999999995,
    "velocity": 67
  },
  {
    "duration": 0.15625,
    "end": 238.64791666666656,
    "pitch": 76,
    "start": 238.49166666666656,
    "velocity": 79
  },
  {
    "duration": 1.2026041666665606,
    "end": 239.70833333333326,
    "pitch": 88,
    "start": 238.5057291666667,
    "velocity": 67
  },
  {
    "duration": 1.1927083333332575,
    "end": 239.70833333333326,
    "pitch": 85,
    "start": 238.515625,
    "velocity": 73
  },
  {
    "duration": 0.5026041666665151,
    "end": 239.22031249999986,
    "pitch": 57,
    "start": 238.71770833333335,
    "velocity": 43
  },
  {
    "duration": 0.8359375,
    "end": 239.70833333333326,
    "pitch": 63,
    "start": 238.87239583333326,
    "velocity": 55
  },
  {
    "duration": 0.6645833333332121,
    "end": 239.70833333333326,
    "pitch": 90,
    "start": 239.04375000000005,
    "velocity": 77
  },
  {
    "duration": 0.642708333333303,
    "end": 239.70833333333326,
    "pitch": 78,
    "start": 239.06562499999995,
    "velocity": 63
  },
  {
    "duration": 0.6395833333333485,
    "end": 239.70833333333326,
    "pitch": 87,
    "start": 239.0687499999999,
    "velocity": 61
  },
  {
    "duration": 0.48802083333339397,
    "end": 239.70833333333326,
    "pitch": 57,
    "start": 239.22031249999986,
    "velocity": 63
  },
  {
    "duration": 0.2880208333333485,
    "end": 239.70833333333326,
    "pitch": 47,
    "start": 239.4203124999999,
    "velocity": 55
  },
  {
    "duration": 1.593229166666788,
    "end": 241.27447916666665,
    "pitch": 92,
    "start": 239.68124999999986,
    "velocity": 79
  },
  {
    "duration": 1.5890624999999545,
    "end": 241.27447916666665,
    "pitch": 40,
    "start": 239.6854166666667,
    "velocity": 68
  },
  {
    "duration": 1.5770833333333485,
    "end": 241.27447916666665,
    "pitch": 80,
    "start": 239.6973958333333,
    "velocity": 62
  },
  {
    "duration": 1.5479166666666515,
    "end": 241.27447916666665,
    "pitch": 88,
    "start": 239.7265625,
    "velocity": 42
  },
  {
    "duration": 1.3880208333332575,
    "end": 241.27447916666665,
    "pitch": 47,
    "start": 239.8864583333334,
    "velocity": 58
  },
  {
    "duration": 1.220833333333303,
    "end": 241.27447916666665,
    "pitch": 52,
    "start": 240.05364583333335,
    "velocity": 52
  },
  {
    "duration": 1.051041666666606,
    "end": 241.27447916666665,
    "pitch": 56,
    "start": 240.22343750000005,
    "velocity": 69
  },
  {
    "duration": 0.8718750000000455,
    "end": 241.27447916666665,
    "pitch": 59,
    "start": 240.4026041666666,
    "velocity": 57
  },
  {
    "duration": 0.701041666666697,
    "end": 241.27447916666665,
    "pitch": 64,
    "start": 240.57343749999995,
    "velocity": 67
  },
  {
    "duration": 0.5401041666666515,
    "end": 241.76666666666665,
    "pitch": 90,
    "start": 241.2265625,
    "velocity": 73
  },
  {
    "duration": 0.5296875000001364,
    "end": 241.76666666666665,
    "pitch": 78,
    "start": 241.23697916666652,
    "velocity": 56
  },
  {
    "duration": 0.504166666666606,
    "end": 241.76666666666665,
    "pitch": 87,
    "start": 241.26250000000005,
    "velocity": 52
  },
  {
    "duration": 0.3203125,
    "end": 241.76666666666665,
    "pitch": 68,
    "start": 241.44635416666665,
    "velocity": 66
  },
  {
    "duration": 0.23229166666669698,
    "end": 241.87968750000005,
    "pitch": 71,
    "start": 241.64739583333335,
    "velocity": 41
  },
  {
    "duration": 0.5619791666667879,
    "end": 242.3572916666667,
    "pitch": 76,
    "start": 241.7953124999999,
    "velocity": 66
  },
  {
    "duration": 0.6119791666665151,
    "end": 242.4124999999999,
    "pitch": 88,
    "start": 241.8005208333334,
    "velocity": 61
  },
  {
    "duration": 0.540625000000091,
    "end": 242.3572916666667,
    "pitch": 85,
    "start": 241.8166666666666,
    "velocity": 62
  },
  {
    "duration": 1.15625,
    "end": 243.5177083333333,
    "pitch": 90,
    "start": 242.3614583333333,
    "velocity": 67
  },
  {
    "duration": 1.136979166666606,
    "end": 243.5177083333333,
    "pitch": 78,
    "start": 242.3807291666667,
    "velocity": 51
  },
  {
    "duration": 1.1354166666667425,
    "end": 243.5177083333333,
    "pitch": 45,
    "start": 242.38229166666656,
    "velocity": 46
  },
  {
    "duration": 0.28281250000009095,
    "end": 242.6755208333334,
    "pitch": 85,
    "start": 242.3927083333333,
    "velocity": 41
  },
  {
    "duration": 0.96875,
    "end": 243.5177083333333,
    "pitch": 54,
    "start": 242.5489583333333,
    "velocity": 60
  },
  {
    "duration": 0.818749999999909,
    "end": 243.4942708333333,
    "pitch": 85,
    "start": 242.6755208333334,
    "velocity": 1
  },
  {
    "duration": 0.7890625,
    "end": 243.5177083333333,
    "pitch": 57,
    "start": 242.7286458333333,
    "velocity": 45
  },
  {
    "duration": 0.613020833333394,
    "end": 243.5177083333333,
    "pitch": 76,
    "start": 242.9046874999999,
    "velocity": 60
  },
  {
    "duration": 0.6119791666667425,
    "end": 243.5177083333333,
    "pitch": 88,
    "start": 242.90572916666656,
    "velocity": 69
  },
  {
    "duration": 0.6041666666667425,
    "end": 243.5177083333333,
    "pitch": 61,
    "start": 242.91354166666656,
    "velocity": 61
  },
  {
    "duration": 0.416145833333303,
    "end": 243.5177083333333,
    "pitch": 63,
    "start": 243.1015625,
    "velocity": 61
  },
  {
    "duration": 0.3250000000000455,
    "end": 243.5177083333333,
    "pitch": 75,
    "start": 243.19270833333326,
    "velocity": 55
  },
  {
    "duration": 0.31614583333339397,
    "end": 243.5177083333333,
    "pitch": 87,
    "start": 243.2015624999999,
    "velocity": 60
  },
  {
    "duration": 0.21614583333325754,
    "end": 243.5177083333333,
    "pitch": 66,
    "start": 243.30156250000005,
    "velocity": 39
  },
  {
    "duration": 1.3390624999999545,
    "end": 244.8265624999999,
    "pitch": 68,
    "start": 243.48749999999995,
    "velocity": 71
  },
  {
    "duration": 1.338020833333303,
    "end": 244.8265624999999,
    "pitch": 73,
    "start": 243.4885416666666,
    "velocity": 67
  },
  {
    "duration": 1.300520833333394,
    "end": 244.7947916666667,
    "pitch": 85,
    "start": 243.4942708333333,
    "velocity": 59
  },
  {
    "duration": 1.141145833333212,
    "end": 244.8265624999999,
    "pitch": 66,
    "start": 243.6854166666667,
    "velocity": 60
  },
  {
    "duration": 0.9520833333333485,
    "end": 244.8265624999999,
    "pitch": 60,
    "start": 243.87447916666656,
    "velocity": 48
  },
  {
    "duration": 0.7859375000000455,
    "end": 244.83281250000005,
    "pitch": 87,
    "start": 244.046875,
    "velocity": 74
  },
  {
    "duration": 0.7708333333332575,
    "end": 244.8265624999999,
    "pitch": 56,
    "start": 244.05572916666665,
    "velocity": 51
  },
  {
    "duration": 0.7703125000000455,
    "end": 244.8265624999999,
    "pitch": 75,
    "start": 244.05624999999986,
    "velocity": 69
  },
  {
    "duration": 0.5692708333333485,
    "end": 244.8265624999999,
    "pitch": 54,
    "start": 244.25729166666656,
    "velocity": 43
  },
  {
    "duration": 0.3859374999999545,
    "end": 244.8265624999999,
    "pitch": 44,
    "start": 244.44062499999995,
    "velocity": 63
  },
  {
    "duration": 0.22239583333339397,
    "end": 244.94270833333326,
    "pitch": 37,
    "start": 244.72031249999986,
    "velocity": 55
  },
  {
    "duration": 1.0968749999999545,
    "end": 245.89166666666665,
    "pitch": 85,
    "start": 244.7947916666667,
    "velocity": 59
  },
  {
    "duration": 1.093229166666788,
    "end": 245.89166666666665,
    "pitch": 76,
    "start": 244.79843749999986,
    "velocity": 58
  },
  {
    "duration": 1.0833333333332575,
    "end": 245.89166666666665,
    "pitch": 88,
    "start": 244.8083333333334,
    "velocity": 63
  },
  {
    "duration": 0.9140625,
    "end": 245.89166666666665,
    "pitch": 44,
    "start": 244.97760416666665,
    "velocity": 44
  },
  {
    "duration": 0.7432291666666515,
    "end": 245.89166666666665,
    "pitch": 49,
    "start": 245.1484375,
    "velocity": 52
  },
  {
    "duration": 0.576041666666697,
    "end": 245.89166666666665,
    "pitch": 52,
    "start": 245.31562499999995,
    "velocity": 38
  },
  {
    "duration": 0.3968750000001364,
    "end": 245.89166666666665,
    "pitch": 56,
    "start": 245.49479166666652,
    "velocity": 44
  },
  {
    "duration": 0.2411458333333485,
    "end": 245.89166666666665,
    "pitch": 61,
    "start": 245.6505208333333,
    "velocity": 75
  },
  {
    "duration": 1.171875,
    "end": 246.9744791666667,
    "pitch": 90,
    "start": 245.8026041666667,
    "velocity": 69
  },
  {
    "duration": 1.151562500000182,
    "end": 246.9744791666667,
    "pitch": 78,
    "start": 245.82291666666652,
    "velocity": 48
  },
  {
    "duration": 0.12812499999995453,
    "end": 245.9536458333332,
    "pitch": 64,
    "start": 245.82552083333326,
    "velocity": 54
  },
  {
    "duration": 0.9791666666667425,
    "end": 246.9744791666667,
    "pitch": 68,
    "start": 245.99531249999995,
    "velocity": 67
  },
  {
    "duration": 0.8151041666667425,
    "end": 246.9744791666667,
    "pitch": 73,
    "start": 246.15937499999995,
    "velocity": 75
  },
  {
    "duration": 0.6401041666667879,
    "end": 246.9744791666667,
    "pitch": 92,
    "start": 246.3343749999999,
    "velocity": 72
  },
  {
    "duration": 0.630729166666697,
    "end": 246.9744791666667,
    "pitch": 76,
    "start": 246.34375,
    "velocity": 57
  },
  {
    "duration": 0.625,
    "end": 246.9744791666667,
    "pitch": 80,
    "start": 246.3494791666667,
    "velocity": 41
  },
  {
    "duration": 0.16979166666669698,
    "end": 247.04218749999995,
    "pitch": 54,
    "start": 246.87239583333326,
    "velocity": 44
  },
  {
    "duration": 1.107291666666697,
    "end": 247.99166666666656,
    "pitch": 93,
    "start": 246.88437499999986,
    "velocity": 78
  },
  {
    "duration": 1.064062500000091,
    "end": 247.9666666666667,
    "pitch": 81,
    "start": 246.9026041666666,
    "velocity": 58
  },
  {
    "duration": 0.935937499999909,
    "end": 247.99166666666656,
    "pitch": 61,
    "start": 247.05572916666665,
    "velocity": 61
  },
  {
    "duration": 0.75,
    "end": 247.99166666666656,
    "pitch": 64,
    "start": 247.24166666666656,
    "velocity": 42
  },
  {
    "duration": 0.615104166666697,
    "end": 247.99166666666656,
    "pitch": 95,
    "start": 247.37656249999986,
    "velocity": 82
  },
  {
    "duration": 0.5989583333332575,
    "end": 247.99166666666656,
    "pitch": 69,
    "start": 247.3927083333333,
    "velocity": 50
  },
  {
    "duration": 0.5942708333332121,
    "end": 247.99166666666656,
    "pitch": 83,
    "start": 247.39739583333335,
    "velocity": 68
  },
  {
    "duration": 0.421875,
    "end": 247.99166666666656,
    "pitch": 73,
    "start": 247.56979166666656,
    "velocity": 62
  },
  {
    "duration": 0.2302083333331666,
    "end": 247.99166666666656,
    "pitch": 76,
    "start": 247.7614583333334,
    "velocity": 47
  },
  {
    "duration": 1.2421875,
    "end": 249.1645833333332,
    "pitch": 97,
    "start": 247.9223958333332,
    "velocity": 82
  },
  {
    "duration": 1.2119791666666515,
    "end": 249.1645833333332,
    "pitch": 85,
    "start": 247.95260416666656,
    "velocity": 58
  },
  {
    "duration": 0.1296874999998181,
    "end": 248.09635416666652,
    "pitch": 81,
    "start": 247.9666666666667,
    "velocity": 47
  },
  {
    "duration": 1.0421874999999545,
    "end": 249.1645833333332,
    "pitch": 76,
    "start": 248.12239583333326,
    "velocity": 52
  },
  {
    "duration": 0.8781249999999545,
    "end": 249.1645833333332,
    "pitch": 73,
    "start": 248.28645833333326,
    "velocity": 62
  },
  {
    "duration": 0.693229166666697,
    "end": 249.1447916666666,
    "pitch": 69,
    "start": 248.4515624999999,
    "velocity": 53
  },
  {
    "duration": 0.5109374999999545,
    "end": 249.1645833333332,
    "pitch": 64,
    "start": 248.65364583333326,
    "velocity": 51
  },
  {
    "duration": 0.34010416666660603,
    "end": 249.1645833333332,
    "pitch": 61,
    "start": 248.8244791666666,
    "velocity": 52
  },
  {
    "duration": 1.7583333333334394,
    "end": 250.8536458333333,
    "pitch": 95,
    "start": 249.09531249999986,
    "velocity": 82
  },
  {
    "duration": 1.747916666666697,
    "end": 250.8536458333333,
    "pitch": 63,
    "start": 249.1057291666666,
    "velocity": 59
  },
  {
    "duration": 1.708854166666697,
    "end": 250.8536458333333,
    "pitch": 69,
    "start": 249.1447916666666,
    "velocity": 25
  },
  {
    "duration": 1.642708333333303,
    "end": 250.8104166666667,
    "pitch": 59,
    "start": 249.1677083333334,
    "velocity": 21
  },
  {
    "duration": 1.5598958333332575,
    "end": 250.8536458333333,
    "pitch": 92,
    "start": 249.29375000000005,
    "velocity": 80
  },
  {
    "duration": 1.3640625000000455,
    "end": 250.8536458333333,
    "pitch": 87,
    "start": 249.48958333333326,
    "velocity": 70
  },
  {
    "duration": 0.7510416666666515,
    "end": 250.4124999999999,
    "pitch": 83,
    "start": 249.66145833333326,
    "velocity": 57
  },
  {
    "duration": 1.011979166666606,
    "end": 250.8536458333333,
    "pitch": 80,
    "start": 249.8416666666667,
    "velocity": 69
  },
  {
    "duration": 0.8348958333333485,
    "end": 250.8536458333333,
    "pitch": 75,
    "start": 250.01874999999995,
    "velocity": 52
  },
  {
    "duration": 0.3968750000001364,
    "end": 250.60833333333335,
    "pitch": 71,
    "start": 250.2114583333332,
    "velocity": 62
  },
  {
    "duration": 1.152083333333394,
    "end": 251.5645833333333,
    "pitch": 83,
    "start": 250.4124999999999,
    "velocity": 62
  },
  {
    "duration": 0.9583333333332575,
    "end": 251.5666666666666,
    "pitch": 71,
    "start": 250.60833333333335,
    "velocity": 55
  },
  {
    "duration": 0.416145833333303,
    "end": 251.2265625,
    "pitch": 59,
    "start": 250.8104166666667,
    "velocity": 47
  },
  {
    "duration": 0.6130208333331666,
    "end": 251.6333333333332,
    "pitch": 47,
    "start": 251.02031250000005,
    "velocity": 37
  },
  {
    "duration": 0.40677083333321207,
    "end": 251.6333333333332,
    "pitch": 59,
    "start": 251.2265625,
    "velocity": 48
  },
  {
    "duration": 0.21927083333321207,
    "end": 251.78072916666656,
    "pitch": 40,
    "start": 251.56145833333335,
    "velocity": 44
  },
  {
    "duration": 1.079687500000091,
    "end": 252.6442708333334,
    "pitch": 83,
    "start": 251.5645833333333,
    "velocity": 63
  },
  {
    "duration": 1.077604166666788,
    "end": 252.6442708333334,
    "pitch": 71,
    "start": 251.5666666666666,
    "velocity": 65
  },
  {
    "duration": 1.0635416666668789,
    "end": 252.6442708333334,
    "pitch": 79,
    "start": 251.58072916666652,
    "velocity": 40
  },
  {
    "duration": 0.8536458333335304,
    "end": 252.6442708333334,
    "pitch": 47,
    "start": 251.79062499999986,
    "velocity": 53
  },
  {
    "duration": 0.6979166666667425,
    "end": 252.6442708333334,
    "pitch": 52,
    "start": 251.94635416666665,
    "velocity": 56
  },
  {
    "duration": 0.5385416666667879,
    "end": 252.6442708333334,
    "pitch": 55,
    "start": 252.1057291666666,
    "velocity": 66
  },
  {
    "duration": 0.3661458333333485,
    "end": 252.6442708333334,
    "pitch": 59,
    "start": 252.27812500000005,
    "velocity": 70
  },
  {
    "duration": 0.18593750000013642,
    "end": 252.6442708333334,
    "pitch": 64,
    "start": 252.45833333333326,
    "velocity": 72
  },
  {
    "duration": 1.2213541666667425,
    "end": 253.84270833333335,
    "pitch": 84,
    "start": 252.6213541666666,
    "velocity": 83
  },
  {
    "duration": 1.220312500000091,
    "end": 253.84270833333335,
    "pitch": 72,
    "start": 252.62239583333326,
    "velocity": 85
  },
  {
    "duration": 1.2062499999999545,
    "end": 253.84270833333335,
    "pitch": 81,
    "start": 252.6364583333334,
    "velocity": 78
  },
  {
    "duration": 1.025000000000091,
    "end": 253.84270833333335,
    "pitch": 69,
    "start": 252.81770833333326,
    "velocity": 55
  },
  {
    "duration": 0.860937500000091,
    "end": 253.84270833333335,
    "pitch": 64,
    "start": 252.98177083333326,
    "velocity": 68
  },
  {
    "duration": 0.698958333333394,
    "end": 253.84270833333335,
    "pitch": 60,
    "start": 253.14374999999995,
    "velocity": 51
  },
  {
    "duration": 0.5421874999999545,
    "end": 253.84270833333335,
    "pitch": 57,
    "start": 253.3005208333334,
    "velocity": 55
  },
  {
    "duration": 0.34739583333339397,
    "end": 253.84270833333335,
    "pitch": 52,
    "start": 253.49531249999995,
    "velocity": 52
  },
  {
    "duration": 0.2640625000001364,
    "end": 253.96562500000005,
    "pitch": 71,
    "start": 253.7015624999999,
    "velocity": 76
  },
  {
    "duration": 1.056770833333303,
    "end": 254.75937499999986,
    "pitch": 83,
    "start": 253.70260416666656,
    "velocity": 68
  },
  {
    "duration": 1.0546875,
    "end": 254.75937499999986,
    "pitch": 79,
    "start": 253.70468749999986,
    "velocity": 52
  },
  {
    "duration": 0.855729166666606,
    "end": 254.75937499999986,
    "pitch": 36,
    "start": 253.90364583333326,
    "velocity": 61
  },
  {
    "duration": 0.6890624999998636,
    "end": 254.75937499999986,
    "pitch": 45,
    "start": 254.0703125,
    "velocity": 68
  },
  {
    "duration": 0.5317708333332121,
    "end": 254.75937499999986,
    "pitch": 69,
    "start": 254.22760416666665,
    "velocity": 70
  },
  {
    "duration": 0.5270833333331666,
    "end": 254.75937499999986,
    "pitch": 81,
    "start": 254.2322916666667,
    "velocity": 47
  },
  {
    "duration": 0.514062499999909,
    "end": 254.74739583333326,
    "pitch": 76,
    "start": 254.23333333333335,
    "velocity": 59
  },
  {
    "duration": 0.517708333333303,
    "end": 254.75937499999986,
    "pitch": 48,
    "start": 254.24166666666656,
    "velocity": 66
  },
  {
    "duration": 0.31770833333325754,
    "end": 254.75937499999986,
    "pitch": 52,
    "start": 254.4416666666666,
    "velocity": 23
  },
  {
    "duration": 0.4890625000000455,
    "end": 255.0645833333333,
    "pitch": 57,
    "start": 254.57552083333326,
    "velocity": 72
  },
  {
    "duration": 1.103645833333303,
    "end": 255.83333333333326,
    "pitch": 88,
    "start": 254.72968749999995,
    "velocity": 86
  },
  {
    "duration": 1.0859375,
    "end": 255.83333333333326,
    "pitch": 76,
    "start": 254.74739583333326,
    "velocity": 75
  },
  {
    "duration": 0.902604166666606,
    "end": 255.83333333333326,
    "pitch": 60,
    "start": 254.93072916666665,
    "velocity": 61
  },
  {
    "duration": 0.7687499999999545,
    "end": 255.83333333333326,
    "pitch": 57,
    "start": 255.0645833333333,
    "velocity": 70
  },
  {
    "duration": 0.6328125,
    "end": 255.83333333333326,
    "pitch": 52,
    "start": 255.20052083333326,
    "velocity": 68
  },
  {
    "duration": 0.6239583333333485,
    "end": 255.83333333333326,
    "pitch": 74,
    "start": 255.2093749999999,
    "velocity": 78
  },
  {
    "duration": 0.620833333333394,
    "end": 255.83333333333326,
    "pitch": 86,
    "start": 255.21249999999986,
    "velocity": 77
  },
  {
    "duration": 0.44895833333339397,
    "end": 255.83333333333326,
    "pitch": 48,
    "start": 255.38437499999986,
    "velocity": 70
  },
  {
    "duration": 0.35104166666656056,
    "end": 255.83333333333326,
    "pitch": 72,
    "start": 255.4822916666667,
    "velocity": 85
  },
  {
    "duration": 0.3468749999999545,
    "end": 255.83333333333326,
    "pitch": 84,
    "start": 255.4864583333333,
    "velocity": 74
  },
  {
    "duration": 0.23072916666660603,
    "end": 255.83333333333326,
    "pitch": 45,
    "start": 255.60260416666665,
    "velocity": 67
  },
  {
    "duration": 1.099999999999909,
    "end": 256.87447916666656,
    "pitch": 71,
    "start": 255.77447916666665,
    "velocity": 78
  },
  {
    "duration": 1.0541666666665606,
    "end": 256.8286458333332,
    "pitch": 79,
    "start": 255.77447916666665,
    "velocity": 63
  },
  {
    "duration": 1.092187499999909,
    "end": 256.87447916666656,
    "pitch": 83,
    "start": 255.78229166666665,
    "velocity": 56
  },
  {
    "duration": 0.8921874999998636,
    "end": 256.87447916666656,
    "pitch": 38,
    "start": 255.9822916666667,
    "velocity": 64
  },
  {
    "duration": 0.7411458333333485,
    "end": 256.87447916666656,
    "pitch": 50,
    "start": 256.1333333333332,
    "velocity": 56
  },
  {
    "duration": 0.5651041666665151,
    "end": 256.87447916666656,
    "pitch": 54,
    "start": 256.30937500000005,
    "velocity": 65
  },
  {
    "duration": 0.5640624999998636,
    "end": 256.87447916666656,
    "pitch": 69,
    "start": 256.3104166666667,
    "velocity": 62
  },
  {
    "duration": 0.5598958333332575,
    "end": 256.87447916666656,
    "pitch": 81,
    "start": 256.3145833333333,
    "velocity": 64
  },
  {
    "duration": 0.5552083333332121,
    "end": 256.87447916666656,
    "pitch": 78,
    "start": 256.31927083333335,
    "velocity": 64
  },
  {
    "duration": 0.3838541666666515,
    "end": 256.87447916666656,
    "pitch": 60,
    "start": 256.4906249999999,
    "velocity": 64
  },
  {
    "duration": 0.19375000000013642,
    "end": 256.8885416666667,
    "pitch": 62,
    "start": 256.69479166666656,
    "velocity": 64
  },
  {
    "duration": 1.1317708333333485,
    "end": 257.96041666666656,
    "pitch": 79,
    "start": 256.8286458333332,
    "velocity": 64
  },
  {
    "duration": 1.159895833333394,
    "end": 257.9942708333333,
    "pitch": 67,
    "start": 256.8343749999999,
    "velocity": 80
  },
  {
    "duration": 1.142708333333303,
    "end": 257.9942708333333,
    "pitch": 76,
    "start": 256.8515625,
    "velocity": 68
  },
  {
    "duration": 0.954687500000091,
    "end": 257.9942708333333,
    "pitch": 62,
    "start": 257.0395833333332,
    "velocity": 68
  },
  {
    "duration": 0.8036458333333485,
    "end": 257.9942708333333,
    "pitch": 60,
    "start": 257.19062499999995,
    "velocity": 60
  },
  {
    "duration": 0.6635416666667879,
    "end": 257.9942708333333,
    "pitch": 54,
    "start": 257.3307291666665,
    "velocity": 71
  },
  {
    "duration": 0.6046874999999545,
    "end": 257.9942708333333,
    "pitch": 78,
    "start": 257.38958333333335,
    "velocity": 52
  },
  {
    "duration": 0.5869791666666515,
    "end": 257.9942708333333,
    "pitch": 69,
    "start": 257.40729166666665,
    "velocity": 67
  },
  {
    "duration": 0.5859375,
    "end": 257.9942708333333,
    "pitch": 81,
    "start": 257.4083333333333,
    "velocity": 75
  },
  {
    "duration": 0.4656250000000455,
    "end": 257.9942708333333,
    "pitch": 50,
    "start": 257.52864583333326,
    "velocity": 71
  },
  {
    "duration": 0.25052083333343944,
    "end": 257.9942708333333,
    "pitch": 38,
    "start": 257.74374999999986,
    "velocity": 66
  },
  {
    "duration": 1.078125,
    "end": 259.01458333333335,
    "pitch": 83,
    "start": 257.93645833333335,
    "velocity": 76
  },
  {
    "duration": 1.0708333333334394,
    "end": 259.01458333333335,
    "pitch": 71,
    "start": 257.9437499999999,
    "velocity": 82
  },
  {
    "duration": 1.061979166666788,
    "end": 259.02239583333335,
    "pitch": 79,
    "start": 257.96041666666656,
    "velocity": 52
  },
  {
    "duration": 0.8859374999999545,
    "end": 259.01458333333335,
    "pitch": 43,
    "start": 258.1286458333334,
    "velocity": 75
  },
  {
    "duration": 0.705208333333303,
    "end": 259.01458333333335,
    "pitch": 50,
    "start": 258.30937500000005,
    "velocity": 62
  },
  {
    "duration": 0.5380208333333485,
    "end": 259.01458333333335,
    "pitch": 55,
    "start": 258.4765625,
    "velocity": 55
  },
  {
    "duration": 0.3421875000001364,
    "end": 259.01458333333335,
    "pitch": 59,
    "start": 258.6723958333332,
    "velocity": 48
  },
  {
    "duration": 0.1651041666666515,
    "end": 259.01458333333335,
    "pitch": 62,
    "start": 258.8494791666667,
    "velocity": 64
  },
  {
    "duration": 0.527083333333394,
    "end": 259.52239583333335,
    "pitch": 81,
    "start": 258.99531249999995,
    "velocity": 74
  },
  {
    "duration": 0.5197916666668334,
    "end": 259.52239583333335,
    "pitch": 69,
    "start": 259.0026041666665,
    "velocity": 66
  },
  {
    "duration": 1.095833333333303,
    "end": 260.1213541666666,
    "pitch": 74,
    "start": 259.0255208333333,
    "velocity": 51
  },
  {
    "duration": 0.3390624999999545,
    "end": 259.52239583333335,
    "pitch": 62,
    "start": 259.1833333333334,
    "velocity": 53
  },
  {
    "duration": 0.1796875,
    "end": 259.52239583333335,
    "pitch": 59,
    "start": 259.34270833333335,
    "velocity": 62
  },
  {
    "duration": 0.6119791666667425,
    "end": 260.1213541666666,
    "pitch": 67,
    "start": 259.50937499999986,
    "velocity": 70
  },
  {
    "duration": 0.6098958333332121,
    "end": 260.1213541666666,
    "pitch": 55,
    "start": 259.5114583333334,
    "velocity": 60
  },
  {
    "duration": 0.6687500000000455,
    "end": 260.18645833333335,
    "pitch": 79,
    "start": 259.5177083333333,
    "velocity": 49
  },
  {
    "duration": 0.4208333333333485,
    "end": 260.1213541666666,
    "pitch": 50,
    "start": 259.70052083333326,
    "velocity": 41
  },
  {
    "duration": 0.24270833333321207,
    "end": 260.1213541666666,
    "pitch": 43,
    "start": 259.8786458333334,
    "velocity": 63
  },
  {
    "duration": 0.865104166666697,
    "end": 260.9515624999999,
    "pitch": 69,
    "start": 260.0864583333332,
    "velocity": 62
  },
  {
    "duration": 0.8567708333332575,
    "end": 260.94635416666665,
    "pitch": 81,
    "start": 260.0895833333334,
    "velocity": 69
  },
  {
    "duration": 0.697395833333303,
    "end": 260.97968749999995,
    "pitch": 36,
    "start": 260.28229166666665,
    "velocity": 52
  },
  {
    "duration": 0.5421874999999545,
    "end": 260.97968749999995,
    "pitch": 45,
    "start": 260.4375,
    "velocity": 58
  },
  {
    "duration": 1.1791666666665606,
    "end": 262.1255208333332,
    "pitch": 81,
    "start": 260.94635416666665,
    "velocity": 85
  },
  {
    "duration": 1.1338541666666515,
    "end": 262.08541666666656,
    "pitch": 69,
    "start": 260.9515624999999,
    "velocity": 75
  },
  {
    "duration": 0.9817708333332575,
    "end": 262.1255208333332,
    "pitch": 36,
    "start": 261.14374999999995,
    "velocity": 61
  },
  {
    "duration": 0.8140624999998636,
    "end": 262.1255208333332,
    "pitch": 45,
    "start": 261.31145833333335,
    "velocity": 62
  },
  {
    "duration": 0.6510416666665151,
    "end": 262.1255208333332,
    "pitch": 79,
    "start": 261.4744791666667,
    "velocity": 68
  },
  {
    "duration": 0.6432291666665151,
    "end": 262.1255208333332,
    "pitch": 67,
    "start": 261.4822916666667,
    "velocity": 62
  },
  {
    "duration": 0.639062499999909,
    "end": 262.1255208333332,
    "pitch": 52,
    "start": 261.4864583333333,
    "velocity": 63
  },
  {
    "duration": 0.43593749999990905,
    "end": 262.1255208333332,
    "pitch": 57,
    "start": 261.6895833333333,
    "velocity": 51
  },
  {
    "duration": 0.3760416666666515,
    "end": 262.1255208333332,
    "pitch": 78,
    "start": 261.74947916666656,
    "velocity": 64
  },
  {
    "duration": 0.372916666666697,
    "end": 262.1255208333332,
    "pitch": 66,
    "start": 261.7526041666665,
    "velocity": 60
  },
  {
    "duration": 0.22499999999990905,
    "end": 262.1255208333332,
    "pitch": 60,
    "start": 261.9005208333333,
    "velocity": 51
  },
  {
    "duration": 0.4947916666665151,
    "end": 262.5531249999999,
    "pitch": 76,
    "start": 262.0583333333334,
    "velocity": 70
  },
  {
    "duration": 0.474479166666697,
    "end": 262.5531249999999,
    "pitch": 64,
    "start": 262.0786458333332,
    "velocity": 53
  },
  {
    "duration": 0.5338541666667425,
    "end": 262.6192708333333,
    "pitch": 69,
    "start": 262.08541666666656,
    "velocity": 57
  },
  {
    "duration": 0.30052083333339397,
    "end": 262.5531249999999,
    "pitch": 59,
    "start": 262.2526041666665,
    "velocity": 57
  },
  {
    "duration": 0.16927083333325754,
    "end": 262.57968749999986,
    "pitch": 57,
    "start": 262.4104166666666,
    "velocity": 58
  },
  {
    "duration": 0.6713541666665606,
    "end": 263.2427083333332,
    "pitch": 51,
    "start": 262.57135416666665,
    "velocity": 65
  },
  {
    "duration": 0.6499999999998636,
    "end": 263.2427083333332,
    "pitch": 78,
    "start": 262.59270833333335,
    "velocity": 68
  },
  {
    "duration": 0.6317708333333485,
    "end": 263.2427083333332,
    "pitch": 66,
    "start": 262.61093749999986,
    "velocity": 68
  },
  {
    "duration": 0.484375,
    "end": 263.2427083333332,
    "pitch": 47,
    "start": 262.7583333333332,
    "velocity": 78
  },
  {
    "duration": 0.26614583333321207,
    "end": 263.2427083333332,
    "pitch": 35,
    "start": 262.9765625,
    "velocity": 62
  },
  {
    "duration": 1.130208333333485,
    "end": 264.3005208333334,
    "pitch": 80,
    "start": 263.1703124999999,
    "velocity": 76
  },
  {
    "duration": 1.083854166666697,
    "end": 264.2583333333332,
    "pitch": 68,
    "start": 263.1744791666665,
    "velocity": 74
  },
  {
    "duration": 1.1000000000001364,
    "end": 264.3005208333334,
    "pitch": 76,
    "start": 263.20052083333326,
    "velocity": 49
  },
  {
    "duration": 0.9447916666667879,
    "end": 264.3005208333334,
    "pitch": 40,
    "start": 263.3557291666666,
    "velocity": 58
  },
  {
    "duration": 0.7432291666668789,
    "end": 264.3005208333334,
    "pitch": 47,
    "start": 263.5572916666665,
    "velocity": 53
  },
  {
    "duration": 0.5848958333333485,
    "end": 264.3005208333334,
    "pitch": 52,
    "start": 263.71562500000005,
    "velocity": 49
  },
  {
    "duration": 0.4130208333333485,
    "end": 264.3005208333334,
    "pitch": 56,
    "start": 263.88750000000005,
    "velocity": 62
  },
  {
    "duration": 0.2229166666668334,
    "end": 264.3005208333334,
    "pitch": 59,
    "start": 264.07760416666656,
    "velocity": 47
  },
  {
    "duration": 0.6223958333332575,
    "end": 264.85468749999995,
    "pitch": 78,
    "start": 264.2322916666667,
    "velocity": 59
  },
  {
    "duration": 1.179166666666788,
    "end": 265.4375,
    "pitch": 68,
    "start": 264.2583333333332,
    "velocity": 57
  },
  {
    "duration": 0.5890624999999545,
    "end": 264.85468749999995,
    "pitch": 66,
    "start": 264.265625,
    "velocity": 33
  },
  {
    "duration": 1.154166666666697,
    "end": 265.4375,
    "pitch": 71,
    "start": 264.2833333333333,
    "velocity": 33
  },
  {
    "duration": 0.39010416666656056,
    "end": 264.8364583333332,
    "pitch": 64,
    "start": 264.44635416666665,
    "velocity": 61
  },
  {
    "duration": 0.22135416666674246,
    "end": 264.85468749999995,
    "pitch": 59,
    "start": 264.6333333333332,
    "velocity": 45
  },
  {
    "duration": 0.11458333333348492,
    "end": 264.9333333333334,
    "pitch": 56,
    "start": 264.8187499999999,
    "velocity": 47
  },
  {
    "duration": 0.6010416666667879,
    "end": 265.4375,
    "pitch": 64,
    "start": 264.8364583333332,
    "velocity": 58
  },
  {
    "duration": 0.590104166666606,
    "end": 265.4375,
    "pitch": 76,
    "start": 264.8473958333334,
    "velocity": 52
  },
  {
    "duration": 0.44479166666678793,
    "end": 265.4375,
    "pitch": 52,
    "start": 264.9927083333332,
    "velocity": 46
  },
  {
    "duration": 0.23802083333339397,
    "end": 265.4375,
    "pitch": 47,
    "start": 265.1994791666666,
    "velocity": 56
  },
  {
    "duration": 0.53125,
    "end": 265.97968749999995,
    "pitch": 78,
    "start": 265.44843749999995,
    "velocity": 66
  },
  {
    "duration": 0.529166666666697,
    "end": 265.97968749999995,
    "pitch": 66,
    "start": 265.45052083333326,
    "velocity": 69
  },
  {
    "duration": 0.125,
    "end": 265.5916666666667,
    "pitch": 73,
    "start": 265.4666666666667,
    "velocity": 58
  },
  {
    "duration": 0.49635416666660603,
    "end": 265.97968749999995,
    "pitch": 33,
    "start": 265.48333333333335,
    "velocity": 49
  }
]
